<?xml version="1.0" encoding="utf-8" standalone="no"?>
<!DOCTYPE svg PUBLIC "-//W3C//DTD SVG 1.1//EN"
  "http://www.w3.org/Graphics/SVG/1.1/DTD/svg11.dtd">
<!-- Created with matplotlib (http://matplotlib.org/) -->
<svg height="432pt" version="1.1" viewBox="0 0 576 432" width="576pt" xmlns="http://www.w3.org/2000/svg" xmlns:xlink="http://www.w3.org/1999/xlink">
 <defs>
  <style type="text/css">
*{stroke-linecap:butt;stroke-linejoin:round;}
  </style>
 </defs>
 <g id="figure_1">
  <g id="patch_1">
   <path d="
M0 432
L576 432
L576 0
L0 0
z
" style="fill:#ffffff;"/>
  </g>
  <g id="axes_1">
   <g id="patch_2">
    <path d="
M45.5913 190.745
L514.602 190.745
L514.602 18.81
L45.5913 18.81
z
" style="fill:#ffffff;"/>
   </g>
   <g id="line2d_1">
    <path clip-path="url(#p8e8d647484)" d="
M45.4257 190.745
L53.5369 190.745
L53.5369 190.745
L53.7024 189.859
L54.0335 183.542
L54.5301 166.557
L55.5324 130.789
L57.0131 97.9342
L57.5097 92.3122
L58.5029 87.0913
L59.6616 81.1765
L61.4825 70.3905
L61.648 70.0329
L61.8135 70.0791
L62.1446 71.1434
L62.6412 74.2696
L63.4689 79.5604
L63.9655 80.9286
L64.4621 81.5265
L64.9587 82.1084
L65.2897 82.8601
L65.4553 83.4289
L65.6208 85.6016
L65.9519 97.4178
L67.2761 162.032
L67.4417 162.806
L67.4417 162.806
L67.9383 159.129
L69.7591 142.681
L71.4145 133.003
L71.7455 128.369
L72.2421 115.827
L73.2353 89.3826
L73.5664 85.4255
L73.8975 83.8505
L74.063 83.8272
L74.2285 84.291
L74.5596 86.6125
L75.0531 93.2735
L75.3873 99.7627
L75.8839 114.092
L77.2081 159.822
L77.8703 171.562
L78.5324 180.713
L79.029 185.281
L79.3601 186.876
L80.5188 189.859
L81.0154 190.589
L81.3465 190.745
L81.3465 190.745
L101.21 190.745
L101.21 190.745
L101.376 190.006
L101.707 184.731
L102.204 170.529
L103.197 140.597
L103.868 130.049
L104.356 125.214
L104.852 122.234
L105.183 121.111
L105.349 122.159
L105.68 131.458
L107.004 187.349
L107.17 187.736
L107.17 187.736
L107.335 185.215
L107.666 173.325
L109.156 102.772
L110.149 95.2747
L110.48 93.8719
L110.646 93.5267
L110.811 93.4637
L110.977 93.7163
L111.474 95.9317
L113.625 106.198
L114.784 110.486
L115.115 112.228
L115.446 115.701
L115.943 125.122
L117.102 150.34
L118.26 166.566
L119.088 175.271
L119.585 178.8
L119.916 180.174
L120.247 180.619
L120.412 180.454
L120.743 179.271
L121.074 176.847
L121.737 169.685
L122.988 152.932
L123.723 141.3
L125.047 119.535
L125.378 116.927
L125.544 116.711
L125.709 117.124
L126.04 119.543
L126.537 126.061
L127.199 137.766
L127.696 153.926
L128.523 183.506
L128.855 189.849
L129.02 190.745
L129.02 190.745
L148.884 190.745
L148.884 190.745
L149.05 189.468
L149.381 180.452
L149.877 156.765
L150.705 116.83
L151.202 105.513
L152.195 87.5747
L152.691 81.3471
L153.519 74.6439
L154.347 69.1524
L155.009 66.2025
L155.671 64.2054
L156.333 62.8508
L156.83 62.2236
L156.995 62.1481
L157.161 62.2248
L157.492 62.7754
L157.988 64.3719
L158.816 68.098
L159.147 71.4496
L159.644 80.9179
L160.306 94.1676
L160.637 97.7756
L160.802 98.1867
L160.802 98.1867
L160.968 97.5045
L161.299 93.447
L161.961 79.537
L162.458 69.6332
L162.789 65.9488
L164.113 58.7485
L164.61 57.1877
L164.941 56.7489
L165.603 56.3146
L166.431 55.8372
L166.864 55.3324
L166.864 55.3324
L167.258 54.3358
L168.353 51.148
L168.583 50.9675
L168.748 51.0478
L169.079 51.7019
L169.604 53.6925
L169.604 53.6925
L171.066 61.1696
L172.224 67.7867
L173.025 73.2697
L173.383 77.4836
L174.045 88.1859
L174.813 103.886
L174.813 103.886
L175.052 113.171
L175.714 151.903
L176.363 185.055
L176.694 190.745
L176.694 190.745
L196.558 190.745
L196.558 190.745
L196.723 189.443
L197.054 180.239
L197.551 156.019
L198.379 114.907
L198.875 102.909
L199.868 83.6958
L200.365 77.1012
L201.193 70.2565
L202.02 64.6742
L202.682 61.5438
L203.676 57.8935
L204.172 56.9027
L204.503 56.779
L204.503 56.779
L204.834 57.2075
L205.331 58.648
L206.324 61.9199
L206.655 62.4032
L206.986 62.462
L207.483 62.1038
L207.979 61.6981
L208.311 61.6723
L208.546 61.9109
L208.807 63.0104
L209.304 67.0535
L210.131 74.2625
L210.452 75.3962
L210.452 75.3962
L210.462 75.4053
L210.628 75.2577
L210.959 73.5776
L211.621 67.4131
L212.118 63.4137
L212.283 62.7205
L212.449 62.5101
L212.449 62.5101
L212.78 62.899
L213.277 64.142
L214.104 66.2591
L214.435 66.522
L214.435 66.522
L214.766 66.3098
L215.271 65.5118
L215.271 65.5118
L215.933 64.4154
L216.256 64.1959
L216.422 64.2295
L216.753 64.626
L217.084 65.3947
L217.746 67.7458
L218.739 72.3844
L219.401 77.0008
L220.063 83.2556
L220.726 91.694
L221.388 104.467
L222.546 132.228
L223.209 158.069
L223.871 183.094
L224.202 189.803
L224.367 190.745
L224.367 190.745
L244.231 190.745
L244.231 190.745
L244.397 190.072
L244.728 185.356
L245.39 168.702
L245.887 156.93
L246.218 152.776
L246.549 151.476
L246.714 151.215
L246.88 151.137
L247.211 151.308
L247.542 151.534
L247.831 151.421
L247.831 151.421
L248.039 150.986
L248.37 149.426
L248.866 145.626
L250.191 134.723
L250.356 134.331
L250.522 134.752
L250.853 137.399
L251.846 148.49
L252.117 149.184
L252.117 149.184
L252.177 149.051
L252.423 146.708
L252.423 146.708
L252.674 141.685
L253.501 116.949
L253.998 105.527
L254.329 102.913
L254.494 102.456
L254.66 102.381
L254.825 102.663
L255.157 104.198
L255.653 108.561
L256.15 114.807
L256.481 121.516
L257.143 142.603
L257.805 163.436
L258.136 169.826
L258.302 170.778
L258.467 169.646
L258.798 162.772
L259.791 134.82
L259.957 133.403
L260.123 134.006
L260.454 140.44
L260.95 157.405
L261.778 185.547
L262.109 189.885
L262.44 190.745
L263.764 190.745
L263.93 190.616
L264.261 189.251
L264.923 184.675
L265.585 180.418
L265.916 179.518
L266.082 179.569
L266.413 180.349
L266.909 182.283
L267.903 186.438
L269.392 190.074
L269.889 190.697
L270.386 190.745
L291.905 190.745
L291.905 190.745
L292.07 189.51
L292.402 180.836
L293.064 149.961
L293.726 122.541
L294.222 114.824
L295.547 98.7111
L297.533 78.2252
L298.195 73.7315
L298.692 71.7385
L299.188 70.5923
L299.685 69.9666
L301.009 68.8888
L301.34 68.988
L301.671 69.4334
L302.334 71.1734
L305.148 79.3253
L306.002 81.5901
L306.002 81.5901
L306.141 81.5401
L306.306 81.2336
L306.637 80.0378
L307.465 76.3606
L307.796 75.8351
L307.796 75.8351
L307.975 76.0537
L307.975 76.0537
L308.293 77.4308
L308.637 80.2056
L309.12 86.0435
L309.87 98.6665
L309.87 98.6665
L310.279 110.784
L311.603 157.947
L312.1 164.915
L312.762 171.634
L313.424 176.109
L313.755 177.42
L318.059 190.067
L318.556 190.645
L318.887 190.745
L339.579 190.745
L339.579 190.745
L339.744 190.085
L340.075 185.363
L340.572 172.572
L341.575 144.694
L342.393 131.227
L342.889 125.574
L343.386 122.315
L343.551 121.828
L343.717 122.812
L344.048 131.282
L344.71 161.427
L345.207 181.193
L345.372 184.802
L345.538 186.16
L345.703 185.906
L346.034 183.74
L346.696 175.97
L347.193 170.74
L347.524 169.253
L347.69 169.35
L348.021 170.744
L349.179 177.707
L349.345 177.632
L349.511 176.99
L349.676 175.365
L350.007 168.838
L351.331 134.41
L351.666 132.594
L352.325 130.972
L352.656 130.522
L352.987 130.358
L353.318 130.508
L353.98 131.483
L355.139 133.592
L355.801 135.132
L356.463 137.477
L357.125 140.685
L357.456 142.603
L357.787 146.65
L358.284 157.917
L359.111 177.752
L359.443 181.575
L360.105 184.552
L360.767 186.465
L361.263 187.197
L361.76 187.406
L363.084 187.621
L363.581 188.079
L364.243 189.248
L364.905 190.393
L365.236 190.702
L365.733 190.745
L387.418 190.715
L387.749 190.495
L388.245 189.85
L389.239 188.023
L389.57 187.142
L390.232 184.346
L391.225 180.142
L391.39 179.813
L391.556 179.763
L391.722 179.943
L392.053 180.785
L392.88 183.322
L393.046 183.495
L393.211 183.438
L393.377 182.831
L393.708 179.597
L394.867 164.011
L395.032 163.395
L395.198 163.665
L395.694 166.775
L397.846 183.127
L398.674 187.612
L399.171 189.455
L399.336 189.572
L399.502 189.069
L399.833 186.689
L400.826 177.395
L400.991 176.819
L401.157 176.847
L401.819 178.69
L403.143 182.578
L406.288 188.858
L406.785 189.477
L407.116 189.599
L407.116 189.599
L413.241 189.19
L413.572 189.395
L415.062 190.745
L415.062 190.745
L436.25 190.639
L437.905 190.602
L437.905 190.602
L441.051 190.546
L441.382 190.159
L442.706 187.908
L443.037 187.941
L443.534 188.421
L444.858 190.029
L446.182 190.554
L446.844 190.602
L446.844 190.602
L447.506 190.388
L448.996 189.713
L449.493 189.786
L450.817 190.172
L450.817 190.172
L450.983 190.074
L451.314 189.475
L452.638 186.067
L452.803 186.017
L452.803 186.017
L453.134 186.351
L453.631 187.531
L454.459 189.678
L454.79 190.029
L456.611 190.443
L461.08 190.745
L482.599 190.745
L482.599 190.745
L482.765 189.778
L483.096 183.045
L483.758 159.74
L484.357 142.125
L484.586 139.738
L484.751 140.149
L485.082 145.429
L485.658 162.723
L485.658 162.723
L486.241 179.877
L486.572 184.584
L486.903 185.889
L487.069 186.136
L487.234 186.086
L487.4 185.716
L487.731 183.933
L488.062 180.619
L488.559 172.405
L488.902 162.089
L489.626 128.593
L489.626 128.593
L490.214 103.407
L490.545 95.4644
L491.042 89.8044
L491.538 86.6954
L491.869 86.0786
L492.035 86.2157
L492.366 87.3953
L492.697 89.7968
L493.359 97.206
L494.187 106.403
L494.518 108.503
L495.014 110.187
L495.511 111.09
L495.842 111.217
L496.173 110.936
L496.504 110.222
L497.001 108.313
L497.497 105.452
L498.16 100.291
L498.656 95.2735
L499.153 87.0843
L500.146 69.0747
L500.477 65.6623
L500.974 62.9837
L501.47 61.4222
L501.801 60.8957
L502.132 60.7065
L502.463 60.7908
L502.96 61.2238
L503.509 62.039
L504.119 63.406
L504.615 64.9664
L505.112 67.5059
L505.826 72.7966
L505.826 72.7966
L506.602 80.2269
L507.098 87.6982
L507.926 104.88
L508.588 121.275
L509.085 142.724
L509.912 181.349
L510.243 189.584
L510.409 190.745
L510.409 190.745
L514.713 190.745
L514.713 190.745" style="fill:none;stroke:#0000ff;stroke-linecap:square;"/>
   </g>
   <g id="patch_3">
    <path d="
M45.5912 18.81
L514.602 18.81" style="fill:none;stroke:#000000;stroke-linecap:square;stroke-linejoin:miter;"/>
   </g>
   <g id="patch_4">
    <path d="
M514.602 190.745
L514.602 18.81" style="fill:none;stroke:#000000;stroke-linecap:square;stroke-linejoin:miter;"/>
   </g>
   <g id="patch_5">
    <path d="
M45.5912 190.745
L514.602 190.745" style="fill:none;stroke:#000000;stroke-linecap:square;stroke-linejoin:miter;"/>
   </g>
   <g id="patch_6">
    <path d="
M45.5913 190.745
L45.5913 18.81" style="fill:none;stroke:#000000;stroke-linecap:square;stroke-linejoin:miter;"/>
   </g>
   <g id="matplotlib.axis_1">
    <g id="xtick_1">
     <g id="line2d_2">
      <defs>
       <path d="
M0 0
L0 -4" id="m93b0483c22" style="stroke:#000000;stroke-width:0.5;"/>
      </defs>
      <g>
       <use style="stroke:#000000;stroke-width:0.5;" x="73.1801470588" xlink:href="#m93b0483c22" y="190.745"/>
      </g>
     </g>
     <g id="line2d_3">
      <defs>
       <path d="
M0 0
L0 4" id="m741efc42ff" style="stroke:#000000;stroke-width:0.5;"/>
      </defs>
      <g>
       <use style="stroke:#000000;stroke-width:0.5;" x="73.1801470588" xlink:href="#m741efc42ff" y="18.81"/>
      </g>
     </g>
     <g id="text_1">
      <!-- 2300000 -->
      <defs>
       <path d="
M19.1875 8.29688
L53.6094 8.29688
L53.6094 0
L7.32812 0
L7.32812 8.29688
Q12.9375 14.1094 22.625 23.8906
Q32.3281 33.6875 34.8125 36.5312
Q39.5469 41.8438 41.4219 45.5312
Q43.3125 49.2188 43.3125 52.7812
Q43.3125 58.5938 39.2344 62.25
Q35.1562 65.9219 28.6094 65.9219
Q23.9688 65.9219 18.8125 64.3125
Q13.6719 62.7031 7.8125 59.4219
L7.8125 69.3906
Q13.7656 71.7812 18.9375 73
Q24.125 74.2188 28.4219 74.2188
Q39.75 74.2188 46.4844 68.5469
Q53.2188 62.8906 53.2188 53.4219
Q53.2188 48.9219 51.5312 44.8906
Q49.8594 40.875 45.4062 35.4062
Q44.1875 33.9844 37.6406 27.2188
Q31.1094 20.4531 19.1875 8.29688" id="BitstreamVeraSans-Roman-32"/>
       <path d="
M40.5781 39.3125
Q47.6562 37.7969 51.625 33
Q55.6094 28.2188 55.6094 21.1875
Q55.6094 10.4062 48.1875 4.48438
Q40.7656 -1.42188 27.0938 -1.42188
Q22.5156 -1.42188 17.6562 -0.515625
Q12.7969 0.390625 7.625 2.20312
L7.625 11.7188
Q11.7188 9.32812 16.5938 8.10938
Q21.4844 6.89062 26.8125 6.89062
Q36.0781 6.89062 40.9375 10.5469
Q45.7969 14.2031 45.7969 21.1875
Q45.7969 27.6406 41.2812 31.2656
Q36.7656 34.9062 28.7188 34.9062
L20.2188 34.9062
L20.2188 43.0156
L29.1094 43.0156
Q36.375 43.0156 40.2344 45.9219
Q44.0938 48.8281 44.0938 54.2969
Q44.0938 59.9062 40.1094 62.9062
Q36.1406 65.9219 28.7188 65.9219
Q24.6562 65.9219 20.0156 65.0312
Q15.375 64.1562 9.8125 62.3125
L9.8125 71.0938
Q15.4375 72.6562 20.3438 73.4375
Q25.25 74.2188 29.5938 74.2188
Q40.8281 74.2188 47.3594 69.1094
Q53.9062 64.0156 53.9062 55.3281
Q53.9062 49.2656 50.4375 45.0938
Q46.9688 40.9219 40.5781 39.3125" id="BitstreamVeraSans-Roman-33"/>
       <path d="
M31.7812 66.4062
Q24.1719 66.4062 20.3281 58.9062
Q16.5 51.4219 16.5 36.375
Q16.5 21.3906 20.3281 13.8906
Q24.1719 6.39062 31.7812 6.39062
Q39.4531 6.39062 43.2812 13.8906
Q47.125 21.3906 47.125 36.375
Q47.125 51.4219 43.2812 58.9062
Q39.4531 66.4062 31.7812 66.4062
M31.7812 74.2188
Q44.0469 74.2188 50.5156 64.5156
Q56.9844 54.8281 56.9844 36.375
Q56.9844 17.9688 50.5156 8.26562
Q44.0469 -1.42188 31.7812 -1.42188
Q19.5312 -1.42188 13.0625 8.26562
Q6.59375 17.9688 6.59375 36.375
Q6.59375 54.8281 13.0625 64.5156
Q19.5312 74.2188 31.7812 74.2188" id="BitstreamVeraSans-Roman-30"/>
      </defs>
      <g transform="translate(47.2957720588 203.863125)scale(0.12 -0.12)">
       <use xlink:href="#BitstreamVeraSans-Roman-32"/>
       <use x="63.623046875" xlink:href="#BitstreamVeraSans-Roman-33"/>
       <use x="127.24609375" xlink:href="#BitstreamVeraSans-Roman-30"/>
       <use x="190.869140625" xlink:href="#BitstreamVeraSans-Roman-30"/>
       <use x="254.4921875" xlink:href="#BitstreamVeraSans-Roman-30"/>
       <use x="318.115234375" xlink:href="#BitstreamVeraSans-Roman-30"/>
       <use x="381.73828125" xlink:href="#BitstreamVeraSans-Roman-30"/>
      </g>
     </g>
    </g>
    <g id="xtick_2">
     <g id="line2d_4">
      <g>
       <use style="stroke:#000000;stroke-width:0.5;" x="128.357941176" xlink:href="#m93b0483c22" y="190.745"/>
      </g>
     </g>
     <g id="line2d_5">
      <g>
       <use style="stroke:#000000;stroke-width:0.5;" x="128.357941176" xlink:href="#m741efc42ff" y="18.81"/>
      </g>
     </g>
     <g id="text_2">
      <!-- 2400000 -->
      <defs>
       <path d="
M37.7969 64.3125
L12.8906 25.3906
L37.7969 25.3906
z

M35.2031 72.9062
L47.6094 72.9062
L47.6094 25.3906
L58.0156 25.3906
L58.0156 17.1875
L47.6094 17.1875
L47.6094 0
L37.7969 0
L37.7969 17.1875
L4.89062 17.1875
L4.89062 26.7031
z
" id="BitstreamVeraSans-Roman-34"/>
      </defs>
      <g transform="translate(102.473566176 203.863125)scale(0.12 -0.12)">
       <use xlink:href="#BitstreamVeraSans-Roman-32"/>
       <use x="63.623046875" xlink:href="#BitstreamVeraSans-Roman-34"/>
       <use x="127.24609375" xlink:href="#BitstreamVeraSans-Roman-30"/>
       <use x="190.869140625" xlink:href="#BitstreamVeraSans-Roman-30"/>
       <use x="254.4921875" xlink:href="#BitstreamVeraSans-Roman-30"/>
       <use x="318.115234375" xlink:href="#BitstreamVeraSans-Roman-30"/>
       <use x="381.73828125" xlink:href="#BitstreamVeraSans-Roman-30"/>
      </g>
     </g>
    </g>
    <g id="xtick_3">
     <g id="line2d_6">
      <g>
       <use style="stroke:#000000;stroke-width:0.5;" x="183.535735294" xlink:href="#m93b0483c22" y="190.745"/>
      </g>
     </g>
     <g id="line2d_7">
      <g>
       <use style="stroke:#000000;stroke-width:0.5;" x="183.535735294" xlink:href="#m741efc42ff" y="18.81"/>
      </g>
     </g>
     <g id="text_3">
      <!-- 2500000 -->
      <defs>
       <path d="
M10.7969 72.9062
L49.5156 72.9062
L49.5156 64.5938
L19.8281 64.5938
L19.8281 46.7344
Q21.9688 47.4688 24.1094 47.8281
Q26.2656 48.1875 28.4219 48.1875
Q40.625 48.1875 47.75 41.5
Q54.8906 34.8125 54.8906 23.3906
Q54.8906 11.625 47.5625 5.09375
Q40.2344 -1.42188 26.9062 -1.42188
Q22.3125 -1.42188 17.5469 -0.640625
Q12.7969 0.140625 7.71875 1.70312
L7.71875 11.625
Q12.1094 9.23438 16.7969 8.0625
Q21.4844 6.89062 26.7031 6.89062
Q35.1562 6.89062 40.0781 11.3281
Q45.0156 15.7656 45.0156 23.3906
Q45.0156 31 40.0781 35.4375
Q35.1562 39.8906 26.7031 39.8906
Q22.75 39.8906 18.8125 39.0156
Q14.8906 38.1406 10.7969 36.2812
z
" id="BitstreamVeraSans-Roman-35"/>
      </defs>
      <g transform="translate(157.651360294 203.863125)scale(0.12 -0.12)">
       <use xlink:href="#BitstreamVeraSans-Roman-32"/>
       <use x="63.623046875" xlink:href="#BitstreamVeraSans-Roman-35"/>
       <use x="127.24609375" xlink:href="#BitstreamVeraSans-Roman-30"/>
       <use x="190.869140625" xlink:href="#BitstreamVeraSans-Roman-30"/>
       <use x="254.4921875" xlink:href="#BitstreamVeraSans-Roman-30"/>
       <use x="318.115234375" xlink:href="#BitstreamVeraSans-Roman-30"/>
       <use x="381.73828125" xlink:href="#BitstreamVeraSans-Roman-30"/>
      </g>
     </g>
    </g>
    <g id="xtick_4">
     <g id="line2d_8">
      <g>
       <use style="stroke:#000000;stroke-width:0.5;" x="238.713529412" xlink:href="#m93b0483c22" y="190.745"/>
      </g>
     </g>
     <g id="line2d_9">
      <g>
       <use style="stroke:#000000;stroke-width:0.5;" x="238.713529412" xlink:href="#m741efc42ff" y="18.81"/>
      </g>
     </g>
     <g id="text_4">
      <!-- 2600000 -->
      <defs>
       <path d="
M33.0156 40.375
Q26.375 40.375 22.4844 35.8281
Q18.6094 31.2969 18.6094 23.3906
Q18.6094 15.5312 22.4844 10.9531
Q26.375 6.39062 33.0156 6.39062
Q39.6562 6.39062 43.5312 10.9531
Q47.4062 15.5312 47.4062 23.3906
Q47.4062 31.2969 43.5312 35.8281
Q39.6562 40.375 33.0156 40.375
M52.5938 71.2969
L52.5938 62.3125
Q48.875 64.0625 45.0938 64.9844
Q41.3125 65.9219 37.5938 65.9219
Q27.8281 65.9219 22.6719 59.3281
Q17.5312 52.7344 16.7969 39.4062
Q19.6719 43.6562 24.0156 45.9219
Q28.375 48.1875 33.5938 48.1875
Q44.5781 48.1875 50.9531 41.5156
Q57.3281 34.8594 57.3281 23.3906
Q57.3281 12.1562 50.6875 5.35938
Q44.0469 -1.42188 33.0156 -1.42188
Q20.3594 -1.42188 13.6719 8.26562
Q6.98438 17.9688 6.98438 36.375
Q6.98438 53.6562 15.1875 63.9375
Q23.3906 74.2188 37.2031 74.2188
Q40.9219 74.2188 44.7031 73.4844
Q48.4844 72.75 52.5938 71.2969" id="BitstreamVeraSans-Roman-36"/>
      </defs>
      <g transform="translate(212.829154412 203.863125)scale(0.12 -0.12)">
       <use xlink:href="#BitstreamVeraSans-Roman-32"/>
       <use x="63.623046875" xlink:href="#BitstreamVeraSans-Roman-36"/>
       <use x="127.24609375" xlink:href="#BitstreamVeraSans-Roman-30"/>
       <use x="190.869140625" xlink:href="#BitstreamVeraSans-Roman-30"/>
       <use x="254.4921875" xlink:href="#BitstreamVeraSans-Roman-30"/>
       <use x="318.115234375" xlink:href="#BitstreamVeraSans-Roman-30"/>
       <use x="381.73828125" xlink:href="#BitstreamVeraSans-Roman-30"/>
      </g>
     </g>
    </g>
    <g id="xtick_5">
     <g id="line2d_10">
      <g>
       <use style="stroke:#000000;stroke-width:0.5;" x="293.891323529" xlink:href="#m93b0483c22" y="190.745"/>
      </g>
     </g>
     <g id="line2d_11">
      <g>
       <use style="stroke:#000000;stroke-width:0.5;" x="293.891323529" xlink:href="#m741efc42ff" y="18.81"/>
      </g>
     </g>
     <g id="text_5">
      <!-- 2700000 -->
      <defs>
       <path d="
M8.20312 72.9062
L55.0781 72.9062
L55.0781 68.7031
L28.6094 0
L18.3125 0
L43.2188 64.5938
L8.20312 64.5938
z
" id="BitstreamVeraSans-Roman-37"/>
      </defs>
      <g transform="translate(268.006948529 203.863125)scale(0.12 -0.12)">
       <use xlink:href="#BitstreamVeraSans-Roman-32"/>
       <use x="63.623046875" xlink:href="#BitstreamVeraSans-Roman-37"/>
       <use x="127.24609375" xlink:href="#BitstreamVeraSans-Roman-30"/>
       <use x="190.869140625" xlink:href="#BitstreamVeraSans-Roman-30"/>
       <use x="254.4921875" xlink:href="#BitstreamVeraSans-Roman-30"/>
       <use x="318.115234375" xlink:href="#BitstreamVeraSans-Roman-30"/>
       <use x="381.73828125" xlink:href="#BitstreamVeraSans-Roman-30"/>
      </g>
     </g>
    </g>
    <g id="xtick_6">
     <g id="line2d_12">
      <g>
       <use style="stroke:#000000;stroke-width:0.5;" x="349.069117647" xlink:href="#m93b0483c22" y="190.745"/>
      </g>
     </g>
     <g id="line2d_13">
      <g>
       <use style="stroke:#000000;stroke-width:0.5;" x="349.069117647" xlink:href="#m741efc42ff" y="18.81"/>
      </g>
     </g>
     <g id="text_6">
      <!-- 2800000 -->
      <defs>
       <path d="
M31.7812 34.625
Q24.75 34.625 20.7188 30.8594
Q16.7031 27.0938 16.7031 20.5156
Q16.7031 13.9219 20.7188 10.1562
Q24.75 6.39062 31.7812 6.39062
Q38.8125 6.39062 42.8594 10.1719
Q46.9219 13.9688 46.9219 20.5156
Q46.9219 27.0938 42.8906 30.8594
Q38.875 34.625 31.7812 34.625
M21.9219 38.8125
Q15.5781 40.375 12.0312 44.7188
Q8.5 49.0781 8.5 55.3281
Q8.5 64.0625 14.7188 69.1406
Q20.9531 74.2188 31.7812 74.2188
Q42.6719 74.2188 48.875 69.1406
Q55.0781 64.0625 55.0781 55.3281
Q55.0781 49.0781 51.5312 44.7188
Q48 40.375 41.7031 38.8125
Q48.8281 37.1562 52.7969 32.3125
Q56.7812 27.4844 56.7812 20.5156
Q56.7812 9.90625 50.3125 4.23438
Q43.8438 -1.42188 31.7812 -1.42188
Q19.7344 -1.42188 13.25 4.23438
Q6.78125 9.90625 6.78125 20.5156
Q6.78125 27.4844 10.7812 32.3125
Q14.7969 37.1562 21.9219 38.8125
M18.3125 54.3906
Q18.3125 48.7344 21.8438 45.5625
Q25.3906 42.3906 31.7812 42.3906
Q38.1406 42.3906 41.7188 45.5625
Q45.3125 48.7344 45.3125 54.3906
Q45.3125 60.0625 41.7188 63.2344
Q38.1406 66.4062 31.7812 66.4062
Q25.3906 66.4062 21.8438 63.2344
Q18.3125 60.0625 18.3125 54.3906" id="BitstreamVeraSans-Roman-38"/>
      </defs>
      <g transform="translate(323.184742647 203.863125)scale(0.12 -0.12)">
       <use xlink:href="#BitstreamVeraSans-Roman-32"/>
       <use x="63.623046875" xlink:href="#BitstreamVeraSans-Roman-38"/>
       <use x="127.24609375" xlink:href="#BitstreamVeraSans-Roman-30"/>
       <use x="190.869140625" xlink:href="#BitstreamVeraSans-Roman-30"/>
       <use x="254.4921875" xlink:href="#BitstreamVeraSans-Roman-30"/>
       <use x="318.115234375" xlink:href="#BitstreamVeraSans-Roman-30"/>
       <use x="381.73828125" xlink:href="#BitstreamVeraSans-Roman-30"/>
      </g>
     </g>
    </g>
    <g id="xtick_7">
     <g id="line2d_14">
      <g>
       <use style="stroke:#000000;stroke-width:0.5;" x="404.246911765" xlink:href="#m93b0483c22" y="190.745"/>
      </g>
     </g>
     <g id="line2d_15">
      <g>
       <use style="stroke:#000000;stroke-width:0.5;" x="404.246911765" xlink:href="#m741efc42ff" y="18.81"/>
      </g>
     </g>
     <g id="text_7">
      <!-- 2900000 -->
      <defs>
       <path d="
M10.9844 1.51562
L10.9844 10.5
Q14.7031 8.73438 18.5 7.8125
Q22.3125 6.89062 25.9844 6.89062
Q35.75 6.89062 40.8906 13.4531
Q46.0469 20.0156 46.7812 33.4062
Q43.9531 29.2031 39.5938 26.9531
Q35.25 24.7031 29.9844 24.7031
Q19.0469 24.7031 12.6719 31.3125
Q6.29688 37.9375 6.29688 49.4219
Q6.29688 60.6406 12.9375 67.4219
Q19.5781 74.2188 30.6094 74.2188
Q43.2656 74.2188 49.9219 64.5156
Q56.5938 54.8281 56.5938 36.375
Q56.5938 19.1406 48.4062 8.85938
Q40.2344 -1.42188 26.4219 -1.42188
Q22.7031 -1.42188 18.8906 -0.6875
Q15.0938 0.046875 10.9844 1.51562
M30.6094 32.4219
Q37.25 32.4219 41.125 36.9531
Q45.0156 41.5 45.0156 49.4219
Q45.0156 57.2812 41.125 61.8438
Q37.25 66.4062 30.6094 66.4062
Q23.9688 66.4062 20.0938 61.8438
Q16.2188 57.2812 16.2188 49.4219
Q16.2188 41.5 20.0938 36.9531
Q23.9688 32.4219 30.6094 32.4219" id="BitstreamVeraSans-Roman-39"/>
      </defs>
      <g transform="translate(378.362536765 203.863125)scale(0.12 -0.12)">
       <use xlink:href="#BitstreamVeraSans-Roman-32"/>
       <use x="63.623046875" xlink:href="#BitstreamVeraSans-Roman-39"/>
       <use x="127.24609375" xlink:href="#BitstreamVeraSans-Roman-30"/>
       <use x="190.869140625" xlink:href="#BitstreamVeraSans-Roman-30"/>
       <use x="254.4921875" xlink:href="#BitstreamVeraSans-Roman-30"/>
       <use x="318.115234375" xlink:href="#BitstreamVeraSans-Roman-30"/>
       <use x="381.73828125" xlink:href="#BitstreamVeraSans-Roman-30"/>
      </g>
     </g>
    </g>
    <g id="xtick_8">
     <g id="line2d_16">
      <g>
       <use style="stroke:#000000;stroke-width:0.5;" x="459.424705882" xlink:href="#m93b0483c22" y="190.745"/>
      </g>
     </g>
     <g id="line2d_17">
      <g>
       <use style="stroke:#000000;stroke-width:0.5;" x="459.424705882" xlink:href="#m741efc42ff" y="18.81"/>
      </g>
     </g>
     <g id="text_8">
      <!-- 3000000 -->
      <g transform="translate(433.558143382 203.863125)scale(0.12 -0.12)">
       <use xlink:href="#BitstreamVeraSans-Roman-33"/>
       <use x="63.623046875" xlink:href="#BitstreamVeraSans-Roman-30"/>
       <use x="127.24609375" xlink:href="#BitstreamVeraSans-Roman-30"/>
       <use x="190.869140625" xlink:href="#BitstreamVeraSans-Roman-30"/>
       <use x="254.4921875" xlink:href="#BitstreamVeraSans-Roman-30"/>
       <use x="318.115234375" xlink:href="#BitstreamVeraSans-Roman-30"/>
       <use x="381.73828125" xlink:href="#BitstreamVeraSans-Roman-30"/>
      </g>
     </g>
    </g>
    <g id="xtick_9">
     <g id="line2d_18">
      <g>
       <use style="stroke:#000000;stroke-width:0.5;" x="514.6025" xlink:href="#m93b0483c22" y="190.745"/>
      </g>
     </g>
     <g id="line2d_19">
      <g>
       <use style="stroke:#000000;stroke-width:0.5;" x="514.6025" xlink:href="#m741efc42ff" y="18.81"/>
      </g>
     </g>
     <g id="text_9">
      <!-- 3100000 -->
      <defs>
       <path d="
M12.4062 8.29688
L28.5156 8.29688
L28.5156 63.9219
L10.9844 60.4062
L10.9844 69.3906
L28.4219 72.9062
L38.2812 72.9062
L38.2812 8.29688
L54.3906 8.29688
L54.3906 0
L12.4062 0
z
" id="BitstreamVeraSans-Roman-31"/>
      </defs>
      <g transform="translate(488.7359375 203.863125)scale(0.12 -0.12)">
       <use xlink:href="#BitstreamVeraSans-Roman-33"/>
       <use x="63.623046875" xlink:href="#BitstreamVeraSans-Roman-31"/>
       <use x="127.24609375" xlink:href="#BitstreamVeraSans-Roman-30"/>
       <use x="190.869140625" xlink:href="#BitstreamVeraSans-Roman-30"/>
       <use x="254.4921875" xlink:href="#BitstreamVeraSans-Roman-30"/>
       <use x="318.115234375" xlink:href="#BitstreamVeraSans-Roman-30"/>
       <use x="381.73828125" xlink:href="#BitstreamVeraSans-Roman-30"/>
      </g>
     </g>
    </g>
   </g>
   <g id="matplotlib.axis_2">
    <g id="ytick_1">
     <g id="line2d_20">
      <defs>
       <path d="
M0 0
L4 0" id="m728421d6d4" style="stroke:#000000;stroke-width:0.5;"/>
      </defs>
      <g>
       <use style="stroke:#000000;stroke-width:0.5;" x="45.59125" xlink:href="#m728421d6d4" y="190.745"/>
      </g>
     </g>
     <g id="text_10">
      <!-- 0 -->
      <g transform="translate(35.544375 194.05625)scale(0.12 -0.12)">
       <use xlink:href="#BitstreamVeraSans-Roman-30"/>
      </g>
     </g>
    </g>
    <g id="ytick_2">
     <g id="line2d_21">
      <g>
       <use style="stroke:#000000;stroke-width:0.5;" x="45.59125" xlink:href="#m728421d6d4" y="162.089166667"/>
      </g>
     </g>
     <g id="text_11">
      <!-- 200 -->
      <g transform="translate(20.3625 165.400416667)scale(0.12 -0.12)">
       <use xlink:href="#BitstreamVeraSans-Roman-32"/>
       <use x="63.623046875" xlink:href="#BitstreamVeraSans-Roman-30"/>
       <use x="127.24609375" xlink:href="#BitstreamVeraSans-Roman-30"/>
      </g>
     </g>
    </g>
    <g id="ytick_3">
     <g id="line2d_22">
      <g>
       <use style="stroke:#000000;stroke-width:0.5;" x="45.59125" xlink:href="#m728421d6d4" y="133.433333333"/>
      </g>
     </g>
     <g id="text_12">
      <!-- 400 -->
      <g transform="translate(20.07 136.744583333)scale(0.12 -0.12)">
       <use xlink:href="#BitstreamVeraSans-Roman-34"/>
       <use x="63.623046875" xlink:href="#BitstreamVeraSans-Roman-30"/>
       <use x="127.24609375" xlink:href="#BitstreamVeraSans-Roman-30"/>
      </g>
     </g>
    </g>
    <g id="ytick_4">
     <g id="line2d_23">
      <g>
       <use style="stroke:#000000;stroke-width:0.5;" x="45.59125" xlink:href="#m728421d6d4" y="104.7775"/>
      </g>
     </g>
     <g id="text_13">
      <!-- 600 -->
      <g transform="translate(20.32125 108.08875)scale(0.12 -0.12)">
       <use xlink:href="#BitstreamVeraSans-Roman-36"/>
       <use x="63.623046875" xlink:href="#BitstreamVeraSans-Roman-30"/>
       <use x="127.24609375" xlink:href="#BitstreamVeraSans-Roman-30"/>
      </g>
     </g>
    </g>
    <g id="ytick_5">
     <g id="line2d_24">
      <g>
       <use style="stroke:#000000;stroke-width:0.5;" x="45.59125" xlink:href="#m728421d6d4" y="76.1216666667"/>
      </g>
     </g>
     <g id="text_14">
      <!-- 800 -->
      <g transform="translate(20.296875 79.4329166667)scale(0.12 -0.12)">
       <use xlink:href="#BitstreamVeraSans-Roman-38"/>
       <use x="63.623046875" xlink:href="#BitstreamVeraSans-Roman-30"/>
       <use x="127.24609375" xlink:href="#BitstreamVeraSans-Roman-30"/>
      </g>
     </g>
    </g>
    <g id="ytick_6">
     <g id="line2d_25">
      <g>
       <use style="stroke:#000000;stroke-width:0.5;" x="45.59125" xlink:href="#m728421d6d4" y="47.4658333333"/>
      </g>
     </g>
     <g id="text_15">
      <!-- 1000 -->
      <g transform="translate(13.16625 50.7770833333)scale(0.12 -0.12)">
       <use xlink:href="#BitstreamVeraSans-Roman-31"/>
       <use x="63.623046875" xlink:href="#BitstreamVeraSans-Roman-30"/>
       <use x="127.24609375" xlink:href="#BitstreamVeraSans-Roman-30"/>
       <use x="190.869140625" xlink:href="#BitstreamVeraSans-Roman-30"/>
      </g>
     </g>
    </g>
    <g id="ytick_7">
     <g id="line2d_26">
      <g>
       <use style="stroke:#000000;stroke-width:0.5;" x="45.59125" xlink:href="#m728421d6d4" y="18.81"/>
      </g>
     </g>
     <g id="text_16">
      <!-- 1200 -->
      <g transform="translate(13.16625 22.12125)scale(0.12 -0.12)">
       <use xlink:href="#BitstreamVeraSans-Roman-31"/>
       <use x="63.623046875" xlink:href="#BitstreamVeraSans-Roman-32"/>
       <use x="127.24609375" xlink:href="#BitstreamVeraSans-Roman-30"/>
       <use x="190.869140625" xlink:href="#BitstreamVeraSans-Roman-30"/>
      </g>
     </g>
    </g>
   </g>
   <g id="legend_1">
    <g id="patch_7">
     <path d="
M52.7913 51.4665
L201.104 51.4665
L201.104 26.01
L52.7913 26.01
z
" style="fill:#ffffff;stroke:#000000;stroke-linejoin:miter;"/>
    </g>
    <g id="line2d_27">
     <path d="
M62.8713 37.6717
L83.0312 37.6717" style="fill:none;stroke:#0000ff;stroke-linecap:square;"/>
    </g>
    <g id="line2d_28"/>
    <g id="text_17">
     <!-- wea.wbus.dni -->
     <defs>
      <path d="
M54.8906 33.0156
L54.8906 0
L45.9062 0
L45.9062 32.7188
Q45.9062 40.4844 42.875 44.3281
Q39.8438 48.1875 33.7969 48.1875
Q26.5156 48.1875 22.3125 43.5469
Q18.1094 38.9219 18.1094 30.9062
L18.1094 0
L9.07812 0
L9.07812 54.6875
L18.1094 54.6875
L18.1094 46.1875
Q21.3438 51.125 25.7031 53.5625
Q30.0781 56 35.7969 56
Q45.2188 56 50.0469 50.1719
Q54.8906 44.3438 54.8906 33.0156" id="BitstreamVeraSans-Roman-6e"/>
      <path d="
M9.42188 54.6875
L18.4062 54.6875
L18.4062 0
L9.42188 0
z

M9.42188 75.9844
L18.4062 75.9844
L18.4062 64.5938
L9.42188 64.5938
z
" id="BitstreamVeraSans-Roman-69"/>
      <path d="
M10.6875 12.4062
L21 12.4062
L21 0
L10.6875 0
z
" id="BitstreamVeraSans-Roman-2e"/>
      <path d="
M45.4062 46.3906
L45.4062 75.9844
L54.3906 75.9844
L54.3906 0
L45.4062 0
L45.4062 8.20312
Q42.5781 3.32812 38.25 0.953125
Q33.9375 -1.42188 27.875 -1.42188
Q17.9688 -1.42188 11.7344 6.48438
Q5.51562 14.4062 5.51562 27.2969
Q5.51562 40.1875 11.7344 48.0938
Q17.9688 56 27.875 56
Q33.9375 56 38.25 53.625
Q42.5781 51.2656 45.4062 46.3906
M14.7969 27.2969
Q14.7969 17.3906 18.875 11.75
Q22.9531 6.10938 30.0781 6.10938
Q37.2031 6.10938 41.2969 11.75
Q45.4062 17.3906 45.4062 27.2969
Q45.4062 37.2031 41.2969 42.8438
Q37.2031 48.4844 30.0781 48.4844
Q22.9531 48.4844 18.875 42.8438
Q14.7969 37.2031 14.7969 27.2969" id="BitstreamVeraSans-Roman-64"/>
      <path d="
M56.2031 29.5938
L56.2031 25.2031
L14.8906 25.2031
Q15.4844 15.9219 20.4844 11.0625
Q25.4844 6.20312 34.4219 6.20312
Q39.5938 6.20312 44.4531 7.46875
Q49.3125 8.73438 54.1094 11.2812
L54.1094 2.78125
Q49.2656 0.734375 44.1875 -0.34375
Q39.1094 -1.42188 33.8906 -1.42188
Q20.7969 -1.42188 13.1562 6.1875
Q5.51562 13.8125 5.51562 26.8125
Q5.51562 40.2344 12.7656 48.1094
Q20.0156 56 32.3281 56
Q43.3594 56 49.7812 48.8906
Q56.2031 41.7969 56.2031 29.5938
M47.2188 32.2344
Q47.125 39.5938 43.0938 43.9844
Q39.0625 48.3906 32.4219 48.3906
Q24.9062 48.3906 20.3906 44.1406
Q15.875 39.8906 15.1875 32.1719
z
" id="BitstreamVeraSans-Roman-65"/>
      <path d="
M4.20312 54.6875
L13.1875 54.6875
L24.4219 12.0156
L35.5938 54.6875
L46.1875 54.6875
L57.4219 12.0156
L68.6094 54.6875
L77.5938 54.6875
L63.2812 0
L52.6875 0
L40.9219 44.8281
L29.1094 0
L18.5 0
z
" id="BitstreamVeraSans-Roman-77"/>
      <path d="
M8.5 21.5781
L8.5 54.6875
L17.4844 54.6875
L17.4844 21.9219
Q17.4844 14.1562 20.5 10.2656
Q23.5312 6.39062 29.5938 6.39062
Q36.8594 6.39062 41.0781 11.0312
Q45.3125 15.6719 45.3125 23.6875
L45.3125 54.6875
L54.2969 54.6875
L54.2969 0
L45.3125 0
L45.3125 8.40625
Q42.0469 3.42188 37.7188 1
Q33.4062 -1.42188 27.6875 -1.42188
Q18.2656 -1.42188 13.375 4.4375
Q8.5 10.2969 8.5 21.5781" id="BitstreamVeraSans-Roman-75"/>
      <path d="
M34.2812 27.4844
Q23.3906 27.4844 19.1875 25
Q14.9844 22.5156 14.9844 16.5
Q14.9844 11.7188 18.1406 8.90625
Q21.2969 6.10938 26.7031 6.10938
Q34.1875 6.10938 38.7031 11.4062
Q43.2188 16.7031 43.2188 25.4844
L43.2188 27.4844
z

M52.2031 31.2031
L52.2031 0
L43.2188 0
L43.2188 8.29688
Q40.1406 3.32812 35.5469 0.953125
Q30.9531 -1.42188 24.3125 -1.42188
Q15.9219 -1.42188 10.9531 3.29688
Q6 8.01562 6 15.9219
Q6 25.1406 12.1719 29.8281
Q18.3594 34.5156 30.6094 34.5156
L43.2188 34.5156
L43.2188 35.4062
Q43.2188 41.6094 39.1406 45
Q35.0625 48.3906 27.6875 48.3906
Q23 48.3906 18.5469 47.2656
Q14.1094 46.1406 10.0156 43.8906
L10.0156 52.2031
Q14.9375 54.1094 19.5781 55.0469
Q24.2188 56 28.6094 56
Q40.4844 56 46.3438 49.8438
Q52.2031 43.7031 52.2031 31.2031" id="BitstreamVeraSans-Roman-61"/>
      <path d="
M44.2812 53.0781
L44.2812 44.5781
Q40.4844 46.5312 36.375 47.5
Q32.2812 48.4844 27.875 48.4844
Q21.1875 48.4844 17.8438 46.4375
Q14.5 44.3906 14.5 40.2812
Q14.5 37.1562 16.8906 35.375
Q19.2812 33.5938 26.5156 31.9844
L29.5938 31.2969
Q39.1562 29.25 43.1875 25.5156
Q47.2188 21.7812 47.2188 15.0938
Q47.2188 7.46875 41.1875 3.01562
Q35.1562 -1.42188 24.6094 -1.42188
Q20.2188 -1.42188 15.4531 -0.5625
Q10.6875 0.296875 5.42188 2
L5.42188 11.2812
Q10.4062 8.6875 15.2344 7.39062
Q20.0625 6.10938 24.8125 6.10938
Q31.1562 6.10938 34.5625 8.28125
Q37.9844 10.4531 37.9844 14.4062
Q37.9844 18.0625 35.5156 20.0156
Q33.0625 21.9688 24.7031 23.7812
L21.5781 24.5156
Q13.2344 26.2656 9.51562 29.9062
Q5.8125 33.5469 5.8125 39.8906
Q5.8125 47.6094 11.2812 51.7969
Q16.75 56 26.8125 56
Q31.7812 56 36.1719 55.2656
Q40.5781 54.5469 44.2812 53.0781" id="BitstreamVeraSans-Roman-73"/>
      <path d="
M48.6875 27.2969
Q48.6875 37.2031 44.6094 42.8438
Q40.5312 48.4844 33.4062 48.4844
Q26.2656 48.4844 22.1875 42.8438
Q18.1094 37.2031 18.1094 27.2969
Q18.1094 17.3906 22.1875 11.75
Q26.2656 6.10938 33.4062 6.10938
Q40.5312 6.10938 44.6094 11.75
Q48.6875 17.3906 48.6875 27.2969
M18.1094 46.3906
Q20.9531 51.2656 25.2656 53.625
Q29.5938 56 35.5938 56
Q45.5625 56 51.7812 48.0938
Q58.0156 40.1875 58.0156 27.2969
Q58.0156 14.4062 51.7812 6.48438
Q45.5625 -1.42188 35.5938 -1.42188
Q29.5938 -1.42188 25.2656 0.953125
Q20.9531 3.32812 18.1094 8.20312
L18.1094 0
L9.07812 0
L9.07812 75.9844
L18.1094 75.9844
z
" id="BitstreamVeraSans-Roman-62"/>
     </defs>
     <g transform="translate(98.87125 42.71175)scale(0.144 -0.144)">
      <use xlink:href="#BitstreamVeraSans-Roman-77"/>
      <use x="81.787109375" xlink:href="#BitstreamVeraSans-Roman-65"/>
      <use x="143.310546875" xlink:href="#BitstreamVeraSans-Roman-61"/>
      <use x="204.58984375" xlink:href="#BitstreamVeraSans-Roman-2e"/>
      <use x="236.376953125" xlink:href="#BitstreamVeraSans-Roman-77"/>
      <use x="318.1640625" xlink:href="#BitstreamVeraSans-Roman-62"/>
      <use x="381.640625" xlink:href="#BitstreamVeraSans-Roman-75"/>
      <use x="445.01953125" xlink:href="#BitstreamVeraSans-Roman-73"/>
      <use x="497.119140625" xlink:href="#BitstreamVeraSans-Roman-2e"/>
      <use x="528.90625" xlink:href="#BitstreamVeraSans-Roman-64"/>
      <use x="592.3828125" xlink:href="#BitstreamVeraSans-Roman-6e"/>
      <use x="655.76171875" xlink:href="#BitstreamVeraSans-Roman-69"/>
     </g>
    </g>
   </g>
  </g>
  <g id="axes_2">
   <g id="line2d_29">
    <path clip-path="url(#p8e8d647484)" d="
M45.4257 190.745
L56.029 190.745
L56.029 29.5559
L87.8946 29.5559
L87.8946 190.745
L87.9678 190.745
L103.868 190.745
L103.868 29.5559
L106.948 29.5559
L106.948 190.745
L107.004 190.745
L109.222 190.745
L109.222 29.5559
L109.322 29.5559
L122.609 29.5559
L122.609 190.745
L123.808 190.745
L123.808 29.5559
L123.889 29.5559
L128.722 29.5559
L128.722 190.745
L151.127 190.745
L151.127 29.5559
L151.202 29.5559
L185.744 29.5559
L185.744 190.745
L185.798 190.745
L198.786 190.745
L198.786 29.5559
L198.875 29.5559
L233.833 29.5559
L233.833 190.745
L247.139 190.745
L247.139 29.5559
L247.211 29.5559
L247.499 29.5559
L247.499 190.745
L247.542 190.745
L248.328 190.745
L248.328 29.5559
L248.37 29.5559
L248.813 29.5559
L248.813 190.745
L248.866 190.745
L249.593 190.745
L249.593 29.5559
L249.694 29.5559
L252.117 29.5559
L252.117 190.745
L252.177 190.745
L252.919 190.745
L252.919 29.5559
L253.005 29.5559
L261.951 29.5559
L261.951 190.745
L294.185 190.745
L294.185 29.5559
L294.222 29.5559
L322.089 29.5559
L322.089 190.745
L322.198 190.745
L342.34 190.745
L342.34 29.5559
L342.393 29.5559
L345.303 29.5559
L345.303 190.745
L345.372 190.745
L351.666 190.745
L351.666 29.5559
L358.851 29.5559
L358.851 190.745
L358.946 190.745
L485.055 190.745
L485.055 29.5559
L485.082 29.5559
L485.658 29.5559
L485.658 190.745
L485.745 190.745
L490.122 190.745
L490.122 29.5559
L490.214 29.5559
L514.713 29.5559
L514.713 29.5559" style="fill:none;stroke:#008000;stroke-linecap:square;"/>
   </g>
   <g id="patch_8">
    <path d="
M45.5912 18.81
L514.602 18.81" style="fill:none;stroke:#000000;stroke-linecap:square;stroke-linejoin:miter;"/>
   </g>
   <g id="patch_9">
    <path d="
M514.602 190.745
L514.602 18.81" style="fill:none;stroke:#000000;stroke-linecap:square;stroke-linejoin:miter;"/>
   </g>
   <g id="patch_10">
    <path d="
M45.5912 190.745
L514.602 190.745" style="fill:none;stroke:#000000;stroke-linecap:square;stroke-linejoin:miter;"/>
   </g>
   <g id="patch_11">
    <path d="
M45.5913 190.745
L45.5913 18.81" style="fill:none;stroke:#000000;stroke-linecap:square;stroke-linejoin:miter;"/>
   </g>
   <g id="matplotlib.axis_3">
    <g id="ytick_8">
     <g id="line2d_30">
      <defs>
       <path d="
M0 0
L-4 0" id="mcb0005524f" style="stroke:#000000;stroke-width:0.5;"/>
      </defs>
      <g>
       <use style="stroke:#000000;stroke-width:0.5;" x="514.6025" xlink:href="#mcb0005524f" y="190.745"/>
      </g>
     </g>
     <g id="text_18">
      <!-- 0 -->
      <g transform="translate(518.6025 194.05625)scale(0.12 -0.12)">
       <use xlink:href="#BitstreamVeraSans-Roman-30"/>
      </g>
     </g>
    </g>
    <g id="ytick_9">
     <g id="line2d_31">
      <g>
       <use style="stroke:#000000;stroke-width:0.5;" x="514.6025" xlink:href="#mcb0005524f" y="169.253125"/>
      </g>
     </g>
     <g id="text_19">
      <!-- 10000 -->
      <g transform="translate(518.6025 172.564375)scale(0.12 -0.12)">
       <use xlink:href="#BitstreamVeraSans-Roman-31"/>
       <use x="63.623046875" xlink:href="#BitstreamVeraSans-Roman-30"/>
       <use x="127.24609375" xlink:href="#BitstreamVeraSans-Roman-30"/>
       <use x="190.869140625" xlink:href="#BitstreamVeraSans-Roman-30"/>
       <use x="254.4921875" xlink:href="#BitstreamVeraSans-Roman-30"/>
      </g>
     </g>
    </g>
    <g id="ytick_10">
     <g id="line2d_32">
      <g>
       <use style="stroke:#000000;stroke-width:0.5;" x="514.6025" xlink:href="#mcb0005524f" y="147.76125"/>
      </g>
     </g>
     <g id="text_20">
      <!-- 20000 -->
      <g transform="translate(518.6025 151.0725)scale(0.12 -0.12)">
       <use xlink:href="#BitstreamVeraSans-Roman-32"/>
       <use x="63.623046875" xlink:href="#BitstreamVeraSans-Roman-30"/>
       <use x="127.24609375" xlink:href="#BitstreamVeraSans-Roman-30"/>
       <use x="190.869140625" xlink:href="#BitstreamVeraSans-Roman-30"/>
       <use x="254.4921875" xlink:href="#BitstreamVeraSans-Roman-30"/>
      </g>
     </g>
    </g>
    <g id="ytick_11">
     <g id="line2d_33">
      <g>
       <use style="stroke:#000000;stroke-width:0.5;" x="514.6025" xlink:href="#mcb0005524f" y="126.269375"/>
      </g>
     </g>
     <g id="text_21">
      <!-- 30000 -->
      <g transform="translate(518.6025 129.580625)scale(0.12 -0.12)">
       <use xlink:href="#BitstreamVeraSans-Roman-33"/>
       <use x="63.623046875" xlink:href="#BitstreamVeraSans-Roman-30"/>
       <use x="127.24609375" xlink:href="#BitstreamVeraSans-Roman-30"/>
       <use x="190.869140625" xlink:href="#BitstreamVeraSans-Roman-30"/>
       <use x="254.4921875" xlink:href="#BitstreamVeraSans-Roman-30"/>
      </g>
     </g>
    </g>
    <g id="ytick_12">
     <g id="line2d_34">
      <g>
       <use style="stroke:#000000;stroke-width:0.5;" x="514.6025" xlink:href="#mcb0005524f" y="104.7775"/>
      </g>
     </g>
     <g id="text_22">
      <!-- 40000 -->
      <g transform="translate(518.6025 108.08875)scale(0.12 -0.12)">
       <use xlink:href="#BitstreamVeraSans-Roman-34"/>
       <use x="63.623046875" xlink:href="#BitstreamVeraSans-Roman-30"/>
       <use x="127.24609375" xlink:href="#BitstreamVeraSans-Roman-30"/>
       <use x="190.869140625" xlink:href="#BitstreamVeraSans-Roman-30"/>
       <use x="254.4921875" xlink:href="#BitstreamVeraSans-Roman-30"/>
      </g>
     </g>
    </g>
    <g id="ytick_13">
     <g id="line2d_35">
      <g>
       <use style="stroke:#000000;stroke-width:0.5;" x="514.6025" xlink:href="#mcb0005524f" y="83.285625"/>
      </g>
     </g>
     <g id="text_23">
      <!-- 50000 -->
      <g transform="translate(518.6025 86.596875)scale(0.12 -0.12)">
       <use xlink:href="#BitstreamVeraSans-Roman-35"/>
       <use x="63.623046875" xlink:href="#BitstreamVeraSans-Roman-30"/>
       <use x="127.24609375" xlink:href="#BitstreamVeraSans-Roman-30"/>
       <use x="190.869140625" xlink:href="#BitstreamVeraSans-Roman-30"/>
       <use x="254.4921875" xlink:href="#BitstreamVeraSans-Roman-30"/>
      </g>
     </g>
    </g>
    <g id="ytick_14">
     <g id="line2d_36">
      <g>
       <use style="stroke:#000000;stroke-width:0.5;" x="514.6025" xlink:href="#mcb0005524f" y="61.79375"/>
      </g>
     </g>
     <g id="text_24">
      <!-- 60000 -->
      <g transform="translate(518.6025 65.105)scale(0.12 -0.12)">
       <use xlink:href="#BitstreamVeraSans-Roman-36"/>
       <use x="63.623046875" xlink:href="#BitstreamVeraSans-Roman-30"/>
       <use x="127.24609375" xlink:href="#BitstreamVeraSans-Roman-30"/>
       <use x="190.869140625" xlink:href="#BitstreamVeraSans-Roman-30"/>
       <use x="254.4921875" xlink:href="#BitstreamVeraSans-Roman-30"/>
      </g>
     </g>
    </g>
    <g id="ytick_15">
     <g id="line2d_37">
      <g>
       <use style="stroke:#000000;stroke-width:0.5;" x="514.6025" xlink:href="#mcb0005524f" y="40.301875"/>
      </g>
     </g>
     <g id="text_25">
      <!-- 70000 -->
      <g transform="translate(518.6025 43.613125)scale(0.12 -0.12)">
       <use xlink:href="#BitstreamVeraSans-Roman-37"/>
       <use x="63.623046875" xlink:href="#BitstreamVeraSans-Roman-30"/>
       <use x="127.24609375" xlink:href="#BitstreamVeraSans-Roman-30"/>
       <use x="190.869140625" xlink:href="#BitstreamVeraSans-Roman-30"/>
       <use x="254.4921875" xlink:href="#BitstreamVeraSans-Roman-30"/>
      </g>
     </g>
    </g>
    <g id="ytick_16">
     <g id="line2d_38">
      <g>
       <use style="stroke:#000000;stroke-width:0.5;" x="514.6025" xlink:href="#mcb0005524f" y="18.81"/>
      </g>
     </g>
     <g id="text_26">
      <!-- 80000 -->
      <g transform="translate(518.6025 22.12125)scale(0.12 -0.12)">
       <use xlink:href="#BitstreamVeraSans-Roman-38"/>
       <use x="63.623046875" xlink:href="#BitstreamVeraSans-Roman-30"/>
       <use x="127.24609375" xlink:href="#BitstreamVeraSans-Roman-30"/>
       <use x="190.869140625" xlink:href="#BitstreamVeraSans-Roman-30"/>
       <use x="254.4921875" xlink:href="#BitstreamVeraSans-Roman-30"/>
      </g>
     </g>
    </g>
   </g>
   <g id="legend_2">
    <g id="patch_12">
     <path d="
M412.347 51.867
L507.402 51.867
L507.402 26.01
L412.347 26.01
z
" style="fill:#ffffff;stroke:#000000;stroke-linejoin:miter;"/>
    </g>
    <g id="line2d_39">
     <path d="
M422.427 37.6717
L442.587 37.6717" style="fill:none;stroke:#008000;stroke-linecap:square;"/>
    </g>
    <g id="line2d_40"/>
    <g id="text_27">
     <!-- P_elec -->
     <defs>
      <path d="
M19.6719 64.7969
L19.6719 37.4062
L32.0781 37.4062
Q38.9688 37.4062 42.7188 40.9688
Q46.4844 44.5312 46.4844 51.125
Q46.4844 57.6719 42.7188 61.2344
Q38.9688 64.7969 32.0781 64.7969
z

M9.8125 72.9062
L32.0781 72.9062
Q44.3438 72.9062 50.6094 67.3594
Q56.8906 61.8125 56.8906 51.125
Q56.8906 40.3281 50.6094 34.8125
Q44.3438 29.2969 32.0781 29.2969
L19.6719 29.2969
L19.6719 0
L9.8125 0
z
" id="BitstreamVeraSans-Roman-50"/>
      <path d="
M48.7812 52.5938
L48.7812 44.1875
Q44.9688 46.2969 41.1406 47.3438
Q37.3125 48.3906 33.4062 48.3906
Q24.6562 48.3906 19.8125 42.8438
Q14.9844 37.3125 14.9844 27.2969
Q14.9844 17.2812 19.8125 11.7344
Q24.6562 6.20312 33.4062 6.20312
Q37.3125 6.20312 41.1406 7.25
Q44.9688 8.29688 48.7812 10.4062
L48.7812 2.09375
Q45.0156 0.34375 40.9844 -0.53125
Q36.9688 -1.42188 32.4219 -1.42188
Q20.0625 -1.42188 12.7812 6.34375
Q5.51562 14.1094 5.51562 27.2969
Q5.51562 40.6719 12.8594 48.3281
Q20.2188 56 33.0156 56
Q37.1562 56 41.1094 55.1406
Q45.0625 54.2969 48.7812 52.5938" id="BitstreamVeraSans-Roman-63"/>
      <path d="
M9.42188 75.9844
L18.4062 75.9844
L18.4062 0
L9.42188 0
z
" id="BitstreamVeraSans-Roman-6c"/>
      <path d="
M50.9844 -16.6094
L50.9844 -23.5781
L-0.984375 -23.5781
L-0.984375 -16.6094
z
" id="BitstreamVeraSans-Roman-5f"/>
     </defs>
     <g transform="translate(458.42675 42.71175)scale(0.144 -0.144)">
      <use xlink:href="#BitstreamVeraSans-Roman-50"/>
      <use x="60.302734375" xlink:href="#BitstreamVeraSans-Roman-5f"/>
      <use x="110.302734375" xlink:href="#BitstreamVeraSans-Roman-65"/>
      <use x="171.826171875" xlink:href="#BitstreamVeraSans-Roman-6c"/>
      <use x="199.609375" xlink:href="#BitstreamVeraSans-Roman-65"/>
      <use x="261.1328125" xlink:href="#BitstreamVeraSans-Roman-63"/>
     </g>
    </g>
   </g>
  </g>
  <g id="axes_3">
   <g id="patch_13">
    <path d="
M45.5913 403.34
L514.602 403.34
L514.602 231.405
L45.5913 231.405
z
" style="fill:#ffffff;"/>
   </g>
   <g id="line2d_41">
    <path clip-path="url(#p8b16ced27d)" d="
M45.4257 395.05
L55.3041 395.05
L55.3041 395.05
L55.5324 391.734
L55.5324 391.734
L55.8543 390.991
L56.1854 389.559
L56.682 386.19
L57.3441 379.813
L58.6684 364.167
L60.1582 343.832
L61.648 320.08
L63.4689 291.342
L63.4689 291.342
L65.7863 259.552
L66.2829 255.246
L66.614 254.345
L66.7795 254.505
L67.1106 255.843
L68.6004 264.482
L69.2625 266.665
L69.9247 267.956
L70.4213 268.503
L70.4213 268.503
L70.9179 268.713
L71.2489 268.647
L71.58 268.38
L71.9111 267.719
L72.2421 266.401
L72.7387 262.909
L73.4009 255.673
L73.4009 255.673
L74.1526 245.835
L74.1526 245.835
L75.0531 258.362
L75.0562 258.328
L75.7183 252.28
L76.0494 250.434
L76.3805 249.605
L76.3805 249.605
L76.546 249.587
L76.7115 249.829
L77.0426 251.031
L77.5392 254.223
L78.2013 260.209
L87.9678 395.05
L103.116 395.05
L103.116 395.05
L103.371 391.734
L103.371 391.734
L103.693 391.626
L104.025 391.129
L104.521 389.853
L105.68 386.083
L105.845 386.036
L106.011 386.314
L106.342 387.95
L106.673 391.225
L107.004 395.05
L108.545 395.05
L108.545 395.05
L108.825 391.139
L109.487 385.669
L110.646 373.879
L112.301 357.058
L113.625 346.03
L114.95 336.76
L115.612 333.05
L116.108 331.452
L116.108 331.452
L116.44 331.18
L116.605 331.291
L116.936 331.974
L117.433 333.931
L118.095 337.966
L118.095 337.966
L118.923 344.977
L119.419 350.679
L122.609 395.05
L122.609 395.05
L122.988 395.05
L122.988 395.05
L123.311 391.734
L123.392 391.97
L123.808 392.731
L123.808 392.731
L124.054 392.827
L124.054 392.827
L124.385 392.527
L124.716 391.751
L125.213 389.814
L126.372 384.662
L126.868 383.569
L127.199 383.429
L127.365 383.594
L127.696 384.594
L128.027 386.637
L128.027 386.637
L128.358 389.985
L128.722 395.05
L128.722 395.05
L150.439 395.05
L150.439 395.05
L150.705 391.395
L151.202 388.179
L151.864 381.939
L151.864 381.939
L152.691 371.526
L154.016 351.282
L155.836 319.197
L155.836 319.197
L159.478 253.575
L160.06 245.835
L160.06 245.835
L160.96 258.362
L160.968 258.284
L161.796 248.889
L161.796 248.889
L162.012 245.835
L162.012 245.835
L162.912 258.362
L162.954 257.602
L163.588 245.835
L163.617 246.231
L164.489 258.362
L164.489 258.362
L165.111 245.835
L165.111 245.835
L166.011 258.362
L166.011 258.362
L166.625 245.835
L166.625 245.835
L167.526 258.362
L167.526 258.362
L168.115 245.835
L168.115 245.835
L169.015 258.362
L169.015 258.362
L169.604 245.835
L169.604 245.835
L170.505 258.362
L170.505 258.362
L171.152 245.835
L171.152 245.835
L172.053 258.362
L172.059 258.254
L172.787 245.835
L172.787 245.835
L173.687 258.362
L173.714 257.994
L174.542 248.261
L174.813 245.835
L174.813 245.835
L175.866 259.156
L176.197 262.242
L185.798 395.05
L198.101 395.05
L198.101 395.05
L198.379 391.291
L198.875 387.788
L199.537 381.033
L199.537 381.033
L200.365 369.791
L201.689 348.078
L203.51 313.794
L203.51 313.794
L206.984 245.835
L206.986 245.873
L207.884 258.362
L207.884 258.362
L208.546 245.835
L208.546 245.835
L209.447 258.362
L209.469 257.973
L210.214 245.835
L210.214 245.835
L211.114 258.362
L211.125 258.197
L211.846 245.835
L211.846 245.835
L212.747 258.362
L212.78 257.74
L213.426 245.835
L213.442 246.055
L214.327 258.362
L214.327 258.362
L215.033 245.835
L215.033 245.835
L215.933 258.362
L215.933 258.362
L216.619 245.835
L216.619 245.835
L217.519 258.362
L217.519 258.362
L218.246 245.835
L218.246 245.835
L219.147 258.362
L219.147 258.362
L220.004 245.835
L220.004 245.835
L220.904 258.362
L220.904 258.362
L221.553 252.604
L222.05 249.806
L222.381 248.769
L222.381 248.769
L222.546 248.508
L222.712 248.46
L222.878 248.664
L223.209 249.924
L223.664 253.588
L223.664 253.588
L233.833 395.05
L233.833 395.05
L246.308 395.05
L246.308 395.05
L246.642 391.734
L246.714 392.014
L247.499 395.05
L247.499 395.05
L247.831 391.734
L247.873 391.897
L248.701 394.756
L248.813 395.05
L248.813 395.05
L249.097 391.734
L249.197 391.914
L249.694 392.445
L250.025 392.511
L250.853 392.324
L251.184 392.6
L251.184 392.6
L251.515 393.226
L252.117 395.05
L252.117 395.05
L252.423 391.734
L252.508 391.949
L252.839 392.411
L253.005 392.336
L253.17 392.073
L253.17 392.073
L253.501 390.889
L253.998 387.673
L256.15 371.091
L256.15 371.091
L256.646 369.036
L256.977 368.64
L257.143 368.794
L257.143 368.794
L257.474 369.823
L257.971 372.974
L259.129 381.639
L259.129 381.639
L259.46 382.572
L259.791 382.738
L260.288 382.502
L260.454 382.6
L260.619 382.885
L260.95 384.163
L261.281 386.5
L261.612 390.334
L261.951 395.05
L261.951 395.05
L293.486 395.05
L293.486 395.05
L293.726 391.612
L294.222 389.352
L294.885 385.054
L294.885 385.054
L295.712 377.785
L296.705 366.557
L297.864 350.209
L297.864 350.209
L299.851 317.707
L299.851 317.707
L304.215 245.835
L304.215 245.835
L305.116 258.362
L305.148 257.904
L306.002 245.835
L306.002 245.835
L306.903 258.362
L306.903 258.362
L307.736 245.835
L307.796 246.67
L308.637 258.362
L308.637 258.362
L309.631 245.835
L309.631 245.835
L310.532 258.362
L310.61 258.079
L310.941 257.578
L311.107 257.741
L311.438 258.807
L311.934 261.719
L312.762 268.346
L312.762 268.346
L313.59 276.815
L322.198 395.05
L341.575 395.05
L341.575 395.05
L341.843 391.734
L341.896 391.778
L342.227 391.786
L342.558 391.37
L342.558 391.37
L343.055 390.155
L344.048 387.075
L344.213 387.007
L344.379 387.238
L344.71 388.696
L345.058 391.647
L345.058 391.647
L345.372 395.05
L350.915 395.05
L350.915 395.05
L351.17 391.734
L351.17 391.734
L351.497 391.611
L351.497 391.611
L352.159 390.949
L353.483 389.105
L353.483 389.105
L354.477 387.948
L354.477 387.948
L355.304 387.323
L355.966 387.095
L356.463 387.151
L356.463 387.151
L356.96 387.47
L357.456 388.113
L357.456 388.113
L357.787 388.807
L358.118 389.979
L358.615 393.018
L358.851 395.05
L358.851 395.05
L359.111 394.295
L484.357 394.295
L484.357 394.295
L484.558 391.734
L484.586 391.76
L484.917 392.126
L485.248 392.938
L485.658 395.05
L485.658 395.05
L486.099 392.713
L486.099 392.713
L489.565 392.713
L489.565 392.713
L489.717 391.508
L490.048 389.864
L490.545 385.449
L490.545 385.449
L491.538 373.863
L491.538 373.863
L493.359 352.194
L494.187 345.036
L495.511 336.059
L495.511 336.059
L497.332 323.926
L498.325 315.546
L499.153 306.623
L499.98 294.625
L501.305 270.761
L502.609 245.835
L502.629 246.113
L503.509 258.362
L503.509 258.362
L504.181 245.835
L504.181 245.835
L505.081 258.362
L505.112 257.83
L505.826 245.835
L505.826 245.835
L506.726 258.362
L506.767 257.801
L507.595 247.981
L507.831 245.835
L507.831 245.835
L508.732 258.362
L508.754 258.312
L508.919 258.099
L509.085 258.208
L509.25 258.664
L509.581 260.633
L509.912 264.311
L514.713 331.09
L514.713 331.09" style="fill:none;stroke:#0000ff;stroke-linecap:square;"/>
   </g>
   <g id="patch_14">
    <path d="
M45.5912 231.405
L514.602 231.405" style="fill:none;stroke:#000000;stroke-linecap:square;stroke-linejoin:miter;"/>
   </g>
   <g id="patch_15">
    <path d="
M514.602 403.34
L514.602 231.405" style="fill:none;stroke:#000000;stroke-linecap:square;stroke-linejoin:miter;"/>
   </g>
   <g id="patch_16">
    <path d="
M45.5912 403.34
L514.602 403.34" style="fill:none;stroke:#000000;stroke-linecap:square;stroke-linejoin:miter;"/>
   </g>
   <g id="patch_17">
    <path d="
M45.5913 403.34
L45.5913 231.405" style="fill:none;stroke:#000000;stroke-linecap:square;stroke-linejoin:miter;"/>
   </g>
   <g id="matplotlib.axis_4">
    <g id="xtick_10">
     <g id="line2d_42">
      <g>
       <use style="stroke:#000000;stroke-width:0.5;" x="73.1801470588" xlink:href="#m93b0483c22" y="403.34"/>
      </g>
     </g>
     <g id="line2d_43">
      <g>
       <use style="stroke:#000000;stroke-width:0.5;" x="73.1801470588" xlink:href="#m741efc42ff" y="231.405"/>
      </g>
     </g>
     <g id="text_28">
      <!-- 2300000 -->
      <g transform="translate(47.2957720588 416.458125)scale(0.12 -0.12)">
       <use xlink:href="#BitstreamVeraSans-Roman-32"/>
       <use x="63.623046875" xlink:href="#BitstreamVeraSans-Roman-33"/>
       <use x="127.24609375" xlink:href="#BitstreamVeraSans-Roman-30"/>
       <use x="190.869140625" xlink:href="#BitstreamVeraSans-Roman-30"/>
       <use x="254.4921875" xlink:href="#BitstreamVeraSans-Roman-30"/>
       <use x="318.115234375" xlink:href="#BitstreamVeraSans-Roman-30"/>
       <use x="381.73828125" xlink:href="#BitstreamVeraSans-Roman-30"/>
      </g>
     </g>
    </g>
    <g id="xtick_11">
     <g id="line2d_44">
      <g>
       <use style="stroke:#000000;stroke-width:0.5;" x="128.357941176" xlink:href="#m93b0483c22" y="403.34"/>
      </g>
     </g>
     <g id="line2d_45">
      <g>
       <use style="stroke:#000000;stroke-width:0.5;" x="128.357941176" xlink:href="#m741efc42ff" y="231.405"/>
      </g>
     </g>
     <g id="text_29">
      <!-- 2400000 -->
      <g transform="translate(102.473566176 416.458125)scale(0.12 -0.12)">
       <use xlink:href="#BitstreamVeraSans-Roman-32"/>
       <use x="63.623046875" xlink:href="#BitstreamVeraSans-Roman-34"/>
       <use x="127.24609375" xlink:href="#BitstreamVeraSans-Roman-30"/>
       <use x="190.869140625" xlink:href="#BitstreamVeraSans-Roman-30"/>
       <use x="254.4921875" xlink:href="#BitstreamVeraSans-Roman-30"/>
       <use x="318.115234375" xlink:href="#BitstreamVeraSans-Roman-30"/>
       <use x="381.73828125" xlink:href="#BitstreamVeraSans-Roman-30"/>
      </g>
     </g>
    </g>
    <g id="xtick_12">
     <g id="line2d_46">
      <g>
       <use style="stroke:#000000;stroke-width:0.5;" x="183.535735294" xlink:href="#m93b0483c22" y="403.34"/>
      </g>
     </g>
     <g id="line2d_47">
      <g>
       <use style="stroke:#000000;stroke-width:0.5;" x="183.535735294" xlink:href="#m741efc42ff" y="231.405"/>
      </g>
     </g>
     <g id="text_30">
      <!-- 2500000 -->
      <g transform="translate(157.651360294 416.458125)scale(0.12 -0.12)">
       <use xlink:href="#BitstreamVeraSans-Roman-32"/>
       <use x="63.623046875" xlink:href="#BitstreamVeraSans-Roman-35"/>
       <use x="127.24609375" xlink:href="#BitstreamVeraSans-Roman-30"/>
       <use x="190.869140625" xlink:href="#BitstreamVeraSans-Roman-30"/>
       <use x="254.4921875" xlink:href="#BitstreamVeraSans-Roman-30"/>
       <use x="318.115234375" xlink:href="#BitstreamVeraSans-Roman-30"/>
       <use x="381.73828125" xlink:href="#BitstreamVeraSans-Roman-30"/>
      </g>
     </g>
    </g>
    <g id="xtick_13">
     <g id="line2d_48">
      <g>
       <use style="stroke:#000000;stroke-width:0.5;" x="238.713529412" xlink:href="#m93b0483c22" y="403.34"/>
      </g>
     </g>
     <g id="line2d_49">
      <g>
       <use style="stroke:#000000;stroke-width:0.5;" x="238.713529412" xlink:href="#m741efc42ff" y="231.405"/>
      </g>
     </g>
     <g id="text_31">
      <!-- 2600000 -->
      <g transform="translate(212.829154412 416.458125)scale(0.12 -0.12)">
       <use xlink:href="#BitstreamVeraSans-Roman-32"/>
       <use x="63.623046875" xlink:href="#BitstreamVeraSans-Roman-36"/>
       <use x="127.24609375" xlink:href="#BitstreamVeraSans-Roman-30"/>
       <use x="190.869140625" xlink:href="#BitstreamVeraSans-Roman-30"/>
       <use x="254.4921875" xlink:href="#BitstreamVeraSans-Roman-30"/>
       <use x="318.115234375" xlink:href="#BitstreamVeraSans-Roman-30"/>
       <use x="381.73828125" xlink:href="#BitstreamVeraSans-Roman-30"/>
      </g>
     </g>
    </g>
    <g id="xtick_14">
     <g id="line2d_50">
      <g>
       <use style="stroke:#000000;stroke-width:0.5;" x="293.891323529" xlink:href="#m93b0483c22" y="403.34"/>
      </g>
     </g>
     <g id="line2d_51">
      <g>
       <use style="stroke:#000000;stroke-width:0.5;" x="293.891323529" xlink:href="#m741efc42ff" y="231.405"/>
      </g>
     </g>
     <g id="text_32">
      <!-- 2700000 -->
      <g transform="translate(268.006948529 416.458125)scale(0.12 -0.12)">
       <use xlink:href="#BitstreamVeraSans-Roman-32"/>
       <use x="63.623046875" xlink:href="#BitstreamVeraSans-Roman-37"/>
       <use x="127.24609375" xlink:href="#BitstreamVeraSans-Roman-30"/>
       <use x="190.869140625" xlink:href="#BitstreamVeraSans-Roman-30"/>
       <use x="254.4921875" xlink:href="#BitstreamVeraSans-Roman-30"/>
       <use x="318.115234375" xlink:href="#BitstreamVeraSans-Roman-30"/>
       <use x="381.73828125" xlink:href="#BitstreamVeraSans-Roman-30"/>
      </g>
     </g>
    </g>
    <g id="xtick_15">
     <g id="line2d_52">
      <g>
       <use style="stroke:#000000;stroke-width:0.5;" x="349.069117647" xlink:href="#m93b0483c22" y="403.34"/>
      </g>
     </g>
     <g id="line2d_53">
      <g>
       <use style="stroke:#000000;stroke-width:0.5;" x="349.069117647" xlink:href="#m741efc42ff" y="231.405"/>
      </g>
     </g>
     <g id="text_33">
      <!-- 2800000 -->
      <g transform="translate(323.184742647 416.458125)scale(0.12 -0.12)">
       <use xlink:href="#BitstreamVeraSans-Roman-32"/>
       <use x="63.623046875" xlink:href="#BitstreamVeraSans-Roman-38"/>
       <use x="127.24609375" xlink:href="#BitstreamVeraSans-Roman-30"/>
       <use x="190.869140625" xlink:href="#BitstreamVeraSans-Roman-30"/>
       <use x="254.4921875" xlink:href="#BitstreamVeraSans-Roman-30"/>
       <use x="318.115234375" xlink:href="#BitstreamVeraSans-Roman-30"/>
       <use x="381.73828125" xlink:href="#BitstreamVeraSans-Roman-30"/>
      </g>
     </g>
    </g>
    <g id="xtick_16">
     <g id="line2d_54">
      <g>
       <use style="stroke:#000000;stroke-width:0.5;" x="404.246911765" xlink:href="#m93b0483c22" y="403.34"/>
      </g>
     </g>
     <g id="line2d_55">
      <g>
       <use style="stroke:#000000;stroke-width:0.5;" x="404.246911765" xlink:href="#m741efc42ff" y="231.405"/>
      </g>
     </g>
     <g id="text_34">
      <!-- 2900000 -->
      <g transform="translate(378.362536765 416.458125)scale(0.12 -0.12)">
       <use xlink:href="#BitstreamVeraSans-Roman-32"/>
       <use x="63.623046875" xlink:href="#BitstreamVeraSans-Roman-39"/>
       <use x="127.24609375" xlink:href="#BitstreamVeraSans-Roman-30"/>
       <use x="190.869140625" xlink:href="#BitstreamVeraSans-Roman-30"/>
       <use x="254.4921875" xlink:href="#BitstreamVeraSans-Roman-30"/>
       <use x="318.115234375" xlink:href="#BitstreamVeraSans-Roman-30"/>
       <use x="381.73828125" xlink:href="#BitstreamVeraSans-Roman-30"/>
      </g>
     </g>
    </g>
    <g id="xtick_17">
     <g id="line2d_56">
      <g>
       <use style="stroke:#000000;stroke-width:0.5;" x="459.424705882" xlink:href="#m93b0483c22" y="403.34"/>
      </g>
     </g>
     <g id="line2d_57">
      <g>
       <use style="stroke:#000000;stroke-width:0.5;" x="459.424705882" xlink:href="#m741efc42ff" y="231.405"/>
      </g>
     </g>
     <g id="text_35">
      <!-- 3000000 -->
      <g transform="translate(433.558143382 416.458125)scale(0.12 -0.12)">
       <use xlink:href="#BitstreamVeraSans-Roman-33"/>
       <use x="63.623046875" xlink:href="#BitstreamVeraSans-Roman-30"/>
       <use x="127.24609375" xlink:href="#BitstreamVeraSans-Roman-30"/>
       <use x="190.869140625" xlink:href="#BitstreamVeraSans-Roman-30"/>
       <use x="254.4921875" xlink:href="#BitstreamVeraSans-Roman-30"/>
       <use x="318.115234375" xlink:href="#BitstreamVeraSans-Roman-30"/>
       <use x="381.73828125" xlink:href="#BitstreamVeraSans-Roman-30"/>
      </g>
     </g>
    </g>
    <g id="xtick_18">
     <g id="line2d_58">
      <g>
       <use style="stroke:#000000;stroke-width:0.5;" x="514.6025" xlink:href="#m93b0483c22" y="403.34"/>
      </g>
     </g>
     <g id="line2d_59">
      <g>
       <use style="stroke:#000000;stroke-width:0.5;" x="514.6025" xlink:href="#m741efc42ff" y="231.405"/>
      </g>
     </g>
     <g id="text_36">
      <!-- 3100000 -->
      <g transform="translate(488.7359375 416.458125)scale(0.12 -0.12)">
       <use xlink:href="#BitstreamVeraSans-Roman-33"/>
       <use x="63.623046875" xlink:href="#BitstreamVeraSans-Roman-31"/>
       <use x="127.24609375" xlink:href="#BitstreamVeraSans-Roman-30"/>
       <use x="190.869140625" xlink:href="#BitstreamVeraSans-Roman-30"/>
       <use x="254.4921875" xlink:href="#BitstreamVeraSans-Roman-30"/>
       <use x="318.115234375" xlink:href="#BitstreamVeraSans-Roman-30"/>
       <use x="381.73828125" xlink:href="#BitstreamVeraSans-Roman-30"/>
      </g>
     </g>
    </g>
   </g>
   <g id="matplotlib.axis_5">
    <g id="ytick_17">
     <g id="line2d_60">
      <g>
       <use style="stroke:#000000;stroke-width:0.5;" x="45.59125" xlink:href="#m728421d6d4" y="403.34"/>
      </g>
     </g>
     <g id="text_37">
      <!-- 0.0 -->
      <g transform="translate(24.095625 406.65125)scale(0.12 -0.12)">
       <use xlink:href="#BitstreamVeraSans-Roman-30"/>
       <use x="63.623046875" xlink:href="#BitstreamVeraSans-Roman-2e"/>
       <use x="95.41015625" xlink:href="#BitstreamVeraSans-Roman-30"/>
      </g>
     </g>
    </g>
    <g id="ytick_18">
     <g id="line2d_61">
      <g>
       <use style="stroke:#000000;stroke-width:0.5;" x="45.59125" xlink:href="#m728421d6d4" y="378.777857143"/>
      </g>
     </g>
     <g id="text_38">
      <!-- 0.5 -->
      <g transform="translate(24.346875 382.089107143)scale(0.12 -0.12)">
       <use xlink:href="#BitstreamVeraSans-Roman-30"/>
       <use x="63.623046875" xlink:href="#BitstreamVeraSans-Roman-2e"/>
       <use x="95.41015625" xlink:href="#BitstreamVeraSans-Roman-35"/>
      </g>
     </g>
    </g>
    <g id="ytick_19">
     <g id="line2d_62">
      <g>
       <use style="stroke:#000000;stroke-width:0.5;" x="45.59125" xlink:href="#m728421d6d4" y="354.215714286"/>
      </g>
     </g>
     <g id="text_39">
      <!-- 1.0 -->
      <g transform="translate(24.6225 357.526964286)scale(0.12 -0.12)">
       <use xlink:href="#BitstreamVeraSans-Roman-31"/>
       <use x="63.623046875" xlink:href="#BitstreamVeraSans-Roman-2e"/>
       <use x="95.41015625" xlink:href="#BitstreamVeraSans-Roman-30"/>
      </g>
     </g>
    </g>
    <g id="ytick_20">
     <g id="line2d_63">
      <g>
       <use style="stroke:#000000;stroke-width:0.5;" x="45.59125" xlink:href="#m728421d6d4" y="329.653571429"/>
      </g>
     </g>
     <g id="text_40">
      <!-- 1.5 -->
      <g transform="translate(24.87375 332.964821429)scale(0.12 -0.12)">
       <use xlink:href="#BitstreamVeraSans-Roman-31"/>
       <use x="63.623046875" xlink:href="#BitstreamVeraSans-Roman-2e"/>
       <use x="95.41015625" xlink:href="#BitstreamVeraSans-Roman-35"/>
      </g>
     </g>
    </g>
    <g id="ytick_21">
     <g id="line2d_64">
      <g>
       <use style="stroke:#000000;stroke-width:0.5;" x="45.59125" xlink:href="#m728421d6d4" y="305.091428571"/>
      </g>
     </g>
     <g id="text_41">
      <!-- 2.0 -->
      <g transform="translate(24.18375 308.402678571)scale(0.12 -0.12)">
       <use xlink:href="#BitstreamVeraSans-Roman-32"/>
       <use x="63.623046875" xlink:href="#BitstreamVeraSans-Roman-2e"/>
       <use x="95.41015625" xlink:href="#BitstreamVeraSans-Roman-30"/>
      </g>
     </g>
    </g>
    <g id="ytick_22">
     <g id="line2d_65">
      <g>
       <use style="stroke:#000000;stroke-width:0.5;" x="45.59125" xlink:href="#m728421d6d4" y="280.529285714"/>
      </g>
     </g>
     <g id="text_42">
      <!-- 2.5 -->
      <g transform="translate(24.435 283.840535714)scale(0.12 -0.12)">
       <use xlink:href="#BitstreamVeraSans-Roman-32"/>
       <use x="63.623046875" xlink:href="#BitstreamVeraSans-Roman-2e"/>
       <use x="95.41015625" xlink:href="#BitstreamVeraSans-Roman-35"/>
      </g>
     </g>
    </g>
    <g id="ytick_23">
     <g id="line2d_66">
      <g>
       <use style="stroke:#000000;stroke-width:0.5;" x="45.59125" xlink:href="#m728421d6d4" y="255.967142857"/>
      </g>
     </g>
     <g id="text_43">
      <!-- 3.0 -->
      <g transform="translate(24.219375 259.278392857)scale(0.12 -0.12)">
       <use xlink:href="#BitstreamVeraSans-Roman-33"/>
       <use x="63.623046875" xlink:href="#BitstreamVeraSans-Roman-2e"/>
       <use x="95.41015625" xlink:href="#BitstreamVeraSans-Roman-30"/>
      </g>
     </g>
    </g>
    <g id="ytick_24">
     <g id="line2d_67">
      <g>
       <use style="stroke:#000000;stroke-width:0.5;" x="45.59125" xlink:href="#m728421d6d4" y="231.405"/>
      </g>
     </g>
     <g id="text_44">
      <!-- 3.5 -->
      <g transform="translate(24.470625 234.71625)scale(0.12 -0.12)">
       <use xlink:href="#BitstreamVeraSans-Roman-33"/>
       <use x="63.623046875" xlink:href="#BitstreamVeraSans-Roman-2e"/>
       <use x="95.41015625" xlink:href="#BitstreamVeraSans-Roman-35"/>
      </g>
     </g>
    </g>
    <g id="text_45">
     <!-- 1e9 -->
     <g transform="translate(45.59125 228.405)scale(0.12 -0.12)">
      <use xlink:href="#BitstreamVeraSans-Roman-31"/>
      <use x="63.623046875" xlink:href="#BitstreamVeraSans-Roman-65"/>
      <use x="125.146484375" xlink:href="#BitstreamVeraSans-Roman-39"/>
     </g>
    </g>
   </g>
   <g id="legend_3">
    <g id="patch_18">
     <path d="
M52.7913 264.062
L111.395 264.062
L111.395 238.605
L52.7913 238.605
z
" style="fill:#ffffff;stroke:#000000;stroke-linejoin:miter;"/>
    </g>
    <g id="line2d_68">
     <path d="
M62.8713 250.267
L83.0312 250.267" style="fill:none;stroke:#0000ff;stroke-linecap:square;"/>
    </g>
    <g id="line2d_69"/>
    <g id="text_46">
     <!-- E -->
     <defs>
      <path d="
M9.8125 72.9062
L55.9062 72.9062
L55.9062 64.5938
L19.6719 64.5938
L19.6719 43.0156
L54.3906 43.0156
L54.3906 34.7188
L19.6719 34.7188
L19.6719 8.29688
L56.7812 8.29688
L56.7812 0
L9.8125 0
z
" id="BitstreamVeraSans-Roman-45"/>
     </defs>
     <g transform="translate(98.87125 255.30675)scale(0.144 -0.144)">
      <use xlink:href="#BitstreamVeraSans-Roman-45"/>
     </g>
    </g>
   </g>
  </g>
  <g id="axes_4">
   <g id="line2d_70">
    <path clip-path="url(#p8b16ced27d)" d="
M45.4257 403.34
L55.3041 403.34
L55.3577 342.858
L56.5165 312.424
L57.1786 299.367
L57.5097 295.851
L58.5029 290.15
L59.6616 283.691
L61.4825 271.913
L61.648 271.522
L61.8135 271.573
L61.9791 271.999
L62.3101 273.716
L63.6344 282.569
L64.131 283.691
L65.1242 285.059
L65.4553 286.151
L65.6208 288.523
L65.9519 301.427
L67.2761 371.985
L67.4417 372.83
L67.4417 372.83
L67.9383 368.816
L69.7591 350.854
L71.4145 340.286
L71.7455 335.226
L72.2421 321.529
L73.2353 292.652
L73.5664 288.331
L73.8975 286.611
L74.063 286.586
L74.1526 286.795
L74.1526 403.34
L74.2285 403.34
L75.0531 403.34
L75.0531 296.901
L75.0562 296.96
L75.5528 308.395
L76.2149 332.864
L77.0426 364.852
L77.5392 376.43
L78.1957 387.694
L78.1957 403.34
L78.2013 403.34
L103.116 403.34
L103.197 348.579
L103.868 337.06
L104.356 331.78
L104.852 328.526
L105.183 327.3
L105.349 328.444
L105.68 338.599
L106.607 387.694
L106.607 403.34
L106.673 403.34
L108.545 403.34
L108.545 329.904
L108.991 310.282
L109.322 305.748
L110.149 299.086
L110.48 297.555
L110.646 297.178
L110.811 297.109
L110.977 297.385
L111.474 299.804
L113.625 311.015
L114.784 315.698
L115.115 317.599
L115.446 321.391
L115.943 331.68
L117.102 359.218
L118.26 376.937
L119.088 386.442
L119.227 387.694
L119.227 403.34
L119.254 403.34
L122.988 403.34
L123.061 360.939
L123.889 346.154
L125.047 325.579
L125.378 322.731
L125.544 322.495
L125.709 322.946
L126.04 325.588
L126.537 332.705
L127.199 345.487
L127.696 363.133
L128.292 387.694
L128.292 403.34
L128.358 403.34
L150.439 403.34
L150.539 329.36
L150.87 317.756
L152.029 293.481
L152.691 283.878
L153.519 276.558
L154.347 270.561
L155.009 267.34
L155.671 265.159
L156.333 263.68
L156.83 262.995
L156.995 262.912
L157.161 262.996
L157.492 263.597
L157.988 265.341
L158.816 269.41
L159.147 273.069
L159.644 283.409
L160.06 293.088
L160.06 403.34
L160.14 403.34
L160.96 403.34
L160.968 301.521
L161.299 297.091
L161.961 281.901
L162.012 280.661
L162.012 403.34
L162.912 403.34
L162.954 266.002
L163.588 261.991
L163.588 403.34
L163.617 403.34
L164.489 403.34
L164.489 257.803
L164.775 257.206
L165.111 256.859
L165.111 403.34
L166.011 403.34
L166.1 256.272
L166.625 255.817
L166.625 403.34
L167.526 403.34
L167.589 253.183
L168.115 251.413
L168.115 403.34
L169.015 403.34
L169.015 251.32
L169.079 251.505
L169.604 253.679
L169.604 403.34
L170.505 403.34
L170.505 258.76
L170.569 259.12
L171.152 262.342
L171.152 403.34
L171.231 403.34
L172.053 403.34
L172.053 267.941
L172.059 267.981
L172.787 272.855
L172.787 403.34
L172.886 403.34
L173.687 403.34
L173.687 284.594
L173.714 285.069
L174.542 301.868
L174.813 308.49
L174.813 403.34
L174.873 403.34
L175.714 403.34
L175.714 360.925
L176.148 387.694
L176.148 403.34
L176.197 403.34
L198.101 403.34
L198.101 333.069
L198.544 315.409
L199.703 289.439
L200.365 279.241
L201.193 271.767
L202.02 265.671
L202.682 262.252
L203.676 258.266
L204.172 257.184
L204.503 257.049
L204.503 257.049
L204.834 257.517
L205.331 259.09
L206.324 262.663
L206.655 263.191
L206.984 263.256
L206.984 403.34
L206.986 403.34
L207.884 403.34
L207.979 262.421
L208.311 262.393
L208.546 262.653
L208.546 403.34
L208.642 403.34
L209.447 403.34
L209.447 269.787
L209.469 270.03
L210.131 276.141
L210.214 276.615
L210.214 403.34
L210.297 403.34
L211.114 403.34
L211.125 273.933
L211.846 266.399
L211.846 403.34
L211.952 403.34
L212.747 403.34
L212.747 263.667
L212.78 263.732
L213.277 265.09
L213.426 265.571
L213.426 403.34
L213.442 403.34
L214.327 403.34
L214.327 267.661
L214.435 267.688
L214.766 267.457
L215.033 267.046
L215.033 403.34
L215.097 403.34
L215.933 403.34
L215.933 265.388
L216.256 265.148
L216.422 265.185
L216.619 265.389
L216.619 403.34
L217.519 403.34
L217.519 268.041
L217.58 268.298
L218.246 271.421
L218.246 403.34
L219.147 403.34
L219.147 276.984
L219.236 277.705
L220.004 285.272
L220.004 403.34
L220.063 403.34
L220.904 403.34
L220.904 298.519
L221.719 317.312
L222.712 345.527
L223.664 387.694
L223.664 403.34
L223.705 403.34
L246.308 403.34
L246.383 361.006
L246.714 360.173
L246.88 360.088
L247.211 360.274
L247.542 360.521
L247.831 360.398
L247.831 360.398
L248.039 359.923
L248.37 358.22
L248.866 354.07
L250.191 342.164
L250.356 341.736
L250.522 342.195
L250.853 345.086
L251.846 357.198
L252.117 357.956
L252.117 357.956
L252.177 357.81
L252.423 355.252
L252.423 355.252
L252.674 349.766
L253.501 322.755
L253.998 310.281
L254.329 307.427
L254.494 306.929
L254.66 306.847
L254.825 307.154
L255.157 308.831
L255.653 313.595
L256.15 320.416
L256.481 327.742
L257.143 350.769
L257.805 373.519
L258.136 380.497
L258.302 381.536
L258.467 380.3
L258.798 372.793
L259.791 342.27
L259.957 340.722
L260.123 341.382
L260.454 348.407
L260.95 366.933
L261.457 387.694
L261.457 403.34
L293.486 403.34
L293.56 334.453
L293.891 325.266
L295.381 304.859
L297.202 283.747
L297.864 277.702
L298.361 274.711
L298.857 272.882
L299.354 271.86
L300.016 271.119
L300.844 270.326
L301.175 270.287
L301.506 270.57
L301.837 271.287
L304.215 278.633
L304.215 403.34
L304.32 403.34
L305.116 403.34
L305.116 281.566
L305.148 281.67
L306.002 284.143
L306.002 403.34
L306.903 403.34
L306.968 280.716
L307.465 278.432
L307.736 277.877
L307.736 403.34
L307.796 403.34
L308.637 403.34
L308.637 282.631
L309.12 289.006
L309.631 297.89
L309.631 403.34
L310.532 403.34
L310.532 326.447
L310.61 329.864
L311.438 363.093
L311.769 370.64
L312.597 380.855
L313.259 386.382
L313.489 387.694
L313.489 403.34
L313.59 403.34
L341.575 403.34
L341.575 353.052
L342.393 338.346
L342.889 332.174
L343.386 328.614
L343.551 328.082
L343.717 329.158
L344.048 338.407
L344.71 371.325
L345.058 387.694
L345.058 403.34
L350.915 403.34
L351 348.373
L351.331 341.822
L351.666 339.84
L352.325 338.067
L352.656 337.577
L352.987 337.397
L353.318 337.561
L353.98 338.626
L355.139 340.929
L355.801 342.611
L356.463 345.171
L357.125 348.674
L357.456 350.769
L357.787 355.189
L358.284 367.492
L359.038 387.694
L359.111 403.34
L484.357 403.34
L484.42 349.176
L484.586 347.64
L484.751 348.089
L485.082 353.855
L485.658 372.74
L485.658 372.74
L486.099 387.694
L486.099 403.34
L489.565 403.34
L489.626 335.47
L489.626 335.47
L490.214 307.967
L490.545 299.294
L491.042 293.113
L491.538 289.718
L491.869 289.044
L492.035 289.194
L492.366 290.482
L492.697 293.105
L493.359 301.195
L494.187 311.239
L494.518 313.531
L495.014 315.371
L495.511 316.357
L495.842 316.496
L496.173 316.189
L496.504 315.409
L497.001 313.324
L497.497 310.2
L498.16 304.564
L498.656 299.085
L499.153 290.143
L500.146 270.476
L500.477 266.75
L500.974 263.825
L501.47 262.12
L501.801 261.545
L502.132 261.338
L502.463 261.43
L502.609 261.538
L502.609 403.34
L502.629 403.34
L503.509 403.34
L503.509 262.793
L504.119 264.286
L504.181 264.471
L504.181 403.34
L504.284 403.34
L505.081 403.34
L505.081 268.56
L505.112 268.763
L505.826 274.54
L505.826 403.34
L506.726 403.34
L506.726 284.408
L506.767 285.029
L507.429 297.729
L507.831 307.22
L507.831 403.34
L507.926 403.34
L508.732 403.34
L508.732 333.267
L508.754 334.231
L509.782 387.694
L509.782 403.34
L514.713 403.34
L514.713 403.34" style="fill:none;stroke:#008000;stroke-linecap:square;"/>
   </g>
   <g id="line2d_71">
    <path clip-path="url(#p8b16ced27d)" d="
M45.4257 403.34
L55.5324 403.34
L55.5324 343.64
L87.8946 343.64
L87.8946 403.34
L87.9678 403.34
L103.371 403.34
L103.371 343.64
L106.948 343.64
L106.948 403.34
L107.004 403.34
L108.725 403.34
L108.725 343.64
L108.825 343.64
L122.609 343.64
L122.609 403.34
L123.311 403.34
L123.311 343.64
L123.392 343.64
L128.722 343.64
L128.722 403.34
L150.631 403.34
L150.631 343.64
L150.705 343.64
L185.744 343.64
L185.744 403.34
L185.798 403.34
L198.29 403.34
L198.29 343.64
L198.379 343.64
L233.833 343.64
L233.833 403.34
L246.642 403.34
L246.642 343.64
L246.714 343.64
L247.499 343.64
L247.499 403.34
L247.542 403.34
L247.831 403.34
L247.831 343.64
L247.873 343.64
L248.813 343.64
L248.813 403.34
L248.866 403.34
L249.097 403.34
L249.097 343.64
L249.197 343.64
L252.117 343.64
L252.117 403.34
L252.177 403.34
L252.423 403.34
L252.423 343.64
L252.508 343.64
L261.951 343.64
L261.951 403.34
L293.689 403.34
L293.689 343.64
L293.726 343.64
L322.089 343.64
L322.089 403.34
L322.198 403.34
L341.843 403.34
L341.843 343.64
L341.896 343.64
L345.303 343.64
L345.303 403.34
L345.372 403.34
L351.17 403.34
L351.17 343.64
L358.851 343.64
L358.851 403.34
L358.946 403.34
L484.558 403.34
L484.558 343.64
L484.586 343.64
L485.658 343.64
L485.658 403.34
L485.745 403.34
L489.626 403.34
L489.626 343.64
L489.717 343.64
L514.713 343.64
L514.713 343.64" style="fill:none;stroke:#ff0000;stroke-linecap:square;"/>
   </g>
   <g id="patch_19">
    <path d="
M45.5912 231.405
L514.602 231.405" style="fill:none;stroke:#000000;stroke-linecap:square;stroke-linejoin:miter;"/>
   </g>
   <g id="patch_20">
    <path d="
M514.602 403.34
L514.602 231.405" style="fill:none;stroke:#000000;stroke-linecap:square;stroke-linejoin:miter;"/>
   </g>
   <g id="patch_21">
    <path d="
M45.5912 403.34
L514.602 403.34" style="fill:none;stroke:#000000;stroke-linecap:square;stroke-linejoin:miter;"/>
   </g>
   <g id="patch_22">
    <path d="
M45.5913 403.34
L45.5913 231.405" style="fill:none;stroke:#000000;stroke-linecap:square;stroke-linejoin:miter;"/>
   </g>
   <g id="matplotlib.axis_6">
    <g id="ytick_25">
     <g id="line2d_72">
      <g>
       <use style="stroke:#000000;stroke-width:0.5;" x="514.6025" xlink:href="#mcb0005524f" y="403.34"/>
      </g>
     </g>
     <g id="text_47">
      <!-- 0 -->
      <g transform="translate(518.6025 406.65125)scale(0.12 -0.12)">
       <use xlink:href="#BitstreamVeraSans-Roman-30"/>
      </g>
     </g>
    </g>
    <g id="ytick_26">
     <g id="line2d_73">
      <g>
       <use style="stroke:#000000;stroke-width:0.5;" x="514.6025" xlink:href="#mcb0005524f" y="384.236111111"/>
      </g>
     </g>
     <g id="text_48">
      <!-- 50000 -->
      <g transform="translate(518.6025 387.547361111)scale(0.12 -0.12)">
       <use xlink:href="#BitstreamVeraSans-Roman-35"/>
       <use x="63.623046875" xlink:href="#BitstreamVeraSans-Roman-30"/>
       <use x="127.24609375" xlink:href="#BitstreamVeraSans-Roman-30"/>
       <use x="190.869140625" xlink:href="#BitstreamVeraSans-Roman-30"/>
       <use x="254.4921875" xlink:href="#BitstreamVeraSans-Roman-30"/>
      </g>
     </g>
    </g>
    <g id="ytick_27">
     <g id="line2d_74">
      <g>
       <use style="stroke:#000000;stroke-width:0.5;" x="514.6025" xlink:href="#mcb0005524f" y="365.132222222"/>
      </g>
     </g>
     <g id="text_49">
      <!-- 100000 -->
      <g transform="translate(518.6025 368.443472222)scale(0.12 -0.12)">
       <use xlink:href="#BitstreamVeraSans-Roman-31"/>
       <use x="63.623046875" xlink:href="#BitstreamVeraSans-Roman-30"/>
       <use x="127.24609375" xlink:href="#BitstreamVeraSans-Roman-30"/>
       <use x="190.869140625" xlink:href="#BitstreamVeraSans-Roman-30"/>
       <use x="254.4921875" xlink:href="#BitstreamVeraSans-Roman-30"/>
       <use x="318.115234375" xlink:href="#BitstreamVeraSans-Roman-30"/>
      </g>
     </g>
    </g>
    <g id="ytick_28">
     <g id="line2d_75">
      <g>
       <use style="stroke:#000000;stroke-width:0.5;" x="514.6025" xlink:href="#mcb0005524f" y="346.028333333"/>
      </g>
     </g>
     <g id="text_50">
      <!-- 150000 -->
      <g transform="translate(518.6025 349.339583333)scale(0.12 -0.12)">
       <use xlink:href="#BitstreamVeraSans-Roman-31"/>
       <use x="63.623046875" xlink:href="#BitstreamVeraSans-Roman-35"/>
       <use x="127.24609375" xlink:href="#BitstreamVeraSans-Roman-30"/>
       <use x="190.869140625" xlink:href="#BitstreamVeraSans-Roman-30"/>
       <use x="254.4921875" xlink:href="#BitstreamVeraSans-Roman-30"/>
       <use x="318.115234375" xlink:href="#BitstreamVeraSans-Roman-30"/>
      </g>
     </g>
    </g>
    <g id="ytick_29">
     <g id="line2d_76">
      <g>
       <use style="stroke:#000000;stroke-width:0.5;" x="514.6025" xlink:href="#mcb0005524f" y="326.924444444"/>
      </g>
     </g>
     <g id="text_51">
      <!-- 200000 -->
      <g transform="translate(518.6025 330.235694444)scale(0.12 -0.12)">
       <use xlink:href="#BitstreamVeraSans-Roman-32"/>
       <use x="63.623046875" xlink:href="#BitstreamVeraSans-Roman-30"/>
       <use x="127.24609375" xlink:href="#BitstreamVeraSans-Roman-30"/>
       <use x="190.869140625" xlink:href="#BitstreamVeraSans-Roman-30"/>
       <use x="254.4921875" xlink:href="#BitstreamVeraSans-Roman-30"/>
       <use x="318.115234375" xlink:href="#BitstreamVeraSans-Roman-30"/>
      </g>
     </g>
    </g>
    <g id="ytick_30">
     <g id="line2d_77">
      <g>
       <use style="stroke:#000000;stroke-width:0.5;" x="514.6025" xlink:href="#mcb0005524f" y="307.820555556"/>
      </g>
     </g>
     <g id="text_52">
      <!-- 250000 -->
      <g transform="translate(518.6025 311.131805556)scale(0.12 -0.12)">
       <use xlink:href="#BitstreamVeraSans-Roman-32"/>
       <use x="63.623046875" xlink:href="#BitstreamVeraSans-Roman-35"/>
       <use x="127.24609375" xlink:href="#BitstreamVeraSans-Roman-30"/>
       <use x="190.869140625" xlink:href="#BitstreamVeraSans-Roman-30"/>
       <use x="254.4921875" xlink:href="#BitstreamVeraSans-Roman-30"/>
       <use x="318.115234375" xlink:href="#BitstreamVeraSans-Roman-30"/>
      </g>
     </g>
    </g>
    <g id="ytick_31">
     <g id="line2d_78">
      <g>
       <use style="stroke:#000000;stroke-width:0.5;" x="514.6025" xlink:href="#mcb0005524f" y="288.716666667"/>
      </g>
     </g>
     <g id="text_53">
      <!-- 300000 -->
      <g transform="translate(518.6025 292.027916667)scale(0.12 -0.12)">
       <use xlink:href="#BitstreamVeraSans-Roman-33"/>
       <use x="63.623046875" xlink:href="#BitstreamVeraSans-Roman-30"/>
       <use x="127.24609375" xlink:href="#BitstreamVeraSans-Roman-30"/>
       <use x="190.869140625" xlink:href="#BitstreamVeraSans-Roman-30"/>
       <use x="254.4921875" xlink:href="#BitstreamVeraSans-Roman-30"/>
       <use x="318.115234375" xlink:href="#BitstreamVeraSans-Roman-30"/>
      </g>
     </g>
    </g>
    <g id="ytick_32">
     <g id="line2d_79">
      <g>
       <use style="stroke:#000000;stroke-width:0.5;" x="514.6025" xlink:href="#mcb0005524f" y="269.612777778"/>
      </g>
     </g>
     <g id="text_54">
      <!-- 350000 -->
      <g transform="translate(518.6025 272.924027778)scale(0.12 -0.12)">
       <use xlink:href="#BitstreamVeraSans-Roman-33"/>
       <use x="63.623046875" xlink:href="#BitstreamVeraSans-Roman-35"/>
       <use x="127.24609375" xlink:href="#BitstreamVeraSans-Roman-30"/>
       <use x="190.869140625" xlink:href="#BitstreamVeraSans-Roman-30"/>
       <use x="254.4921875" xlink:href="#BitstreamVeraSans-Roman-30"/>
       <use x="318.115234375" xlink:href="#BitstreamVeraSans-Roman-30"/>
      </g>
     </g>
    </g>
    <g id="ytick_33">
     <g id="line2d_80">
      <g>
       <use style="stroke:#000000;stroke-width:0.5;" x="514.6025" xlink:href="#mcb0005524f" y="250.508888889"/>
      </g>
     </g>
     <g id="text_55">
      <!-- 400000 -->
      <g transform="translate(518.6025 253.820138889)scale(0.12 -0.12)">
       <use xlink:href="#BitstreamVeraSans-Roman-34"/>
       <use x="63.623046875" xlink:href="#BitstreamVeraSans-Roman-30"/>
       <use x="127.24609375" xlink:href="#BitstreamVeraSans-Roman-30"/>
       <use x="190.869140625" xlink:href="#BitstreamVeraSans-Roman-30"/>
       <use x="254.4921875" xlink:href="#BitstreamVeraSans-Roman-30"/>
       <use x="318.115234375" xlink:href="#BitstreamVeraSans-Roman-30"/>
      </g>
     </g>
    </g>
    <g id="ytick_34">
     <g id="line2d_81">
      <g>
       <use style="stroke:#000000;stroke-width:0.5;" x="514.6025" xlink:href="#mcb0005524f" y="231.405"/>
      </g>
     </g>
     <g id="text_56">
      <!-- 450000 -->
      <g transform="translate(518.6025 234.71625)scale(0.12 -0.12)">
       <use xlink:href="#BitstreamVeraSans-Roman-34"/>
       <use x="63.623046875" xlink:href="#BitstreamVeraSans-Roman-35"/>
       <use x="127.24609375" xlink:href="#BitstreamVeraSans-Roman-30"/>
       <use x="190.869140625" xlink:href="#BitstreamVeraSans-Roman-30"/>
       <use x="254.4921875" xlink:href="#BitstreamVeraSans-Roman-30"/>
       <use x="318.115234375" xlink:href="#BitstreamVeraSans-Roman-30"/>
      </g>
     </g>
    </g>
   </g>
   <g id="legend_4">
    <g id="patch_23">
     <path d="
M376.101 285.999
L507.402 285.999
L507.402 238.605
L376.101 238.605
z
" style="fill:#ffffff;stroke:#000000;stroke-linejoin:miter;"/>
    </g>
    <g id="line2d_82">
     <path d="
M386.181 250.267
L406.341 250.267" style="fill:none;stroke:#008000;stroke-linecap:square;"/>
    </g>
    <g id="line2d_83"/>
    <g id="text_57">
     <!-- Q_flow_chg -->
     <defs>
      <path d="
M39.4062 66.2188
Q28.6562 66.2188 22.3281 58.2031
Q16.0156 50.2031 16.0156 36.375
Q16.0156 22.6094 22.3281 14.5938
Q28.6562 6.59375 39.4062 6.59375
Q50.1406 6.59375 56.4219 14.5938
Q62.7031 22.6094 62.7031 36.375
Q62.7031 50.2031 56.4219 58.2031
Q50.1406 66.2188 39.4062 66.2188
M53.2188 1.3125
L66.2188 -12.8906
L54.2969 -12.8906
L43.5 -1.21875
Q41.8906 -1.3125 41.0312 -1.35938
Q40.1875 -1.42188 39.4062 -1.42188
Q24.0312 -1.42188 14.8125 8.85938
Q5.60938 19.1406 5.60938 36.375
Q5.60938 53.6562 14.8125 63.9375
Q24.0312 74.2188 39.4062 74.2188
Q54.7344 74.2188 63.9062 63.9375
Q73.0938 53.6562 73.0938 36.375
Q73.0938 23.6875 67.9844 14.6406
Q62.8906 5.60938 53.2188 1.3125" id="BitstreamVeraSans-Roman-51"/>
      <path d="
M45.4062 27.9844
Q45.4062 37.75 41.375 43.1094
Q37.3594 48.4844 30.0781 48.4844
Q22.8594 48.4844 18.8281 43.1094
Q14.7969 37.75 14.7969 27.9844
Q14.7969 18.2656 18.8281 12.8906
Q22.8594 7.51562 30.0781 7.51562
Q37.3594 7.51562 41.375 12.8906
Q45.4062 18.2656 45.4062 27.9844
M54.3906 6.78125
Q54.3906 -7.17188 48.1875 -13.9844
Q42 -20.7969 29.2031 -20.7969
Q24.4688 -20.7969 20.2656 -20.0938
Q16.0625 -19.3906 12.1094 -17.9219
L12.1094 -9.1875
Q16.0625 -11.3281 19.9219 -12.3438
Q23.7812 -13.375 27.7812 -13.375
Q36.625 -13.375 41.0156 -8.76562
Q45.4062 -4.15625 45.4062 5.17188
L45.4062 9.625
Q42.625 4.78125 38.2812 2.39062
Q33.9375 0 27.875 0
Q17.8281 0 11.6719 7.65625
Q5.51562 15.3281 5.51562 27.9844
Q5.51562 40.6719 11.6719 48.3281
Q17.8281 56 27.875 56
Q33.9375 56 38.2812 53.6094
Q42.625 51.2188 45.4062 46.3906
L45.4062 54.6875
L54.3906 54.6875
z
" id="BitstreamVeraSans-Roman-67"/>
      <path d="
M37.1094 75.9844
L37.1094 68.5
L28.5156 68.5
Q23.6875 68.5 21.7969 66.5469
Q19.9219 64.5938 19.9219 59.5156
L19.9219 54.6875
L34.7188 54.6875
L34.7188 47.7031
L19.9219 47.7031
L19.9219 0
L10.8906 0
L10.8906 47.7031
L2.29688 47.7031
L2.29688 54.6875
L10.8906 54.6875
L10.8906 58.5
Q10.8906 67.625 15.1406 71.7969
Q19.3906 75.9844 28.6094 75.9844
z
" id="BitstreamVeraSans-Roman-66"/>
      <path d="
M54.8906 33.0156
L54.8906 0
L45.9062 0
L45.9062 32.7188
Q45.9062 40.4844 42.875 44.3281
Q39.8438 48.1875 33.7969 48.1875
Q26.5156 48.1875 22.3125 43.5469
Q18.1094 38.9219 18.1094 30.9062
L18.1094 0
L9.07812 0
L9.07812 75.9844
L18.1094 75.9844
L18.1094 46.1875
Q21.3438 51.125 25.7031 53.5625
Q30.0781 56 35.7969 56
Q45.2188 56 50.0469 50.1719
Q54.8906 44.3438 54.8906 33.0156" id="BitstreamVeraSans-Roman-68"/>
      <path d="
M30.6094 48.3906
Q23.3906 48.3906 19.1875 42.75
Q14.9844 37.1094 14.9844 27.2969
Q14.9844 17.4844 19.1562 11.8438
Q23.3438 6.20312 30.6094 6.20312
Q37.7969 6.20312 41.9844 11.8594
Q46.1875 17.5312 46.1875 27.2969
Q46.1875 37.0156 41.9844 42.7031
Q37.7969 48.3906 30.6094 48.3906
M30.6094 56
Q42.3281 56 49.0156 48.375
Q55.7188 40.7656 55.7188 27.2969
Q55.7188 13.875 49.0156 6.21875
Q42.3281 -1.42188 30.6094 -1.42188
Q18.8438 -1.42188 12.1719 6.21875
Q5.51562 13.875 5.51562 27.2969
Q5.51562 40.7656 12.1719 48.375
Q18.8438 56 30.6094 56" id="BitstreamVeraSans-Roman-6f"/>
     </defs>
     <g transform="translate(422.1815 255.30675)scale(0.144 -0.144)">
      <use xlink:href="#BitstreamVeraSans-Roman-51"/>
      <use x="78.7109375" xlink:href="#BitstreamVeraSans-Roman-5f"/>
      <use x="128.7109375" xlink:href="#BitstreamVeraSans-Roman-66"/>
      <use x="163.916015625" xlink:href="#BitstreamVeraSans-Roman-6c"/>
      <use x="191.69921875" xlink:href="#BitstreamVeraSans-Roman-6f"/>
      <use x="252.880859375" xlink:href="#BitstreamVeraSans-Roman-77"/>
      <use x="334.66796875" xlink:href="#BitstreamVeraSans-Roman-5f"/>
      <use x="384.66796875" xlink:href="#BitstreamVeraSans-Roman-63"/>
      <use x="439.6484375" xlink:href="#BitstreamVeraSans-Roman-68"/>
      <use x="503.02734375" xlink:href="#BitstreamVeraSans-Roman-67"/>
     </g>
    </g>
    <g id="line2d_84">
     <path d="
M386.181 271.804
L406.341 271.804" style="fill:none;stroke:#ff0000;stroke-linecap:square;"/>
    </g>
    <g id="line2d_85"/>
    <g id="text_58">
     <!-- Q_flow_dis -->
     <g transform="translate(422.1815 276.84375)scale(0.144 -0.144)">
      <use xlink:href="#BitstreamVeraSans-Roman-51"/>
      <use x="78.7109375" xlink:href="#BitstreamVeraSans-Roman-5f"/>
      <use x="128.7109375" xlink:href="#BitstreamVeraSans-Roman-66"/>
      <use x="163.916015625" xlink:href="#BitstreamVeraSans-Roman-6c"/>
      <use x="191.69921875" xlink:href="#BitstreamVeraSans-Roman-6f"/>
      <use x="252.880859375" xlink:href="#BitstreamVeraSans-Roman-77"/>
      <use x="334.66796875" xlink:href="#BitstreamVeraSans-Roman-5f"/>
      <use x="384.66796875" xlink:href="#BitstreamVeraSans-Roman-64"/>
      <use x="448.14453125" xlink:href="#BitstreamVeraSans-Roman-69"/>
      <use x="475.927734375" xlink:href="#BitstreamVeraSans-Roman-73"/>
     </g>
    </g>
   </g>
  </g>
 </g>
 <defs>
  <clipPath id="p8e8d647484">
   <rect height="171.935" width="469.01125" x="45.59125" y="18.81"/>
  </clipPath>
  <clipPath id="p8b16ced27d">
   <rect height="171.935" width="469.01125" x="45.59125" y="231.405"/>
  </clipPath>
 </defs>
</svg>
