<?xml version="1.0" encoding="utf-8" standalone="no"?>
<!DOCTYPE svg PUBLIC "-//W3C//DTD SVG 1.1//EN"
  "http://www.w3.org/Graphics/SVG/1.1/DTD/svg11.dtd">
<!-- Created with matplotlib (http://matplotlib.org/) -->
<svg height="432pt" version="1.1" viewBox="0 0 576 432" width="576pt" xmlns="http://www.w3.org/2000/svg" xmlns:xlink="http://www.w3.org/1999/xlink">
 <defs>
  <style type="text/css">
*{stroke-linecap:butt;stroke-linejoin:round;}
  </style>
 </defs>
 <g id="figure_1">
  <g id="patch_1">
   <path d="
M0 432
L576 432
L576 0
L0 0
z
" style="fill:#ffffff;"/>
  </g>
  <g id="axes_1">
   <g id="patch_2">
    <path d="
M53.1287 193.82
L522.252 193.82
L522.252 18.81
L53.1287 18.81
z
" style="fill:#ffffff;"/>
   </g>
   <g id="line2d_1">
    <path clip-path="url(#pc469e2d746)" d="
M52.9632 193.82
L61.0763 193.82
L61.0763 193.82
L61.2418 192.918
L61.573 186.488
L62.0697 169.2
L63.0631 133.004
L64.5533 99.3493
L65.05 93.6268
L66.0435 88.3125
L67.2025 82.2919
L69.0238 71.313
L69.1893 70.949
L69.3549 70.9961
L69.5205 71.3932
L69.8516 72.9936
L71.1762 81.2456
L71.6729 82.2917
L72.6664 83.5671
L72.9975 84.5846
L73.1631 86.7961
L73.4942 98.8237
L74.8188 164.593
L74.9844 165.381
L74.9844 165.381
L75.4811 161.639
L77.3024 144.897
L78.9582 135.046
L79.2893 130.329
L79.786 117.562
L80.7795 90.6448
L81.1106 86.6169
L81.4417 85.0137
L81.6073 84.99
L81.7729 85.4621
L82.104 87.8251
L82.4352 91.9658
L82.9319 101.211
L83.4286 115.796
L84.7532 162.344
L85.4155 174.293
L86.0778 183.608
L86.5745 188.258
L86.9057 189.882
L88.0647 192.918
L88.5614 193.661
L88.8925 193.82
L88.8925 193.82
L108.761 193.82
L108.761 193.82
L108.927 193.067
L109.258 187.699
L109.755 173.242
L110.748 142.775
L111.41 132.15
L111.907 127.117
L112.404 124.083
L112.735 122.941
L112.901 124.007
L113.232 133.473
L114.621 190.873
L114.621 190.873
L114.722 190.757
L114.888 188.191
L115.219 176.089
L116.709 104.273
L117.702 96.6422
L118.033 95.2143
L118.199 94.863
L118.365 94.7988
L118.53 95.056
L119.027 97.311
L121.179 107.761
L122.338 112.126
L122.669 113.899
L123.001 117.433
L123.497 127.023
L124.656 152.693
L125.815 169.209
L126.643 178.069
L127.14 181.662
L127.471 183.06
L127.802 183.513
L127.968 183.345
L128.299 182.141
L128.63 179.673
L129.292 172.383
L130.451 156.644
L131.279 143.49
L132.604 121.337
L132.935 118.682
L133.101 118.462
L133.266 118.883
L133.597 121.345
L134.094 127.979
L134.756 139.893
L135.253 156.342
L136.081 186.451
L136.412 192.908
L136.578 193.82
L136.578 193.82
L156.446 193.82
L156.446 193.82
L156.612 192.52
L156.943 183.343
L157.44 159.232
L158.286 117.973
L158.286 117.973
L158.93 103.676
L159.801 88.1547
L159.801 88.1547
L160.42 80.9385
L161.579 72.0902
L162.241 68.3612
L162.904 65.9484
L163.566 64.2496
L164.228 63.1769
L164.559 62.9232
L164.725 63.0013
L165.056 63.5617
L165.553 65.1867
L166.381 68.9795
L166.712 72.391
L167.209 82.0287
L167.871 95.5153
L168.202 99.1878
L168.368 99.6063
L168.368 99.6063
L168.533 98.9119
L168.864 94.7819
L169.527 80.6231
L170.189 68.2494
L170.686 64.8052
L171.679 59.4628
L172.176 57.8741
L172.507 57.4275
L173.201 56.9698
L173.997 56.4994
L174.393 56.0495
L174.393 56.0495
L174.659 55.4594
L175.984 51.6444
L176.212 51.5505
L176.212 51.5505
L176.315 51.6244
L176.646 52.2902
L177.143 54.1826
L178.468 61.0616
L179.627 67.6484
L180.454 72.9643
L180.951 78.5329
L181.613 89.4267
L182.276 102.669
L182.607 114.223
L183.269 153.43
L183.931 188.028
L184.263 193.82
L184.263 193.82
L204.131 193.82
L204.131 193.82
L204.297 192.494
L204.628 183.126
L205.125 158.473
L205.953 116.626
L206.449 104.413
L207.443 84.8496
L207.443 84.8496
L207.94 78.1437
L208.767 71.1766
L209.595 65.4945
L210.258 62.308
L211.251 58.5925
L211.748 57.584
L212.079 57.458
L212.079 57.458
L212.41 57.8943
L212.907 59.3605
L213.9 62.6909
L214.231 63.1829
L214.563 63.2427
L215.059 62.8781
L215.556 62.4651
L215.887 62.4388
L216.126 62.6896
L216.126 62.6896
L216.384 63.8009
L216.881 67.9163
L217.708 75.2543
L218.04 76.4175
L218.26 76.1014
L218.26 76.1014
L218.536 74.5571
L219.199 68.2823
L219.695 64.2114
L219.861 63.5058
L220.026 63.2917
L220.026 63.2917
L220.358 63.6875
L220.854 64.9528
L221.682 67.1077
L222.013 67.3753
L222.013 67.3753
L222.179 67.3119
L222.51 66.9371
L223.669 65.0804
L224 65.0418
L224 65.0418
L224.331 65.4454
L224.828 66.737
L225.49 69.3356
L226.318 73.3425
L226.98 78.0415
L227.643 84.4082
L228.305 92.9975
L228.967 105.999
L230.126 134.257
L230.789 160.559
L231.451 186.032
L231.782 192.861
L231.948 193.82
L231.948 193.82
L251.816 193.82
L251.816 193.82
L251.982 193.135
L252.313 188.334
L252.975 171.383
L253.472 159.401
L253.803 155.172
L254.134 153.848
L254.466 153.504
L254.797 153.677
L255.128 153.907
L255.293 153.899
L255.459 153.733
L255.79 152.693
L256.287 149.323
L257.777 136.796
L257.943 136.398
L258.156 137.081
L258.156 137.081
L258.439 139.52
L259.433 150.809
L259.598 151.481
L259.764 151.38
L259.93 150.103
L260.261 143.882
L261.089 118.704
L261.585 107.077
L261.916 104.417
L262.207 103.86
L262.207 103.86
L262.248 103.876
L262.413 104.163
L262.744 105.725
L263.241 110.166
L263.738 116.524
L264.069 123.353
L264.731 144.817
L265.393 166.023
L265.725 172.527
L265.89 173.496
L266.056 172.344
L266.387 165.346
L267.38 136.895
L267.546 135.452
L267.711 136.067
L268.043 142.616
L268.539 159.884
L269.367 188.529
L269.698 192.945
L270.029 193.82
L271.354 193.82
L271.52 193.689
L271.851 192.299
L272.513 187.642
L273.175 183.308
L273.507 182.392
L273.672 182.444
L274.003 183.238
L274.5 185.207
L275.493 189.436
L276.984 193.137
L277.48 193.772
L277.977 193.82
L299.502 193.82
L299.502 193.82
L299.667 192.563
L299.998 183.734
L300.661 152.306
L301.323 124.396
L301.82 116.541
L303.153 100.04
L303.153 100.04
L305.131 79.2879
L305.793 74.7138
L306.29 72.6851
L306.787 71.5184
L307.283 70.8815
L308.608 69.7845
L308.939 69.8854
L309.27 70.3388
L309.933 72.1099
L312.747 80.4076
L313.575 82.6974
L313.741 82.662
L314.072 81.8206
L315.231 76.9945
L315.397 76.855
L315.397 76.855
L315.562 77.0474
L315.893 78.4792
L316.224 81.1755
L316.721 87.2459
L317.383 98.2937
L317.715 106.791
L318.377 132.133
L319.039 156.305
L319.496 164.982
L320.198 172.861
L320.86 178.013
L321.357 180.257
L325.662 193.129
L326.159 193.718
L326.49 193.82
L347.187 193.82
L347.187 193.82
L347.352 193.148
L347.683 188.342
L348.18 175.322
L349.173 147.151
L350.001 133.237
L350.498 127.484
L350.995 124.166
L351.16 123.67
L351.326 124.672
L351.657 133.294
L352.319 163.978
L352.816 184.097
L353.147 189.153
L353.313 188.895
L353.644 186.689
L354.306 178.781
L354.803 173.457
L355.134 171.944
L355.3 172.043
L355.631 173.461
L356.79 180.548
L356.955 180.473
L357.121 179.819
L357.287 178.165
L357.618 171.522
L358.942 136.477
L359.296 134.571
L359.936 132.978
L360.267 132.52
L360.598 132.353
L360.929 132.506
L361.591 133.499
L362.75 135.645
L363.413 137.213
L364.075 139.599
L364.737 142.864
L365.068 144.817
L365.4 148.937
L365.896 160.405
L366.724 180.594
L367.055 184.486
L367.718 187.516
L368.38 189.464
L368.877 190.209
L369.373 190.422
L370.698 190.64
L371.195 191.106
L371.857 192.296
L372.519 193.462
L372.85 193.776
L373.347 193.82
L395.037 193.79
L395.368 193.565
L395.865 192.909
L396.858 191.049
L397.19 190.153
L397.852 187.306
L398.845 183.028
L399.011 182.692
L399.177 182.642
L399.342 182.825
L399.673 183.681
L400.501 186.264
L400.667 186.44
L400.832 186.382
L400.998 185.764
L401.329 182.472
L402.488 166.608
L402.654 165.981
L402.819 166.256
L403.316 169.421
L405.468 186.066
L406.296 190.631
L406.793 192.507
L406.958 192.626
L407.124 192.114
L407.455 189.691
L408.449 180.231
L408.614 179.644
L408.78 179.673
L409.442 181.549
L410.767 185.507
L413.913 191.899
L414.409 192.529
L414.74 192.653
L414.74 192.653
L420.867 192.237
L421.198 192.446
L422.688 193.82
L422.688 193.82
L443.881 193.712
L445.371 193.674
L448.683 193.617
L449.014 193.224
L450.339 190.932
L450.67 190.966
L451.166 191.455
L452.491 193.091
L453.816 193.626
L454.478 193.674
L454.478 193.674
L455.14 193.457
L456.63 192.77
L457.127 192.844
L458.452 193.237
L458.452 193.237
L458.617 193.137
L458.948 192.527
L460.273 189.059
L460.439 189.007
L460.439 189.007
L460.77 189.347
L461.266 190.548
L462.094 192.733
L462.425 193.091
L464.247 193.513
L468.717 193.82
L490.242 193.82
L490.242 193.82
L490.407 192.836
L490.738 185.982
L491.401 162.26
L491.897 146.424
L492.229 141.9
L492.394 142.319
L492.725 147.694
L493.222 162.617
L493.884 182.758
L494.215 187.549
L494.547 188.877
L494.712 189.129
L494.878 189.077
L495.043 188.701
L495.374 186.886
L495.706 183.513
L496.202 175.152
L496.533 165.14
L497.196 134.259
L497.948 102.112
L498.189 96.8353
L498.686 91.0742
L499.183 87.9095
L499.514 87.2817
L499.679 87.4212
L500.011 88.6219
L500.342 91.0664
L501.004 98.6081
L501.832 107.97
L502.163 110.107
L502.66 111.821
L503.156 112.74
L503.488 112.87
L503.819 112.584
L504.15 111.857
L504.647 109.914
L505.143 107.002
L505.806 101.748
L506.302 96.641
L506.799 88.3054
L507.792 69.9737
L508.124 66.5002
L508.62 63.7738
L509.117 62.1844
L509.448 61.6484
L509.779 61.4558
L510.11 61.5416
L510.607 61.9824
L511.104 62.7156
L511.766 64.2036
L512.263 65.7919
L512.76 68.3768
L513.422 73.317
L514.25 81.3254
L514.747 88.9302
L515.574 106.419
L516.237 123.107
L516.733 144.941
L517.561 184.256
L517.892 192.638
L518.058 193.82
L518.058 193.82
L522.363 193.82
L522.363 193.82" style="fill:none;stroke:#0000ff;stroke-linecap:square;"/>
   </g>
   <g id="patch_3">
    <path d="
M53.1288 18.81
L522.252 18.81" style="fill:none;stroke:#000000;stroke-linecap:square;stroke-linejoin:miter;"/>
   </g>
   <g id="patch_4">
    <path d="
M522.252 193.82
L522.252 18.81" style="fill:none;stroke:#000000;stroke-linecap:square;stroke-linejoin:miter;"/>
   </g>
   <g id="patch_5">
    <path d="
M53.1288 193.82
L522.252 193.82" style="fill:none;stroke:#000000;stroke-linecap:square;stroke-linejoin:miter;"/>
   </g>
   <g id="patch_6">
    <path d="
M53.1287 193.82
L53.1287 18.81" style="fill:none;stroke:#000000;stroke-linecap:square;stroke-linejoin:miter;"/>
   </g>
   <g id="matplotlib.axis_1">
    <g id="xtick_1">
     <g id="line2d_2">
      <defs>
       <path d="
M0 0
L0 -4" id="m93b0483c22" style="stroke:#000000;stroke-width:0.5;"/>
      </defs>
      <g>
       <use style="stroke:#000000;stroke-width:0.5;" x="80.7242647059" xlink:href="#m93b0483c22" y="193.82"/>
      </g>
     </g>
     <g id="line2d_3">
      <defs>
       <path d="
M0 0
L0 4" id="m741efc42ff" style="stroke:#000000;stroke-width:0.5;"/>
      </defs>
      <g>
       <use style="stroke:#000000;stroke-width:0.5;" x="80.7242647059" xlink:href="#m741efc42ff" y="18.81"/>
      </g>
     </g>
     <g id="text_1">
      <!-- 2300000 -->
      <defs>
       <path d="
M19.1875 8.29688
L53.6094 8.29688
L53.6094 0
L7.32812 0
L7.32812 8.29688
Q12.9375 14.1094 22.625 23.8906
Q32.3281 33.6875 34.8125 36.5312
Q39.5469 41.8438 41.4219 45.5312
Q43.3125 49.2188 43.3125 52.7812
Q43.3125 58.5938 39.2344 62.25
Q35.1562 65.9219 28.6094 65.9219
Q23.9688 65.9219 18.8125 64.3125
Q13.6719 62.7031 7.8125 59.4219
L7.8125 69.3906
Q13.7656 71.7812 18.9375 73
Q24.125 74.2188 28.4219 74.2188
Q39.75 74.2188 46.4844 68.5469
Q53.2188 62.8906 53.2188 53.4219
Q53.2188 48.9219 51.5312 44.8906
Q49.8594 40.875 45.4062 35.4062
Q44.1875 33.9844 37.6406 27.2188
Q31.1094 20.4531 19.1875 8.29688" id="BitstreamVeraSans-Roman-32"/>
       <path d="
M40.5781 39.3125
Q47.6562 37.7969 51.625 33
Q55.6094 28.2188 55.6094 21.1875
Q55.6094 10.4062 48.1875 4.48438
Q40.7656 -1.42188 27.0938 -1.42188
Q22.5156 -1.42188 17.6562 -0.515625
Q12.7969 0.390625 7.625 2.20312
L7.625 11.7188
Q11.7188 9.32812 16.5938 8.10938
Q21.4844 6.89062 26.8125 6.89062
Q36.0781 6.89062 40.9375 10.5469
Q45.7969 14.2031 45.7969 21.1875
Q45.7969 27.6406 41.2812 31.2656
Q36.7656 34.9062 28.7188 34.9062
L20.2188 34.9062
L20.2188 43.0156
L29.1094 43.0156
Q36.375 43.0156 40.2344 45.9219
Q44.0938 48.8281 44.0938 54.2969
Q44.0938 59.9062 40.1094 62.9062
Q36.1406 65.9219 28.7188 65.9219
Q24.6562 65.9219 20.0156 65.0312
Q15.375 64.1562 9.8125 62.3125
L9.8125 71.0938
Q15.4375 72.6562 20.3438 73.4375
Q25.25 74.2188 29.5938 74.2188
Q40.8281 74.2188 47.3594 69.1094
Q53.9062 64.0156 53.9062 55.3281
Q53.9062 49.2656 50.4375 45.0938
Q46.9688 40.9219 40.5781 39.3125" id="BitstreamVeraSans-Roman-33"/>
       <path d="
M31.7812 66.4062
Q24.1719 66.4062 20.3281 58.9062
Q16.5 51.4219 16.5 36.375
Q16.5 21.3906 20.3281 13.8906
Q24.1719 6.39062 31.7812 6.39062
Q39.4531 6.39062 43.2812 13.8906
Q47.125 21.3906 47.125 36.375
Q47.125 51.4219 43.2812 58.9062
Q39.4531 66.4062 31.7812 66.4062
M31.7812 74.2188
Q44.0469 74.2188 50.5156 64.5156
Q56.9844 54.8281 56.9844 36.375
Q56.9844 17.9688 50.5156 8.26562
Q44.0469 -1.42188 31.7812 -1.42188
Q19.5312 -1.42188 13.0625 8.26562
Q6.59375 17.9688 6.59375 36.375
Q6.59375 54.8281 13.0625 64.5156
Q19.5312 74.2188 31.7812 74.2188" id="BitstreamVeraSans-Roman-30"/>
      </defs>
      <g transform="translate(54.8398897059 206.938125)scale(0.12 -0.12)">
       <use xlink:href="#BitstreamVeraSans-Roman-32"/>
       <use x="63.623046875" xlink:href="#BitstreamVeraSans-Roman-33"/>
       <use x="127.24609375" xlink:href="#BitstreamVeraSans-Roman-30"/>
       <use x="190.869140625" xlink:href="#BitstreamVeraSans-Roman-30"/>
       <use x="254.4921875" xlink:href="#BitstreamVeraSans-Roman-30"/>
       <use x="318.115234375" xlink:href="#BitstreamVeraSans-Roman-30"/>
       <use x="381.73828125" xlink:href="#BitstreamVeraSans-Roman-30"/>
      </g>
     </g>
    </g>
    <g id="xtick_2">
     <g id="line2d_4">
      <g>
       <use style="stroke:#000000;stroke-width:0.5;" x="135.915294118" xlink:href="#m93b0483c22" y="193.82"/>
      </g>
     </g>
     <g id="line2d_5">
      <g>
       <use style="stroke:#000000;stroke-width:0.5;" x="135.915294118" xlink:href="#m741efc42ff" y="18.81"/>
      </g>
     </g>
     <g id="text_2">
      <!-- 2400000 -->
      <defs>
       <path d="
M37.7969 64.3125
L12.8906 25.3906
L37.7969 25.3906
z

M35.2031 72.9062
L47.6094 72.9062
L47.6094 25.3906
L58.0156 25.3906
L58.0156 17.1875
L47.6094 17.1875
L47.6094 0
L37.7969 0
L37.7969 17.1875
L4.89062 17.1875
L4.89062 26.7031
z
" id="BitstreamVeraSans-Roman-34"/>
      </defs>
      <g transform="translate(110.030919118 206.938125)scale(0.12 -0.12)">
       <use xlink:href="#BitstreamVeraSans-Roman-32"/>
       <use x="63.623046875" xlink:href="#BitstreamVeraSans-Roman-34"/>
       <use x="127.24609375" xlink:href="#BitstreamVeraSans-Roman-30"/>
       <use x="190.869140625" xlink:href="#BitstreamVeraSans-Roman-30"/>
       <use x="254.4921875" xlink:href="#BitstreamVeraSans-Roman-30"/>
       <use x="318.115234375" xlink:href="#BitstreamVeraSans-Roman-30"/>
       <use x="381.73828125" xlink:href="#BitstreamVeraSans-Roman-30"/>
      </g>
     </g>
    </g>
    <g id="xtick_3">
     <g id="line2d_6">
      <g>
       <use style="stroke:#000000;stroke-width:0.5;" x="191.106323529" xlink:href="#m93b0483c22" y="193.82"/>
      </g>
     </g>
     <g id="line2d_7">
      <g>
       <use style="stroke:#000000;stroke-width:0.5;" x="191.106323529" xlink:href="#m741efc42ff" y="18.81"/>
      </g>
     </g>
     <g id="text_3">
      <!-- 2500000 -->
      <defs>
       <path d="
M10.7969 72.9062
L49.5156 72.9062
L49.5156 64.5938
L19.8281 64.5938
L19.8281 46.7344
Q21.9688 47.4688 24.1094 47.8281
Q26.2656 48.1875 28.4219 48.1875
Q40.625 48.1875 47.75 41.5
Q54.8906 34.8125 54.8906 23.3906
Q54.8906 11.625 47.5625 5.09375
Q40.2344 -1.42188 26.9062 -1.42188
Q22.3125 -1.42188 17.5469 -0.640625
Q12.7969 0.140625 7.71875 1.70312
L7.71875 11.625
Q12.1094 9.23438 16.7969 8.0625
Q21.4844 6.89062 26.7031 6.89062
Q35.1562 6.89062 40.0781 11.3281
Q45.0156 15.7656 45.0156 23.3906
Q45.0156 31 40.0781 35.4375
Q35.1562 39.8906 26.7031 39.8906
Q22.75 39.8906 18.8125 39.0156
Q14.8906 38.1406 10.7969 36.2812
z
" id="BitstreamVeraSans-Roman-35"/>
      </defs>
      <g transform="translate(165.221948529 206.938125)scale(0.12 -0.12)">
       <use xlink:href="#BitstreamVeraSans-Roman-32"/>
       <use x="63.623046875" xlink:href="#BitstreamVeraSans-Roman-35"/>
       <use x="127.24609375" xlink:href="#BitstreamVeraSans-Roman-30"/>
       <use x="190.869140625" xlink:href="#BitstreamVeraSans-Roman-30"/>
       <use x="254.4921875" xlink:href="#BitstreamVeraSans-Roman-30"/>
       <use x="318.115234375" xlink:href="#BitstreamVeraSans-Roman-30"/>
       <use x="381.73828125" xlink:href="#BitstreamVeraSans-Roman-30"/>
      </g>
     </g>
    </g>
    <g id="xtick_4">
     <g id="line2d_8">
      <g>
       <use style="stroke:#000000;stroke-width:0.5;" x="246.297352941" xlink:href="#m93b0483c22" y="193.82"/>
      </g>
     </g>
     <g id="line2d_9">
      <g>
       <use style="stroke:#000000;stroke-width:0.5;" x="246.297352941" xlink:href="#m741efc42ff" y="18.81"/>
      </g>
     </g>
     <g id="text_4">
      <!-- 2600000 -->
      <defs>
       <path d="
M33.0156 40.375
Q26.375 40.375 22.4844 35.8281
Q18.6094 31.2969 18.6094 23.3906
Q18.6094 15.5312 22.4844 10.9531
Q26.375 6.39062 33.0156 6.39062
Q39.6562 6.39062 43.5312 10.9531
Q47.4062 15.5312 47.4062 23.3906
Q47.4062 31.2969 43.5312 35.8281
Q39.6562 40.375 33.0156 40.375
M52.5938 71.2969
L52.5938 62.3125
Q48.875 64.0625 45.0938 64.9844
Q41.3125 65.9219 37.5938 65.9219
Q27.8281 65.9219 22.6719 59.3281
Q17.5312 52.7344 16.7969 39.4062
Q19.6719 43.6562 24.0156 45.9219
Q28.375 48.1875 33.5938 48.1875
Q44.5781 48.1875 50.9531 41.5156
Q57.3281 34.8594 57.3281 23.3906
Q57.3281 12.1562 50.6875 5.35938
Q44.0469 -1.42188 33.0156 -1.42188
Q20.3594 -1.42188 13.6719 8.26562
Q6.98438 17.9688 6.98438 36.375
Q6.98438 53.6562 15.1875 63.9375
Q23.3906 74.2188 37.2031 74.2188
Q40.9219 74.2188 44.7031 73.4844
Q48.4844 72.75 52.5938 71.2969" id="BitstreamVeraSans-Roman-36"/>
      </defs>
      <g transform="translate(220.412977941 206.938125)scale(0.12 -0.12)">
       <use xlink:href="#BitstreamVeraSans-Roman-32"/>
       <use x="63.623046875" xlink:href="#BitstreamVeraSans-Roman-36"/>
       <use x="127.24609375" xlink:href="#BitstreamVeraSans-Roman-30"/>
       <use x="190.869140625" xlink:href="#BitstreamVeraSans-Roman-30"/>
       <use x="254.4921875" xlink:href="#BitstreamVeraSans-Roman-30"/>
       <use x="318.115234375" xlink:href="#BitstreamVeraSans-Roman-30"/>
       <use x="381.73828125" xlink:href="#BitstreamVeraSans-Roman-30"/>
      </g>
     </g>
    </g>
    <g id="xtick_5">
     <g id="line2d_10">
      <g>
       <use style="stroke:#000000;stroke-width:0.5;" x="301.488382353" xlink:href="#m93b0483c22" y="193.82"/>
      </g>
     </g>
     <g id="line2d_11">
      <g>
       <use style="stroke:#000000;stroke-width:0.5;" x="301.488382353" xlink:href="#m741efc42ff" y="18.81"/>
      </g>
     </g>
     <g id="text_5">
      <!-- 2700000 -->
      <defs>
       <path d="
M8.20312 72.9062
L55.0781 72.9062
L55.0781 68.7031
L28.6094 0
L18.3125 0
L43.2188 64.5938
L8.20312 64.5938
z
" id="BitstreamVeraSans-Roman-37"/>
      </defs>
      <g transform="translate(275.604007353 206.938125)scale(0.12 -0.12)">
       <use xlink:href="#BitstreamVeraSans-Roman-32"/>
       <use x="63.623046875" xlink:href="#BitstreamVeraSans-Roman-37"/>
       <use x="127.24609375" xlink:href="#BitstreamVeraSans-Roman-30"/>
       <use x="190.869140625" xlink:href="#BitstreamVeraSans-Roman-30"/>
       <use x="254.4921875" xlink:href="#BitstreamVeraSans-Roman-30"/>
       <use x="318.115234375" xlink:href="#BitstreamVeraSans-Roman-30"/>
       <use x="381.73828125" xlink:href="#BitstreamVeraSans-Roman-30"/>
      </g>
     </g>
    </g>
    <g id="xtick_6">
     <g id="line2d_12">
      <g>
       <use style="stroke:#000000;stroke-width:0.5;" x="356.679411765" xlink:href="#m93b0483c22" y="193.82"/>
      </g>
     </g>
     <g id="line2d_13">
      <g>
       <use style="stroke:#000000;stroke-width:0.5;" x="356.679411765" xlink:href="#m741efc42ff" y="18.81"/>
      </g>
     </g>
     <g id="text_6">
      <!-- 2800000 -->
      <defs>
       <path d="
M31.7812 34.625
Q24.75 34.625 20.7188 30.8594
Q16.7031 27.0938 16.7031 20.5156
Q16.7031 13.9219 20.7188 10.1562
Q24.75 6.39062 31.7812 6.39062
Q38.8125 6.39062 42.8594 10.1719
Q46.9219 13.9688 46.9219 20.5156
Q46.9219 27.0938 42.8906 30.8594
Q38.875 34.625 31.7812 34.625
M21.9219 38.8125
Q15.5781 40.375 12.0312 44.7188
Q8.5 49.0781 8.5 55.3281
Q8.5 64.0625 14.7188 69.1406
Q20.9531 74.2188 31.7812 74.2188
Q42.6719 74.2188 48.875 69.1406
Q55.0781 64.0625 55.0781 55.3281
Q55.0781 49.0781 51.5312 44.7188
Q48 40.375 41.7031 38.8125
Q48.8281 37.1562 52.7969 32.3125
Q56.7812 27.4844 56.7812 20.5156
Q56.7812 9.90625 50.3125 4.23438
Q43.8438 -1.42188 31.7812 -1.42188
Q19.7344 -1.42188 13.25 4.23438
Q6.78125 9.90625 6.78125 20.5156
Q6.78125 27.4844 10.7812 32.3125
Q14.7969 37.1562 21.9219 38.8125
M18.3125 54.3906
Q18.3125 48.7344 21.8438 45.5625
Q25.3906 42.3906 31.7812 42.3906
Q38.1406 42.3906 41.7188 45.5625
Q45.3125 48.7344 45.3125 54.3906
Q45.3125 60.0625 41.7188 63.2344
Q38.1406 66.4062 31.7812 66.4062
Q25.3906 66.4062 21.8438 63.2344
Q18.3125 60.0625 18.3125 54.3906" id="BitstreamVeraSans-Roman-38"/>
      </defs>
      <g transform="translate(330.795036765 206.938125)scale(0.12 -0.12)">
       <use xlink:href="#BitstreamVeraSans-Roman-32"/>
       <use x="63.623046875" xlink:href="#BitstreamVeraSans-Roman-38"/>
       <use x="127.24609375" xlink:href="#BitstreamVeraSans-Roman-30"/>
       <use x="190.869140625" xlink:href="#BitstreamVeraSans-Roman-30"/>
       <use x="254.4921875" xlink:href="#BitstreamVeraSans-Roman-30"/>
       <use x="318.115234375" xlink:href="#BitstreamVeraSans-Roman-30"/>
       <use x="381.73828125" xlink:href="#BitstreamVeraSans-Roman-30"/>
      </g>
     </g>
    </g>
    <g id="xtick_7">
     <g id="line2d_14">
      <g>
       <use style="stroke:#000000;stroke-width:0.5;" x="411.870441176" xlink:href="#m93b0483c22" y="193.82"/>
      </g>
     </g>
     <g id="line2d_15">
      <g>
       <use style="stroke:#000000;stroke-width:0.5;" x="411.870441176" xlink:href="#m741efc42ff" y="18.81"/>
      </g>
     </g>
     <g id="text_7">
      <!-- 2900000 -->
      <defs>
       <path d="
M10.9844 1.51562
L10.9844 10.5
Q14.7031 8.73438 18.5 7.8125
Q22.3125 6.89062 25.9844 6.89062
Q35.75 6.89062 40.8906 13.4531
Q46.0469 20.0156 46.7812 33.4062
Q43.9531 29.2031 39.5938 26.9531
Q35.25 24.7031 29.9844 24.7031
Q19.0469 24.7031 12.6719 31.3125
Q6.29688 37.9375 6.29688 49.4219
Q6.29688 60.6406 12.9375 67.4219
Q19.5781 74.2188 30.6094 74.2188
Q43.2656 74.2188 49.9219 64.5156
Q56.5938 54.8281 56.5938 36.375
Q56.5938 19.1406 48.4062 8.85938
Q40.2344 -1.42188 26.4219 -1.42188
Q22.7031 -1.42188 18.8906 -0.6875
Q15.0938 0.046875 10.9844 1.51562
M30.6094 32.4219
Q37.25 32.4219 41.125 36.9531
Q45.0156 41.5 45.0156 49.4219
Q45.0156 57.2812 41.125 61.8438
Q37.25 66.4062 30.6094 66.4062
Q23.9688 66.4062 20.0938 61.8438
Q16.2188 57.2812 16.2188 49.4219
Q16.2188 41.5 20.0938 36.9531
Q23.9688 32.4219 30.6094 32.4219" id="BitstreamVeraSans-Roman-39"/>
      </defs>
      <g transform="translate(385.986066176 206.938125)scale(0.12 -0.12)">
       <use xlink:href="#BitstreamVeraSans-Roman-32"/>
       <use x="63.623046875" xlink:href="#BitstreamVeraSans-Roman-39"/>
       <use x="127.24609375" xlink:href="#BitstreamVeraSans-Roman-30"/>
       <use x="190.869140625" xlink:href="#BitstreamVeraSans-Roman-30"/>
       <use x="254.4921875" xlink:href="#BitstreamVeraSans-Roman-30"/>
       <use x="318.115234375" xlink:href="#BitstreamVeraSans-Roman-30"/>
       <use x="381.73828125" xlink:href="#BitstreamVeraSans-Roman-30"/>
      </g>
     </g>
    </g>
    <g id="xtick_8">
     <g id="line2d_16">
      <g>
       <use style="stroke:#000000;stroke-width:0.5;" x="467.061470588" xlink:href="#m93b0483c22" y="193.82"/>
      </g>
     </g>
     <g id="line2d_17">
      <g>
       <use style="stroke:#000000;stroke-width:0.5;" x="467.061470588" xlink:href="#m741efc42ff" y="18.81"/>
      </g>
     </g>
     <g id="text_8">
      <!-- 3000000 -->
      <g transform="translate(441.194908088 206.938125)scale(0.12 -0.12)">
       <use xlink:href="#BitstreamVeraSans-Roman-33"/>
       <use x="63.623046875" xlink:href="#BitstreamVeraSans-Roman-30"/>
       <use x="127.24609375" xlink:href="#BitstreamVeraSans-Roman-30"/>
       <use x="190.869140625" xlink:href="#BitstreamVeraSans-Roman-30"/>
       <use x="254.4921875" xlink:href="#BitstreamVeraSans-Roman-30"/>
       <use x="318.115234375" xlink:href="#BitstreamVeraSans-Roman-30"/>
       <use x="381.73828125" xlink:href="#BitstreamVeraSans-Roman-30"/>
      </g>
     </g>
    </g>
    <g id="xtick_9">
     <g id="line2d_18">
      <g>
       <use style="stroke:#000000;stroke-width:0.5;" x="522.2525" xlink:href="#m93b0483c22" y="193.82"/>
      </g>
     </g>
     <g id="line2d_19">
      <g>
       <use style="stroke:#000000;stroke-width:0.5;" x="522.2525" xlink:href="#m741efc42ff" y="18.81"/>
      </g>
     </g>
     <g id="text_9">
      <!-- 3100000 -->
      <defs>
       <path d="
M12.4062 8.29688
L28.5156 8.29688
L28.5156 63.9219
L10.9844 60.4062
L10.9844 69.3906
L28.4219 72.9062
L38.2812 72.9062
L38.2812 8.29688
L54.3906 8.29688
L54.3906 0
L12.4062 0
z
" id="BitstreamVeraSans-Roman-31"/>
      </defs>
      <g transform="translate(496.3859375 206.938125)scale(0.12 -0.12)">
       <use xlink:href="#BitstreamVeraSans-Roman-33"/>
       <use x="63.623046875" xlink:href="#BitstreamVeraSans-Roman-31"/>
       <use x="127.24609375" xlink:href="#BitstreamVeraSans-Roman-30"/>
       <use x="190.869140625" xlink:href="#BitstreamVeraSans-Roman-30"/>
       <use x="254.4921875" xlink:href="#BitstreamVeraSans-Roman-30"/>
       <use x="318.115234375" xlink:href="#BitstreamVeraSans-Roman-30"/>
       <use x="381.73828125" xlink:href="#BitstreamVeraSans-Roman-30"/>
      </g>
     </g>
    </g>
   </g>
   <g id="matplotlib.axis_2">
    <g id="ytick_1">
     <g id="line2d_20">
      <defs>
       <path d="
M0 0
L4 0" id="m728421d6d4" style="stroke:#000000;stroke-width:0.5;"/>
      </defs>
      <g>
       <use style="stroke:#000000;stroke-width:0.5;" x="53.12875" xlink:href="#m728421d6d4" y="193.82"/>
      </g>
     </g>
     <g id="text_10">
      <!-- 0 -->
      <g transform="translate(43.081875 197.13125)scale(0.12 -0.12)">
       <use xlink:href="#BitstreamVeraSans-Roman-30"/>
      </g>
     </g>
    </g>
    <g id="ytick_2">
     <g id="line2d_21">
      <g>
       <use style="stroke:#000000;stroke-width:0.5;" x="53.12875" xlink:href="#m728421d6d4" y="164.651666667"/>
      </g>
     </g>
     <g id="text_11">
      <!-- 200 -->
      <g transform="translate(27.9 167.962916667)scale(0.12 -0.12)">
       <use xlink:href="#BitstreamVeraSans-Roman-32"/>
       <use x="63.623046875" xlink:href="#BitstreamVeraSans-Roman-30"/>
       <use x="127.24609375" xlink:href="#BitstreamVeraSans-Roman-30"/>
      </g>
     </g>
    </g>
    <g id="ytick_3">
     <g id="line2d_22">
      <g>
       <use style="stroke:#000000;stroke-width:0.5;" x="53.12875" xlink:href="#m728421d6d4" y="135.483333333"/>
      </g>
     </g>
     <g id="text_12">
      <!-- 400 -->
      <g transform="translate(27.6075 138.794583333)scale(0.12 -0.12)">
       <use xlink:href="#BitstreamVeraSans-Roman-34"/>
       <use x="63.623046875" xlink:href="#BitstreamVeraSans-Roman-30"/>
       <use x="127.24609375" xlink:href="#BitstreamVeraSans-Roman-30"/>
      </g>
     </g>
    </g>
    <g id="ytick_4">
     <g id="line2d_23">
      <g>
       <use style="stroke:#000000;stroke-width:0.5;" x="53.12875" xlink:href="#m728421d6d4" y="106.315"/>
      </g>
     </g>
     <g id="text_13">
      <!-- 600 -->
      <g transform="translate(27.85875 109.62625)scale(0.12 -0.12)">
       <use xlink:href="#BitstreamVeraSans-Roman-36"/>
       <use x="63.623046875" xlink:href="#BitstreamVeraSans-Roman-30"/>
       <use x="127.24609375" xlink:href="#BitstreamVeraSans-Roman-30"/>
      </g>
     </g>
    </g>
    <g id="ytick_5">
     <g id="line2d_24">
      <g>
       <use style="stroke:#000000;stroke-width:0.5;" x="53.12875" xlink:href="#m728421d6d4" y="77.1466666667"/>
      </g>
     </g>
     <g id="text_14">
      <!-- 800 -->
      <g transform="translate(27.834375 80.4579166667)scale(0.12 -0.12)">
       <use xlink:href="#BitstreamVeraSans-Roman-38"/>
       <use x="63.623046875" xlink:href="#BitstreamVeraSans-Roman-30"/>
       <use x="127.24609375" xlink:href="#BitstreamVeraSans-Roman-30"/>
      </g>
     </g>
    </g>
    <g id="ytick_6">
     <g id="line2d_25">
      <g>
       <use style="stroke:#000000;stroke-width:0.5;" x="53.12875" xlink:href="#m728421d6d4" y="47.9783333333"/>
      </g>
     </g>
     <g id="text_15">
      <!-- 1000 -->
      <g transform="translate(20.70375 51.2895833333)scale(0.12 -0.12)">
       <use xlink:href="#BitstreamVeraSans-Roman-31"/>
       <use x="63.623046875" xlink:href="#BitstreamVeraSans-Roman-30"/>
       <use x="127.24609375" xlink:href="#BitstreamVeraSans-Roman-30"/>
       <use x="190.869140625" xlink:href="#BitstreamVeraSans-Roman-30"/>
      </g>
     </g>
    </g>
    <g id="ytick_7">
     <g id="line2d_26">
      <g>
       <use style="stroke:#000000;stroke-width:0.5;" x="53.12875" xlink:href="#m728421d6d4" y="18.81"/>
      </g>
     </g>
     <g id="text_16">
      <!-- 1200 -->
      <g transform="translate(20.70375 22.12125)scale(0.12 -0.12)">
       <use xlink:href="#BitstreamVeraSans-Roman-31"/>
       <use x="63.623046875" xlink:href="#BitstreamVeraSans-Roman-32"/>
       <use x="127.24609375" xlink:href="#BitstreamVeraSans-Roman-30"/>
       <use x="190.869140625" xlink:href="#BitstreamVeraSans-Roman-30"/>
      </g>
     </g>
    </g>
   </g>
   <g id="legend_1">
    <g id="patch_7">
     <path d="
M60.3288 51.4665
L208.642 51.4665
L208.642 26.01
L60.3288 26.01
z
" style="fill:#ffffff;stroke:#000000;stroke-linejoin:miter;"/>
    </g>
    <g id="line2d_27">
     <path d="
M70.4087 37.6717
L90.5687 37.6717" style="fill:none;stroke:#0000ff;stroke-linecap:square;"/>
    </g>
    <g id="line2d_28"/>
    <g id="text_17">
     <!-- wea.wbus.dni -->
     <defs>
      <path d="
M54.8906 33.0156
L54.8906 0
L45.9062 0
L45.9062 32.7188
Q45.9062 40.4844 42.875 44.3281
Q39.8438 48.1875 33.7969 48.1875
Q26.5156 48.1875 22.3125 43.5469
Q18.1094 38.9219 18.1094 30.9062
L18.1094 0
L9.07812 0
L9.07812 54.6875
L18.1094 54.6875
L18.1094 46.1875
Q21.3438 51.125 25.7031 53.5625
Q30.0781 56 35.7969 56
Q45.2188 56 50.0469 50.1719
Q54.8906 44.3438 54.8906 33.0156" id="BitstreamVeraSans-Roman-6e"/>
      <path d="
M9.42188 54.6875
L18.4062 54.6875
L18.4062 0
L9.42188 0
z

M9.42188 75.9844
L18.4062 75.9844
L18.4062 64.5938
L9.42188 64.5938
z
" id="BitstreamVeraSans-Roman-69"/>
      <path d="
M10.6875 12.4062
L21 12.4062
L21 0
L10.6875 0
z
" id="BitstreamVeraSans-Roman-2e"/>
      <path d="
M45.4062 46.3906
L45.4062 75.9844
L54.3906 75.9844
L54.3906 0
L45.4062 0
L45.4062 8.20312
Q42.5781 3.32812 38.25 0.953125
Q33.9375 -1.42188 27.875 -1.42188
Q17.9688 -1.42188 11.7344 6.48438
Q5.51562 14.4062 5.51562 27.2969
Q5.51562 40.1875 11.7344 48.0938
Q17.9688 56 27.875 56
Q33.9375 56 38.25 53.625
Q42.5781 51.2656 45.4062 46.3906
M14.7969 27.2969
Q14.7969 17.3906 18.875 11.75
Q22.9531 6.10938 30.0781 6.10938
Q37.2031 6.10938 41.2969 11.75
Q45.4062 17.3906 45.4062 27.2969
Q45.4062 37.2031 41.2969 42.8438
Q37.2031 48.4844 30.0781 48.4844
Q22.9531 48.4844 18.875 42.8438
Q14.7969 37.2031 14.7969 27.2969" id="BitstreamVeraSans-Roman-64"/>
      <path d="
M56.2031 29.5938
L56.2031 25.2031
L14.8906 25.2031
Q15.4844 15.9219 20.4844 11.0625
Q25.4844 6.20312 34.4219 6.20312
Q39.5938 6.20312 44.4531 7.46875
Q49.3125 8.73438 54.1094 11.2812
L54.1094 2.78125
Q49.2656 0.734375 44.1875 -0.34375
Q39.1094 -1.42188 33.8906 -1.42188
Q20.7969 -1.42188 13.1562 6.1875
Q5.51562 13.8125 5.51562 26.8125
Q5.51562 40.2344 12.7656 48.1094
Q20.0156 56 32.3281 56
Q43.3594 56 49.7812 48.8906
Q56.2031 41.7969 56.2031 29.5938
M47.2188 32.2344
Q47.125 39.5938 43.0938 43.9844
Q39.0625 48.3906 32.4219 48.3906
Q24.9062 48.3906 20.3906 44.1406
Q15.875 39.8906 15.1875 32.1719
z
" id="BitstreamVeraSans-Roman-65"/>
      <path d="
M4.20312 54.6875
L13.1875 54.6875
L24.4219 12.0156
L35.5938 54.6875
L46.1875 54.6875
L57.4219 12.0156
L68.6094 54.6875
L77.5938 54.6875
L63.2812 0
L52.6875 0
L40.9219 44.8281
L29.1094 0
L18.5 0
z
" id="BitstreamVeraSans-Roman-77"/>
      <path d="
M8.5 21.5781
L8.5 54.6875
L17.4844 54.6875
L17.4844 21.9219
Q17.4844 14.1562 20.5 10.2656
Q23.5312 6.39062 29.5938 6.39062
Q36.8594 6.39062 41.0781 11.0312
Q45.3125 15.6719 45.3125 23.6875
L45.3125 54.6875
L54.2969 54.6875
L54.2969 0
L45.3125 0
L45.3125 8.40625
Q42.0469 3.42188 37.7188 1
Q33.4062 -1.42188 27.6875 -1.42188
Q18.2656 -1.42188 13.375 4.4375
Q8.5 10.2969 8.5 21.5781" id="BitstreamVeraSans-Roman-75"/>
      <path d="
M34.2812 27.4844
Q23.3906 27.4844 19.1875 25
Q14.9844 22.5156 14.9844 16.5
Q14.9844 11.7188 18.1406 8.90625
Q21.2969 6.10938 26.7031 6.10938
Q34.1875 6.10938 38.7031 11.4062
Q43.2188 16.7031 43.2188 25.4844
L43.2188 27.4844
z

M52.2031 31.2031
L52.2031 0
L43.2188 0
L43.2188 8.29688
Q40.1406 3.32812 35.5469 0.953125
Q30.9531 -1.42188 24.3125 -1.42188
Q15.9219 -1.42188 10.9531 3.29688
Q6 8.01562 6 15.9219
Q6 25.1406 12.1719 29.8281
Q18.3594 34.5156 30.6094 34.5156
L43.2188 34.5156
L43.2188 35.4062
Q43.2188 41.6094 39.1406 45
Q35.0625 48.3906 27.6875 48.3906
Q23 48.3906 18.5469 47.2656
Q14.1094 46.1406 10.0156 43.8906
L10.0156 52.2031
Q14.9375 54.1094 19.5781 55.0469
Q24.2188 56 28.6094 56
Q40.4844 56 46.3438 49.8438
Q52.2031 43.7031 52.2031 31.2031" id="BitstreamVeraSans-Roman-61"/>
      <path d="
M44.2812 53.0781
L44.2812 44.5781
Q40.4844 46.5312 36.375 47.5
Q32.2812 48.4844 27.875 48.4844
Q21.1875 48.4844 17.8438 46.4375
Q14.5 44.3906 14.5 40.2812
Q14.5 37.1562 16.8906 35.375
Q19.2812 33.5938 26.5156 31.9844
L29.5938 31.2969
Q39.1562 29.25 43.1875 25.5156
Q47.2188 21.7812 47.2188 15.0938
Q47.2188 7.46875 41.1875 3.01562
Q35.1562 -1.42188 24.6094 -1.42188
Q20.2188 -1.42188 15.4531 -0.5625
Q10.6875 0.296875 5.42188 2
L5.42188 11.2812
Q10.4062 8.6875 15.2344 7.39062
Q20.0625 6.10938 24.8125 6.10938
Q31.1562 6.10938 34.5625 8.28125
Q37.9844 10.4531 37.9844 14.4062
Q37.9844 18.0625 35.5156 20.0156
Q33.0625 21.9688 24.7031 23.7812
L21.5781 24.5156
Q13.2344 26.2656 9.51562 29.9062
Q5.8125 33.5469 5.8125 39.8906
Q5.8125 47.6094 11.2812 51.7969
Q16.75 56 26.8125 56
Q31.7812 56 36.1719 55.2656
Q40.5781 54.5469 44.2812 53.0781" id="BitstreamVeraSans-Roman-73"/>
      <path d="
M48.6875 27.2969
Q48.6875 37.2031 44.6094 42.8438
Q40.5312 48.4844 33.4062 48.4844
Q26.2656 48.4844 22.1875 42.8438
Q18.1094 37.2031 18.1094 27.2969
Q18.1094 17.3906 22.1875 11.75
Q26.2656 6.10938 33.4062 6.10938
Q40.5312 6.10938 44.6094 11.75
Q48.6875 17.3906 48.6875 27.2969
M18.1094 46.3906
Q20.9531 51.2656 25.2656 53.625
Q29.5938 56 35.5938 56
Q45.5625 56 51.7812 48.0938
Q58.0156 40.1875 58.0156 27.2969
Q58.0156 14.4062 51.7812 6.48438
Q45.5625 -1.42188 35.5938 -1.42188
Q29.5938 -1.42188 25.2656 0.953125
Q20.9531 3.32812 18.1094 8.20312
L18.1094 0
L9.07812 0
L9.07812 75.9844
L18.1094 75.9844
z
" id="BitstreamVeraSans-Roman-62"/>
     </defs>
     <g transform="translate(106.40875 42.71175)scale(0.144 -0.144)">
      <use xlink:href="#BitstreamVeraSans-Roman-77"/>
      <use x="81.787109375" xlink:href="#BitstreamVeraSans-Roman-65"/>
      <use x="143.310546875" xlink:href="#BitstreamVeraSans-Roman-61"/>
      <use x="204.58984375" xlink:href="#BitstreamVeraSans-Roman-2e"/>
      <use x="236.376953125" xlink:href="#BitstreamVeraSans-Roman-77"/>
      <use x="318.1640625" xlink:href="#BitstreamVeraSans-Roman-62"/>
      <use x="381.640625" xlink:href="#BitstreamVeraSans-Roman-75"/>
      <use x="445.01953125" xlink:href="#BitstreamVeraSans-Roman-73"/>
      <use x="497.119140625" xlink:href="#BitstreamVeraSans-Roman-2e"/>
      <use x="528.90625" xlink:href="#BitstreamVeraSans-Roman-64"/>
      <use x="592.3828125" xlink:href="#BitstreamVeraSans-Roman-6e"/>
      <use x="655.76171875" xlink:href="#BitstreamVeraSans-Roman-69"/>
     </g>
    </g>
   </g>
  </g>
  <g id="axes_2">
   <g id="line2d_29">
    <path clip-path="url(#pc469e2d746)" d="
M52.9632 193.82
L64.8403 193.82
L64.8844 39.9971
L65.3812 39.4136
L66.8713 37.0274
L68.0303 35.3848
L68.0303 35.3848
L69.0238 34.3264
L69.0238 34.3264
L69.8516 33.7758
L70.6795 33.5598
L72.0041 33.5436
L72.0041 33.5436
L73.3287 33.6898
L73.8254 33.9479
L74.3221 34.4572
L74.8188 35.0369
L75.4811 35.1865
L76.8057 36.966
L78.627 39.0716
L79.786 40.1803
L80.4483 40.5386
L82.7663 41.391
L83.2631 41.748
L86.0778 41.375
L87.0712 41.1714
L88.7979 40.6101
L88.7979 193.82
L88.8925 193.82
L113.175 193.82
L113.175 43.5121
L113.232 43.5734
L113.729 44.315
L114.621 44.6158
L114.621 193.82
L114.722 193.82
L116.692 193.82
L116.709 41.5601
L117.371 39.0608
L118.033 37.433
L118.53 36.6555
L119.027 36.2002
L119.689 35.9428
L119.689 35.9428
L120.351 35.9348
L121.179 36.1565
L123.332 37.1621
L123.994 37.6792
L124.656 38.5132
L125.153 39.1181
L127.802 39.1811
L129.602 39.304
L129.602 193.82
L129.624 193.82
L159.801 193.82
L159.801 39.3222
L160.255 38.6172
L162.738 33.9414
L163.566 33.0157
L164.394 32.4124
L164.394 32.4124
L165.222 32.0693
L166.05 31.9474
L166.877 32.0023
L167.705 32.3049
L169.361 33.0481
L170.354 33.0942
L170.354 33.0942
L171.348 33.1906
L171.348 33.1906
L172.507 33.3476
L174.659 33.5172
L177.64 34.1526
L178.964 35.2613
L179.627 35.839
L181.282 35.6485
L182.607 35.2436
L184.594 34.3281
L188.755 33.5061
L188.755 193.82
L207.443 193.82
L207.443 38.7017
L207.774 38.4069
L208.436 37.3336
L209.926 34.7889
L210.589 34.0423
L211.417 33.4897
L212.41 33.149
L213.403 33.0882
L216.549 33.2169
L217.874 33.5913
L219.199 33.8972
L220.854 34.1737
L223.007 34.8202
L223.503 34.9917
L225.821 36.5146
L227.312 37.5952
L228.802 37.4855
L229.961 37.1066
L231.285 36.4185
L232.444 35.9178
L235.59 34.6674
L236.623 34.3109
L236.623 193.82
L258.156 193.82
L258.156 45.7445
L258.156 45.7445
L258.936 46.4144
L259.598 47.4402
L260.095 48.0854
L260.261 48.0627
L260.426 47.8519
L260.757 46.8423
L262.248 40.446
L262.744 39.6145
L263.241 39.2695
L263.738 39.2767
L263.738 39.2767
L264.069 39.4529
L264.4 39.8173
L264.897 40.7976
L265.393 41.9364
L266.552 42.2287
L267.049 44.3843
L267.38 44.8378
L268.043 45.1262
L268.374 45.7538
L268.474 46.1459
L268.539 46.0034
L268.733 45.5722
L268.733 193.82
L303.153 193.82
L303.153 43.3367
L303.641 42.3078
L304.965 38.5781
L305.793 36.617
L306.456 35.4988
L307.118 34.7314
L307.946 34.1218
L308.939 33.7004
L309.767 33.5929
L310.76 33.7738
L314.734 34.7838
L316.224 35.149
L317.218 35.6681
L318.046 36.3122
L318.874 36.9879
L319.536 36.8589
L320.86 36.282
L323.675 35.0276
L324.669 35.0196
L325.662 34.9634
L328.477 34.5019
L329.033 34.3927
L329.033 193.82
L329.139 193.82
L351.822 193.82
L351.822 42.8704
L351.823 42.8715
L352.154 43.5023
L353.126 43.8143
L353.126 193.82
L353.147 193.82
L359.296 193.82
L359.296 45.2529
L360.101 44.0714
L360.101 44.0714
L360.764 43.4911
L361.426 43.2529
L362.088 43.2169
L362.088 43.2169
L362.75 43.4
L363.413 43.8738
L364.075 44.6615
L364.737 45.7929
L365.4 47.4033
L365.565 47.7413
L366.139 47.6549
L366.139 193.82
L366.227 193.82
L497.948 193.82
L498.024 39.4465
L498.686 36.6241
L499.348 34.7835
L499.845 33.9231
L500.342 33.4125
L500.838 33.1983
L501.335 33.2059
L502.163 33.4813
L505.64 34.7805
L506.799 34.9693
L508.289 34.9063
L509.614 34.9923
L510.607 35.3023
L511.766 35.9324
L512.925 36.8555
L513.256 37.0669
L514.747 36.7568
L518.224 35.7598
L520.376 35.241
L520.867 35.2586
L520.867 193.82
L520.873 193.82
L522.363 193.82
L522.363 193.82" style="fill:none;stroke:#008000;stroke-linecap:square;"/>
   </g>
   <g id="patch_8">
    <path d="
M53.1288 18.81
L522.252 18.81" style="fill:none;stroke:#000000;stroke-linecap:square;stroke-linejoin:miter;"/>
   </g>
   <g id="patch_9">
    <path d="
M522.252 193.82
L522.252 18.81" style="fill:none;stroke:#000000;stroke-linecap:square;stroke-linejoin:miter;"/>
   </g>
   <g id="patch_10">
    <path d="
M53.1288 193.82
L522.252 193.82" style="fill:none;stroke:#000000;stroke-linecap:square;stroke-linejoin:miter;"/>
   </g>
   <g id="patch_11">
    <path d="
M53.1287 193.82
L53.1287 18.81" style="fill:none;stroke:#000000;stroke-linecap:square;stroke-linejoin:miter;"/>
   </g>
   <g id="matplotlib.axis_3">
    <g id="ytick_8">
     <g id="line2d_30">
      <defs>
       <path d="
M0 0
L-4 0" id="mcb0005524f" style="stroke:#000000;stroke-width:0.5;"/>
      </defs>
      <g>
       <use style="stroke:#000000;stroke-width:0.5;" x="522.2525" xlink:href="#mcb0005524f" y="193.82"/>
      </g>
     </g>
     <g id="text_18">
      <!-- 0 -->
      <g transform="translate(526.2525 197.13125)scale(0.12 -0.12)">
       <use xlink:href="#BitstreamVeraSans-Roman-30"/>
      </g>
     </g>
    </g>
    <g id="ytick_9">
     <g id="line2d_31">
      <g>
       <use style="stroke:#000000;stroke-width:0.5;" x="522.2525" xlink:href="#mcb0005524f" y="171.94375"/>
      </g>
     </g>
     <g id="text_19">
      <!-- 10000 -->
      <g transform="translate(526.2525 175.255)scale(0.12 -0.12)">
       <use xlink:href="#BitstreamVeraSans-Roman-31"/>
       <use x="63.623046875" xlink:href="#BitstreamVeraSans-Roman-30"/>
       <use x="127.24609375" xlink:href="#BitstreamVeraSans-Roman-30"/>
       <use x="190.869140625" xlink:href="#BitstreamVeraSans-Roman-30"/>
       <use x="254.4921875" xlink:href="#BitstreamVeraSans-Roman-30"/>
      </g>
     </g>
    </g>
    <g id="ytick_10">
     <g id="line2d_32">
      <g>
       <use style="stroke:#000000;stroke-width:0.5;" x="522.2525" xlink:href="#mcb0005524f" y="150.0675"/>
      </g>
     </g>
     <g id="text_20">
      <!-- 20000 -->
      <g transform="translate(526.2525 153.37875)scale(0.12 -0.12)">
       <use xlink:href="#BitstreamVeraSans-Roman-32"/>
       <use x="63.623046875" xlink:href="#BitstreamVeraSans-Roman-30"/>
       <use x="127.24609375" xlink:href="#BitstreamVeraSans-Roman-30"/>
       <use x="190.869140625" xlink:href="#BitstreamVeraSans-Roman-30"/>
       <use x="254.4921875" xlink:href="#BitstreamVeraSans-Roman-30"/>
      </g>
     </g>
    </g>
    <g id="ytick_11">
     <g id="line2d_33">
      <g>
       <use style="stroke:#000000;stroke-width:0.5;" x="522.2525" xlink:href="#mcb0005524f" y="128.19125"/>
      </g>
     </g>
     <g id="text_21">
      <!-- 30000 -->
      <g transform="translate(526.2525 131.5025)scale(0.12 -0.12)">
       <use xlink:href="#BitstreamVeraSans-Roman-33"/>
       <use x="63.623046875" xlink:href="#BitstreamVeraSans-Roman-30"/>
       <use x="127.24609375" xlink:href="#BitstreamVeraSans-Roman-30"/>
       <use x="190.869140625" xlink:href="#BitstreamVeraSans-Roman-30"/>
       <use x="254.4921875" xlink:href="#BitstreamVeraSans-Roman-30"/>
      </g>
     </g>
    </g>
    <g id="ytick_12">
     <g id="line2d_34">
      <g>
       <use style="stroke:#000000;stroke-width:0.5;" x="522.2525" xlink:href="#mcb0005524f" y="106.315"/>
      </g>
     </g>
     <g id="text_22">
      <!-- 40000 -->
      <g transform="translate(526.2525 109.62625)scale(0.12 -0.12)">
       <use xlink:href="#BitstreamVeraSans-Roman-34"/>
       <use x="63.623046875" xlink:href="#BitstreamVeraSans-Roman-30"/>
       <use x="127.24609375" xlink:href="#BitstreamVeraSans-Roman-30"/>
       <use x="190.869140625" xlink:href="#BitstreamVeraSans-Roman-30"/>
       <use x="254.4921875" xlink:href="#BitstreamVeraSans-Roman-30"/>
      </g>
     </g>
    </g>
    <g id="ytick_13">
     <g id="line2d_35">
      <g>
       <use style="stroke:#000000;stroke-width:0.5;" x="522.2525" xlink:href="#mcb0005524f" y="84.43875"/>
      </g>
     </g>
     <g id="text_23">
      <!-- 50000 -->
      <g transform="translate(526.2525 87.75)scale(0.12 -0.12)">
       <use xlink:href="#BitstreamVeraSans-Roman-35"/>
       <use x="63.623046875" xlink:href="#BitstreamVeraSans-Roman-30"/>
       <use x="127.24609375" xlink:href="#BitstreamVeraSans-Roman-30"/>
       <use x="190.869140625" xlink:href="#BitstreamVeraSans-Roman-30"/>
       <use x="254.4921875" xlink:href="#BitstreamVeraSans-Roman-30"/>
      </g>
     </g>
    </g>
    <g id="ytick_14">
     <g id="line2d_36">
      <g>
       <use style="stroke:#000000;stroke-width:0.5;" x="522.2525" xlink:href="#mcb0005524f" y="62.5625"/>
      </g>
     </g>
     <g id="text_24">
      <!-- 60000 -->
      <g transform="translate(526.2525 65.87375)scale(0.12 -0.12)">
       <use xlink:href="#BitstreamVeraSans-Roman-36"/>
       <use x="63.623046875" xlink:href="#BitstreamVeraSans-Roman-30"/>
       <use x="127.24609375" xlink:href="#BitstreamVeraSans-Roman-30"/>
       <use x="190.869140625" xlink:href="#BitstreamVeraSans-Roman-30"/>
       <use x="254.4921875" xlink:href="#BitstreamVeraSans-Roman-30"/>
      </g>
     </g>
    </g>
    <g id="ytick_15">
     <g id="line2d_37">
      <g>
       <use style="stroke:#000000;stroke-width:0.5;" x="522.2525" xlink:href="#mcb0005524f" y="40.68625"/>
      </g>
     </g>
     <g id="text_25">
      <!-- 70000 -->
      <g transform="translate(526.2525 43.9975)scale(0.12 -0.12)">
       <use xlink:href="#BitstreamVeraSans-Roman-37"/>
       <use x="63.623046875" xlink:href="#BitstreamVeraSans-Roman-30"/>
       <use x="127.24609375" xlink:href="#BitstreamVeraSans-Roman-30"/>
       <use x="190.869140625" xlink:href="#BitstreamVeraSans-Roman-30"/>
       <use x="254.4921875" xlink:href="#BitstreamVeraSans-Roman-30"/>
      </g>
     </g>
    </g>
    <g id="ytick_16">
     <g id="line2d_38">
      <g>
       <use style="stroke:#000000;stroke-width:0.5;" x="522.2525" xlink:href="#mcb0005524f" y="18.81"/>
      </g>
     </g>
     <g id="text_26">
      <!-- 80000 -->
      <g transform="translate(526.2525 22.12125)scale(0.12 -0.12)">
       <use xlink:href="#BitstreamVeraSans-Roman-38"/>
       <use x="63.623046875" xlink:href="#BitstreamVeraSans-Roman-30"/>
       <use x="127.24609375" xlink:href="#BitstreamVeraSans-Roman-30"/>
       <use x="190.869140625" xlink:href="#BitstreamVeraSans-Roman-30"/>
       <use x="254.4921875" xlink:href="#BitstreamVeraSans-Roman-30"/>
      </g>
     </g>
    </g>
   </g>
   <g id="legend_2">
    <g id="patch_12">
     <path d="
M419.997 51.867
L515.052 51.867
L515.052 26.01
L419.997 26.01
z
" style="fill:#ffffff;stroke:#000000;stroke-linejoin:miter;"/>
    </g>
    <g id="line2d_39">
     <path d="
M430.077 37.6717
L450.237 37.6717" style="fill:none;stroke:#008000;stroke-linecap:square;"/>
    </g>
    <g id="line2d_40"/>
    <g id="text_27">
     <!-- P_elec -->
     <defs>
      <path d="
M19.6719 64.7969
L19.6719 37.4062
L32.0781 37.4062
Q38.9688 37.4062 42.7188 40.9688
Q46.4844 44.5312 46.4844 51.125
Q46.4844 57.6719 42.7188 61.2344
Q38.9688 64.7969 32.0781 64.7969
z

M9.8125 72.9062
L32.0781 72.9062
Q44.3438 72.9062 50.6094 67.3594
Q56.8906 61.8125 56.8906 51.125
Q56.8906 40.3281 50.6094 34.8125
Q44.3438 29.2969 32.0781 29.2969
L19.6719 29.2969
L19.6719 0
L9.8125 0
z
" id="BitstreamVeraSans-Roman-50"/>
      <path d="
M48.7812 52.5938
L48.7812 44.1875
Q44.9688 46.2969 41.1406 47.3438
Q37.3125 48.3906 33.4062 48.3906
Q24.6562 48.3906 19.8125 42.8438
Q14.9844 37.3125 14.9844 27.2969
Q14.9844 17.2812 19.8125 11.7344
Q24.6562 6.20312 33.4062 6.20312
Q37.3125 6.20312 41.1406 7.25
Q44.9688 8.29688 48.7812 10.4062
L48.7812 2.09375
Q45.0156 0.34375 40.9844 -0.53125
Q36.9688 -1.42188 32.4219 -1.42188
Q20.0625 -1.42188 12.7812 6.34375
Q5.51562 14.1094 5.51562 27.2969
Q5.51562 40.6719 12.8594 48.3281
Q20.2188 56 33.0156 56
Q37.1562 56 41.1094 55.1406
Q45.0625 54.2969 48.7812 52.5938" id="BitstreamVeraSans-Roman-63"/>
      <path d="
M9.42188 75.9844
L18.4062 75.9844
L18.4062 0
L9.42188 0
z
" id="BitstreamVeraSans-Roman-6c"/>
      <path d="
M50.9844 -16.6094
L50.9844 -23.5781
L-0.984375 -23.5781
L-0.984375 -16.6094
z
" id="BitstreamVeraSans-Roman-5f"/>
     </defs>
     <g transform="translate(466.07675 42.71175)scale(0.144 -0.144)">
      <use xlink:href="#BitstreamVeraSans-Roman-50"/>
      <use x="60.302734375" xlink:href="#BitstreamVeraSans-Roman-5f"/>
      <use x="110.302734375" xlink:href="#BitstreamVeraSans-Roman-65"/>
      <use x="171.826171875" xlink:href="#BitstreamVeraSans-Roman-6c"/>
      <use x="199.609375" xlink:href="#BitstreamVeraSans-Roman-65"/>
      <use x="261.1328125" xlink:href="#BitstreamVeraSans-Roman-63"/>
     </g>
    </g>
   </g>
  </g>
  <g id="axes_3">
   <g id="patch_13">
    <path d="
M53.1287 403.34
L522.252 403.34
L522.252 228.33
L53.1287 228.33
z
" style="fill:#ffffff;"/>
   </g>
   <g id="line2d_41">
    <path clip-path="url(#p607a9f945f)" d="
M52.9632 394.93
L63.3416 394.93
L63.3416 394.93
L63.891 390.039
L64.5533 382.169
L64.8844 378.081
L65.2156 377.639
L65.7123 376.314
L66.209 374.224
L66.8713 370.265
L67.5336 364.934
L68.3615 356.24
L69.3549 343.125
L72.9975 292.487
L72.9975 292.487
L73.6598 285.106
L73.991 283.45
L73.991 283.45
L74.1565 283.257
L74.3221 283.469
L74.6533 284.918
L74.8188 286.726
L75.4811 295.776
L76.309 300.392
L77.1368 303.769
L78.627 308.74
L79.4549 311.135
L79.786 311.681
L80.1172 311.86
L80.4483 311.712
L81.4417 310.772
L81.7729 310.82
L82.104 311.222
L82.4352 312.042
L82.9319 314.148
L82.9319 314.148
L83.1756 315.606
L83.1756 315.606
L88.8925 394.93
L88.8925 394.93
L111.444 394.93
L111.444 394.93
L112.238 387.992
L113.175 378.111
L113.232 378.339
L113.572 380.131
L113.572 380.131
L114.722 394.93
L114.722 394.93
L115.558 394.93
L115.558 394.93
L115.881 391.76
L116.378 384.195
L116.709 378.01
L116.709 378.01
L117.371 373.259
L118.365 364.08
L120.186 346.791
L121.51 336.431
L122.504 330.079
L123.166 326.944
L123.497 326.097
L123.663 325.916
L123.663 325.916
L123.828 325.905
L123.994 326.068
L124.325 326.891
L124.822 329.19
L125.035 330.498
L125.035 330.498
L129.624 394.93
L129.624 394.93
L158.286 394.93
L158.286 394.93
L158.93 389.088
L159.592 381.08
L159.801 378.111
L159.801 378.111
L160.089 377.776
L160.42 376.951
L160.42 376.951
L160.917 374.905
L161.414 371.908
L161.414 371.908
L162.076 366.485
L162.904 357.654
L163.897 344.527
L165.222 323.816
L167.374 289.609
L167.374 289.609
L168.202 280.504
L169.195 270.223
L170.023 258.403
L170.914 243.555
L170.914 243.555
L172.106 260.374
L172.106 260.374
L173.201 243.555
L173.201 243.555
L174.393 260.374
L174.393 260.374
L175.322 250.723
L175.322 250.723
L176.212 243.555
L176.212 243.555
L177.405 260.374
L177.474 260.239
L177.805 259.868
L178.136 259.946
L178.468 260.475
L178.799 261.428
L179.295 263.663
L179.295 263.663
L179.627 266.136
L188.755 394.93
L188.755 394.93
L205.953 394.874
L206.615 388.756
L207.277 380.516
L207.443 378.111
L207.443 378.111
L207.774 377.591
L208.105 376.577
L208.105 376.577
L208.602 374.22
L209.264 369.557
L209.926 363.236
L210.754 353.252
L211.748 338.59
L213.403 310.234
L217.068 243.555
L217.068 243.555
L218.26 260.374
L218.26 260.374
L219.415 243.555
L219.415 243.555
L220.607 260.374
L220.607 260.374
L221.682 247.64
L222.099 243.555
L222.099 243.555
L223.291 260.374
L223.338 260.078
L224 256.535
L224 256.535
L224.497 254.767
L224.994 253.848
L224.994 253.848
L225.325 253.73
L225.656 254.015
L225.987 254.703
L225.987 254.703
L226.484 256.489
L227.021 259.459
L227.021 259.459
L236.623 394.93
L236.623 394.93
L256.437 394.93
L256.437 394.93
L257.115 389.17
L258.156 378.111
L258.274 378.436
L258.936 380.593
L260.426 386.471
L260.592 386.607
L260.757 386.525
L260.757 386.525
L261.089 385.686
L261.42 384.006
L262.207 378.111
L262.207 378.111
L263.407 369.042
L264.069 365.655
L264.4 364.904
L264.566 364.865
L264.731 365.069
L264.731 365.069
L265.062 366.207
L265.272 367.423
L265.272 367.423
L266.552 385.226
L267.049 387.447
L267.38 388.092
L267.877 388.776
L268.208 389.809
L268.474 391.265
L268.474 391.265
L268.733 394.93
L268.733 394.93
L301.546 394.93
L301.546 394.93
L302.151 389.704
L302.979 380.404
L303.153 378.111
L303.153 378.111
L303.487 378.111
L303.487 378.111
L303.806 377.711
L304.138 376.865
L304.634 374.752
L305.131 371.634
L305.793 366.033
L306.621 357.117
L307.78 342.004
L309.27 319.409
L312.416 270.906
L312.416 270.906
L313.906 251.255
L314.534 243.555
L314.569 244.045
L315.726 260.374
L315.728 260.356
L316.556 252.514
L317.218 248.392
L317.549 247.183
L317.88 246.689
L318.046 246.765
L318.377 247.602
L318.377 247.602
L318.717 249.386
L318.717 249.386
L329.139 394.93
L350.063 394.93
L350.063 394.93
L350.829 388.219
L351.822 378.111
L351.823 378.113
L352.015 379.247
L352.015 379.247
L353.147 394.93
L353.147 394.93
L357.916 394.93
L357.916 394.93
L358.28 391.642
L358.942 383.271
L359.296 378.111
L359.296 378.111
L360.101 377.417
L360.101 377.417
L361.095 376.541
L361.095 376.541
L361.591 376.337
L362.088 376.368
L362.088 376.368
L362.585 376.664
L363.082 377.253
L363.082 377.253
L363.578 378.172
L364.241 380.004
L364.903 382.649
L365.499 385.903
L365.499 385.903
L366.227 394.93
L496.754 394.93
L496.754 394.93
L497.196 390.538
L497.196 390.538
L497.692 382.998
L498.024 377.635
L498.686 372.255
L499.679 361.761
L501.17 346.092
L501.17 346.092
L501.997 339.628
L503.322 331.388
L506.137 314.835
L506.137 314.835
L506.965 308.736
L508.124 298.111
L508.124 298.111
L509.117 289.644
L509.117 289.644
L509.945 284.426
L510.607 281.786
L511.104 280.781
L511.104 280.781
L511.435 280.595
L511.766 280.805
L512.097 281.416
L512.097 281.416
L512.594 283.101
L513.158 286.171
L513.158 286.171
L520.873 394.93
L522.363 394.93
L522.363 394.93" style="fill:none;stroke:#0000ff;stroke-linecap:square;"/>
   </g>
   <g id="patch_14">
    <path d="
M53.1288 228.33
L522.252 228.33" style="fill:none;stroke:#000000;stroke-linecap:square;stroke-linejoin:miter;"/>
   </g>
   <g id="patch_15">
    <path d="
M522.252 403.34
L522.252 228.33" style="fill:none;stroke:#000000;stroke-linecap:square;stroke-linejoin:miter;"/>
   </g>
   <g id="patch_16">
    <path d="
M53.1288 403.34
L522.252 403.34" style="fill:none;stroke:#000000;stroke-linecap:square;stroke-linejoin:miter;"/>
   </g>
   <g id="patch_17">
    <path d="
M53.1287 403.34
L53.1287 228.33" style="fill:none;stroke:#000000;stroke-linecap:square;stroke-linejoin:miter;"/>
   </g>
   <g id="matplotlib.axis_4">
    <g id="xtick_10">
     <g id="line2d_42">
      <g>
       <use style="stroke:#000000;stroke-width:0.5;" x="80.7242647059" xlink:href="#m93b0483c22" y="403.34"/>
      </g>
     </g>
     <g id="line2d_43">
      <g>
       <use style="stroke:#000000;stroke-width:0.5;" x="80.7242647059" xlink:href="#m741efc42ff" y="228.33"/>
      </g>
     </g>
     <g id="text_28">
      <!-- 2300000 -->
      <g transform="translate(54.8398897059 416.458125)scale(0.12 -0.12)">
       <use xlink:href="#BitstreamVeraSans-Roman-32"/>
       <use x="63.623046875" xlink:href="#BitstreamVeraSans-Roman-33"/>
       <use x="127.24609375" xlink:href="#BitstreamVeraSans-Roman-30"/>
       <use x="190.869140625" xlink:href="#BitstreamVeraSans-Roman-30"/>
       <use x="254.4921875" xlink:href="#BitstreamVeraSans-Roman-30"/>
       <use x="318.115234375" xlink:href="#BitstreamVeraSans-Roman-30"/>
       <use x="381.73828125" xlink:href="#BitstreamVeraSans-Roman-30"/>
      </g>
     </g>
    </g>
    <g id="xtick_11">
     <g id="line2d_44">
      <g>
       <use style="stroke:#000000;stroke-width:0.5;" x="135.915294118" xlink:href="#m93b0483c22" y="403.34"/>
      </g>
     </g>
     <g id="line2d_45">
      <g>
       <use style="stroke:#000000;stroke-width:0.5;" x="135.915294118" xlink:href="#m741efc42ff" y="228.33"/>
      </g>
     </g>
     <g id="text_29">
      <!-- 2400000 -->
      <g transform="translate(110.030919118 416.458125)scale(0.12 -0.12)">
       <use xlink:href="#BitstreamVeraSans-Roman-32"/>
       <use x="63.623046875" xlink:href="#BitstreamVeraSans-Roman-34"/>
       <use x="127.24609375" xlink:href="#BitstreamVeraSans-Roman-30"/>
       <use x="190.869140625" xlink:href="#BitstreamVeraSans-Roman-30"/>
       <use x="254.4921875" xlink:href="#BitstreamVeraSans-Roman-30"/>
       <use x="318.115234375" xlink:href="#BitstreamVeraSans-Roman-30"/>
       <use x="381.73828125" xlink:href="#BitstreamVeraSans-Roman-30"/>
      </g>
     </g>
    </g>
    <g id="xtick_12">
     <g id="line2d_46">
      <g>
       <use style="stroke:#000000;stroke-width:0.5;" x="191.106323529" xlink:href="#m93b0483c22" y="403.34"/>
      </g>
     </g>
     <g id="line2d_47">
      <g>
       <use style="stroke:#000000;stroke-width:0.5;" x="191.106323529" xlink:href="#m741efc42ff" y="228.33"/>
      </g>
     </g>
     <g id="text_30">
      <!-- 2500000 -->
      <g transform="translate(165.221948529 416.458125)scale(0.12 -0.12)">
       <use xlink:href="#BitstreamVeraSans-Roman-32"/>
       <use x="63.623046875" xlink:href="#BitstreamVeraSans-Roman-35"/>
       <use x="127.24609375" xlink:href="#BitstreamVeraSans-Roman-30"/>
       <use x="190.869140625" xlink:href="#BitstreamVeraSans-Roman-30"/>
       <use x="254.4921875" xlink:href="#BitstreamVeraSans-Roman-30"/>
       <use x="318.115234375" xlink:href="#BitstreamVeraSans-Roman-30"/>
       <use x="381.73828125" xlink:href="#BitstreamVeraSans-Roman-30"/>
      </g>
     </g>
    </g>
    <g id="xtick_13">
     <g id="line2d_48">
      <g>
       <use style="stroke:#000000;stroke-width:0.5;" x="246.297352941" xlink:href="#m93b0483c22" y="403.34"/>
      </g>
     </g>
     <g id="line2d_49">
      <g>
       <use style="stroke:#000000;stroke-width:0.5;" x="246.297352941" xlink:href="#m741efc42ff" y="228.33"/>
      </g>
     </g>
     <g id="text_31">
      <!-- 2600000 -->
      <g transform="translate(220.412977941 416.458125)scale(0.12 -0.12)">
       <use xlink:href="#BitstreamVeraSans-Roman-32"/>
       <use x="63.623046875" xlink:href="#BitstreamVeraSans-Roman-36"/>
       <use x="127.24609375" xlink:href="#BitstreamVeraSans-Roman-30"/>
       <use x="190.869140625" xlink:href="#BitstreamVeraSans-Roman-30"/>
       <use x="254.4921875" xlink:href="#BitstreamVeraSans-Roman-30"/>
       <use x="318.115234375" xlink:href="#BitstreamVeraSans-Roman-30"/>
       <use x="381.73828125" xlink:href="#BitstreamVeraSans-Roman-30"/>
      </g>
     </g>
    </g>
    <g id="xtick_14">
     <g id="line2d_50">
      <g>
       <use style="stroke:#000000;stroke-width:0.5;" x="301.488382353" xlink:href="#m93b0483c22" y="403.34"/>
      </g>
     </g>
     <g id="line2d_51">
      <g>
       <use style="stroke:#000000;stroke-width:0.5;" x="301.488382353" xlink:href="#m741efc42ff" y="228.33"/>
      </g>
     </g>
     <g id="text_32">
      <!-- 2700000 -->
      <g transform="translate(275.604007353 416.458125)scale(0.12 -0.12)">
       <use xlink:href="#BitstreamVeraSans-Roman-32"/>
       <use x="63.623046875" xlink:href="#BitstreamVeraSans-Roman-37"/>
       <use x="127.24609375" xlink:href="#BitstreamVeraSans-Roman-30"/>
       <use x="190.869140625" xlink:href="#BitstreamVeraSans-Roman-30"/>
       <use x="254.4921875" xlink:href="#BitstreamVeraSans-Roman-30"/>
       <use x="318.115234375" xlink:href="#BitstreamVeraSans-Roman-30"/>
       <use x="381.73828125" xlink:href="#BitstreamVeraSans-Roman-30"/>
      </g>
     </g>
    </g>
    <g id="xtick_15">
     <g id="line2d_52">
      <g>
       <use style="stroke:#000000;stroke-width:0.5;" x="356.679411765" xlink:href="#m93b0483c22" y="403.34"/>
      </g>
     </g>
     <g id="line2d_53">
      <g>
       <use style="stroke:#000000;stroke-width:0.5;" x="356.679411765" xlink:href="#m741efc42ff" y="228.33"/>
      </g>
     </g>
     <g id="text_33">
      <!-- 2800000 -->
      <g transform="translate(330.795036765 416.458125)scale(0.12 -0.12)">
       <use xlink:href="#BitstreamVeraSans-Roman-32"/>
       <use x="63.623046875" xlink:href="#BitstreamVeraSans-Roman-38"/>
       <use x="127.24609375" xlink:href="#BitstreamVeraSans-Roman-30"/>
       <use x="190.869140625" xlink:href="#BitstreamVeraSans-Roman-30"/>
       <use x="254.4921875" xlink:href="#BitstreamVeraSans-Roman-30"/>
       <use x="318.115234375" xlink:href="#BitstreamVeraSans-Roman-30"/>
       <use x="381.73828125" xlink:href="#BitstreamVeraSans-Roman-30"/>
      </g>
     </g>
    </g>
    <g id="xtick_16">
     <g id="line2d_54">
      <g>
       <use style="stroke:#000000;stroke-width:0.5;" x="411.870441176" xlink:href="#m93b0483c22" y="403.34"/>
      </g>
     </g>
     <g id="line2d_55">
      <g>
       <use style="stroke:#000000;stroke-width:0.5;" x="411.870441176" xlink:href="#m741efc42ff" y="228.33"/>
      </g>
     </g>
     <g id="text_34">
      <!-- 2900000 -->
      <g transform="translate(385.986066176 416.458125)scale(0.12 -0.12)">
       <use xlink:href="#BitstreamVeraSans-Roman-32"/>
       <use x="63.623046875" xlink:href="#BitstreamVeraSans-Roman-39"/>
       <use x="127.24609375" xlink:href="#BitstreamVeraSans-Roman-30"/>
       <use x="190.869140625" xlink:href="#BitstreamVeraSans-Roman-30"/>
       <use x="254.4921875" xlink:href="#BitstreamVeraSans-Roman-30"/>
       <use x="318.115234375" xlink:href="#BitstreamVeraSans-Roman-30"/>
       <use x="381.73828125" xlink:href="#BitstreamVeraSans-Roman-30"/>
      </g>
     </g>
    </g>
    <g id="xtick_17">
     <g id="line2d_56">
      <g>
       <use style="stroke:#000000;stroke-width:0.5;" x="467.061470588" xlink:href="#m93b0483c22" y="403.34"/>
      </g>
     </g>
     <g id="line2d_57">
      <g>
       <use style="stroke:#000000;stroke-width:0.5;" x="467.061470588" xlink:href="#m741efc42ff" y="228.33"/>
      </g>
     </g>
     <g id="text_35">
      <!-- 3000000 -->
      <g transform="translate(441.194908088 416.458125)scale(0.12 -0.12)">
       <use xlink:href="#BitstreamVeraSans-Roman-33"/>
       <use x="63.623046875" xlink:href="#BitstreamVeraSans-Roman-30"/>
       <use x="127.24609375" xlink:href="#BitstreamVeraSans-Roman-30"/>
       <use x="190.869140625" xlink:href="#BitstreamVeraSans-Roman-30"/>
       <use x="254.4921875" xlink:href="#BitstreamVeraSans-Roman-30"/>
       <use x="318.115234375" xlink:href="#BitstreamVeraSans-Roman-30"/>
       <use x="381.73828125" xlink:href="#BitstreamVeraSans-Roman-30"/>
      </g>
     </g>
    </g>
    <g id="xtick_18">
     <g id="line2d_58">
      <g>
       <use style="stroke:#000000;stroke-width:0.5;" x="522.2525" xlink:href="#m93b0483c22" y="403.34"/>
      </g>
     </g>
     <g id="line2d_59">
      <g>
       <use style="stroke:#000000;stroke-width:0.5;" x="522.2525" xlink:href="#m741efc42ff" y="228.33"/>
      </g>
     </g>
     <g id="text_36">
      <!-- 3100000 -->
      <g transform="translate(496.3859375 416.458125)scale(0.12 -0.12)">
       <use xlink:href="#BitstreamVeraSans-Roman-33"/>
       <use x="63.623046875" xlink:href="#BitstreamVeraSans-Roman-31"/>
       <use x="127.24609375" xlink:href="#BitstreamVeraSans-Roman-30"/>
       <use x="190.869140625" xlink:href="#BitstreamVeraSans-Roman-30"/>
       <use x="254.4921875" xlink:href="#BitstreamVeraSans-Roman-30"/>
       <use x="318.115234375" xlink:href="#BitstreamVeraSans-Roman-30"/>
       <use x="381.73828125" xlink:href="#BitstreamVeraSans-Roman-30"/>
      </g>
     </g>
    </g>
   </g>
   <g id="matplotlib.axis_5">
    <g id="ytick_17">
     <g id="line2d_60">
      <g>
       <use style="stroke:#000000;stroke-width:0.5;" x="53.12875" xlink:href="#m728421d6d4" y="403.34"/>
      </g>
     </g>
     <g id="text_37">
      <!-- 0 -->
      <g transform="translate(43.081875 406.65125)scale(0.12 -0.12)">
       <use xlink:href="#BitstreamVeraSans-Roman-30"/>
      </g>
     </g>
    </g>
    <g id="ytick_18">
     <g id="line2d_61">
      <g>
       <use style="stroke:#000000;stroke-width:0.5;" x="53.12875" xlink:href="#m728421d6d4" y="368.338"/>
      </g>
     </g>
     <g id="text_38">
      <!-- 2000 -->
      <g transform="translate(20.265 371.64925)scale(0.12 -0.12)">
       <use xlink:href="#BitstreamVeraSans-Roman-32"/>
       <use x="63.623046875" xlink:href="#BitstreamVeraSans-Roman-30"/>
       <use x="127.24609375" xlink:href="#BitstreamVeraSans-Roman-30"/>
       <use x="190.869140625" xlink:href="#BitstreamVeraSans-Roman-30"/>
      </g>
     </g>
    </g>
    <g id="ytick_19">
     <g id="line2d_62">
      <g>
       <use style="stroke:#000000;stroke-width:0.5;" x="53.12875" xlink:href="#m728421d6d4" y="333.336"/>
      </g>
     </g>
     <g id="text_39">
      <!-- 4000 -->
      <g transform="translate(19.9725 336.64725)scale(0.12 -0.12)">
       <use xlink:href="#BitstreamVeraSans-Roman-34"/>
       <use x="63.623046875" xlink:href="#BitstreamVeraSans-Roman-30"/>
       <use x="127.24609375" xlink:href="#BitstreamVeraSans-Roman-30"/>
       <use x="190.869140625" xlink:href="#BitstreamVeraSans-Roman-30"/>
      </g>
     </g>
    </g>
    <g id="ytick_20">
     <g id="line2d_63">
      <g>
       <use style="stroke:#000000;stroke-width:0.5;" x="53.12875" xlink:href="#m728421d6d4" y="298.334"/>
      </g>
     </g>
     <g id="text_40">
      <!-- 6000 -->
      <g transform="translate(20.22375 301.64525)scale(0.12 -0.12)">
       <use xlink:href="#BitstreamVeraSans-Roman-36"/>
       <use x="63.623046875" xlink:href="#BitstreamVeraSans-Roman-30"/>
       <use x="127.24609375" xlink:href="#BitstreamVeraSans-Roman-30"/>
       <use x="190.869140625" xlink:href="#BitstreamVeraSans-Roman-30"/>
      </g>
     </g>
    </g>
    <g id="ytick_21">
     <g id="line2d_64">
      <g>
       <use style="stroke:#000000;stroke-width:0.5;" x="53.12875" xlink:href="#m728421d6d4" y="263.332"/>
      </g>
     </g>
     <g id="text_41">
      <!-- 8000 -->
      <g transform="translate(20.199375 266.64325)scale(0.12 -0.12)">
       <use xlink:href="#BitstreamVeraSans-Roman-38"/>
       <use x="63.623046875" xlink:href="#BitstreamVeraSans-Roman-30"/>
       <use x="127.24609375" xlink:href="#BitstreamVeraSans-Roman-30"/>
       <use x="190.869140625" xlink:href="#BitstreamVeraSans-Roman-30"/>
      </g>
     </g>
    </g>
    <g id="ytick_22">
     <g id="line2d_65">
      <g>
       <use style="stroke:#000000;stroke-width:0.5;" x="53.12875" xlink:href="#m728421d6d4" y="228.33"/>
      </g>
     </g>
     <g id="text_42">
      <!-- 10000 -->
      <g transform="translate(13.06875 231.64125)scale(0.12 -0.12)">
       <use xlink:href="#BitstreamVeraSans-Roman-31"/>
       <use x="63.623046875" xlink:href="#BitstreamVeraSans-Roman-30"/>
       <use x="127.24609375" xlink:href="#BitstreamVeraSans-Roman-30"/>
       <use x="190.869140625" xlink:href="#BitstreamVeraSans-Roman-30"/>
       <use x="254.4921875" xlink:href="#BitstreamVeraSans-Roman-30"/>
      </g>
     </g>
    </g>
   </g>
   <g id="legend_3">
    <g id="patch_18">
     <path d="
M60.3288 260.986
L160.478 260.986
L160.478 235.53
L60.3288 235.53
z
" style="fill:#ffffff;stroke:#000000;stroke-linejoin:miter;"/>
    </g>
    <g id="line2d_66">
     <path d="
M70.4087 247.192
L90.5687 247.192" style="fill:none;stroke:#0000ff;stroke-linecap:square;"/>
    </g>
    <g id="line2d_67"/>
    <g id="text_43">
     <!-- htnk.m -->
     <defs>
      <path d="
M52 44.1875
Q55.375 50.25 60.0625 53.125
Q64.75 56 71.0938 56
Q79.6406 56 84.2812 50.0156
Q88.9219 44.0469 88.9219 33.0156
L88.9219 0
L79.8906 0
L79.8906 32.7188
Q79.8906 40.5781 77.0938 44.375
Q74.3125 48.1875 68.6094 48.1875
Q61.625 48.1875 57.5625 43.5469
Q53.5156 38.9219 53.5156 30.9062
L53.5156 0
L44.4844 0
L44.4844 32.7188
Q44.4844 40.625 41.7031 44.4062
Q38.9219 48.1875 33.1094 48.1875
Q26.2188 48.1875 22.1562 43.5312
Q18.1094 38.875 18.1094 30.9062
L18.1094 0
L9.07812 0
L9.07812 54.6875
L18.1094 54.6875
L18.1094 46.1875
Q21.1875 51.2188 25.4844 53.6094
Q29.7812 56 35.6875 56
Q41.6562 56 45.8281 52.9688
Q50 49.9531 52 44.1875" id="BitstreamVeraSans-Roman-6d"/>
      <path d="
M18.3125 70.2188
L18.3125 54.6875
L36.8125 54.6875
L36.8125 47.7031
L18.3125 47.7031
L18.3125 18.0156
Q18.3125 11.3281 20.1406 9.42188
Q21.9688 7.51562 27.5938 7.51562
L36.8125 7.51562
L36.8125 0
L27.5938 0
Q17.1875 0 13.2344 3.875
Q9.28125 7.76562 9.28125 18.0156
L9.28125 47.7031
L2.6875 47.7031
L2.6875 54.6875
L9.28125 54.6875
L9.28125 70.2188
z
" id="BitstreamVeraSans-Roman-74"/>
      <path d="
M54.8906 33.0156
L54.8906 0
L45.9062 0
L45.9062 32.7188
Q45.9062 40.4844 42.875 44.3281
Q39.8438 48.1875 33.7969 48.1875
Q26.5156 48.1875 22.3125 43.5469
Q18.1094 38.9219 18.1094 30.9062
L18.1094 0
L9.07812 0
L9.07812 75.9844
L18.1094 75.9844
L18.1094 46.1875
Q21.3438 51.125 25.7031 53.5625
Q30.0781 56 35.7969 56
Q45.2188 56 50.0469 50.1719
Q54.8906 44.3438 54.8906 33.0156" id="BitstreamVeraSans-Roman-68"/>
      <path d="
M9.07812 75.9844
L18.1094 75.9844
L18.1094 31.1094
L44.9219 54.6875
L56.3906 54.6875
L27.3906 29.1094
L57.625 0
L45.9062 0
L18.1094 26.7031
L18.1094 0
L9.07812 0
z
" id="BitstreamVeraSans-Roman-6b"/>
     </defs>
     <g transform="translate(106.40875 252.23175)scale(0.144 -0.144)">
      <use xlink:href="#BitstreamVeraSans-Roman-68"/>
      <use x="63.37890625" xlink:href="#BitstreamVeraSans-Roman-74"/>
      <use x="102.587890625" xlink:href="#BitstreamVeraSans-Roman-6e"/>
      <use x="165.966796875" xlink:href="#BitstreamVeraSans-Roman-6b"/>
      <use x="223.876953125" xlink:href="#BitstreamVeraSans-Roman-2e"/>
      <use x="255.6640625" xlink:href="#BitstreamVeraSans-Roman-6d"/>
     </g>
    </g>
   </g>
  </g>
  <g id="axes_4">
   <g id="line2d_68">
    <path clip-path="url(#p607a9f945f)" d="
M52.9632 403.34
L63.3416 403.34
L63.3943 372.398
L65.2156 340.31
L69.0238 293.781
L69.3549 291.528
L69.6861 290.73
L69.8516 290.753
L70.1828 291.38
L71.0106 293.637
L71.3418 293.828
L71.8385 293.673
L72.1697 293.59
L72.5008 293.784
L72.8319 294.48
L72.9975 295.086
L73.1631 297.35
L73.4942 309.498
L74.7231 373.338
L74.7231 403.34
L74.8188 403.34
L75.4427 403.34
L75.4811 373.051
L76.8057 363.187
L77.3024 361.604
L77.7991 360.84
L78.9582 359.868
L79.1237 359.281
L79.4549 356.299
L80.4483 344.433
L80.7795 343.007
L80.945 343.217
L81.2762 345.075
L81.7729 350.243
L82.4352 360.169
L83.1756 373.338
L83.1756 403.34
L83.2631 403.34
L111.444 403.34
L111.444 373.338
L111.444 373.338
L112.404 363.229
L112.735 360.42
L112.901 360.026
L113.175 363.033
L113.175 363.033
L113.397 368.144
L113.572 373.338
L113.572 403.34
L115.558 403.34
L115.558 373.338
L115.558 373.338
L116.543 326.659
L116.874 321.398
L117.702 312.317
L118.199 308.942
L118.53 308.17
L118.696 308.34
L119.192 309.732
L119.855 312.282
L121.842 321.508
L122.504 325.582
L122.835 328.618
L123.332 337.588
L124.822 370.117
L125.035 373.338
L125.035 403.34
L158.286 403.34
L158.286 373.338
L158.286 373.338
L160.42 335.267
L162.407 306.601
L163.566 293.906
L164.394 286.808
L164.891 283.908
L165.222 282.81
L165.553 282.273
L165.884 282.195
L166.215 282.465
L166.381 282.693
L166.546 283.445
L166.877 287.425
L168.202 309.766
L168.368 310.204
L168.368 310.204
L168.533 309.579
L168.864 305.74
L169.692 289.621
L170.189 282.727
L170.52 281.656
L170.914 281.209
L170.914 403.34
L171.017 403.34
L172.106 403.34
L172.106 283.465
L172.176 283.828
L172.838 288.411
L173.201 291.396
L173.201 403.34
L173.201 403.34
L174.393 403.34
L174.393 302.429
L174.494 303.376
L175.818 316.404
L176.212 321.316
L176.212 403.34
L176.315 403.34
L177.405 403.34
L177.405 339.494
L177.474 340.62
L179.568 373.338
L179.568 403.34
L179.627 403.34
L205.945 403.34
L205.953 373.179
L208.105 332.924
L210.092 303.303
L211.417 287.685
L212.079 282.119
L212.576 279.645
L213.072 278.402
L213.735 277.596
L214.066 277.114
L214.563 275.946
L215.39 273.942
L215.722 273.595
L215.887 273.602
L216.126 273.911
L216.126 273.911
L216.384 275.192
L216.881 279.92
L217.068 282.103
L217.068 403.34
L217.068 403.34
L218.26 403.34
L218.371 291.774
L218.536 291.48
L219.033 289.627
L219.415 288.443
L219.415 403.34
L219.415 403.34
L220.607 403.34
L220.607 295.197
L220.689 296.04
L222.099 311.064
L222.099 403.34
L222.179 403.34
L223.291 403.34
L223.291 322.496
L223.338 322.982
L224.166 332.589
L225.656 353.512
L227.021 373.338
L227.021 403.34
L227.086 403.34
L256.437 403.34
L256.453 373.184
L257.943 358.863
L258.156 358.534
L258.156 358.534
L258.274 358.743
L258.605 360.419
L259.433 365.941
L259.598 366.145
L259.764 365.69
L259.93 364.195
L260.261 357.848
L260.923 337.7
L261.585 320.156
L261.916 316.86
L262.248 315.724
L262.413 315.749
L262.579 316.14
L262.91 317.931
L263.407 322.772
L263.903 330.061
L264.4 343.979
L265.272 373.338
L265.272 403.34
L266.519 403.34
L266.552 372.407
L267.215 355.213
L267.546 352.165
L267.711 353.225
L268.043 359.883
L268.474 373.338
L268.474 403.34
L268.539 403.34
L301.546 403.34
L301.654 371.913
L303.153 350.291
L303.153 350.291
L306.29 304.277
L307.118 296.829
L308.111 289.928
L308.774 286.509
L309.27 285.125
L309.601 284.909
L309.933 284.968
L310.264 285.24
L310.76 286.031
L311.257 287.258
L311.919 289.552
L312.747 293.453
L313.741 298.705
L314.072 299.273
L314.534 299.504
L314.534 403.34
L314.569 403.34
L315.726 403.34
L315.726 304.833
L315.728 304.851
L316.224 311.374
L317.052 326.399
L317.715 341.764
L318.717 373.338
L318.717 403.34
L350.063 403.34
L350.167 372.048
L350.995 363.105
L351.326 361.304
L351.491 362.373
L351.823 368.252
L352.015 373.338
L352.015 403.34
L357.916 403.34
L357.949 372.339
L358.777 349.471
L359.108 345.706
L359.605 344.411
L359.936 343.944
L360.267 343.829
L360.598 344.093
L360.929 344.759
L361.591 346.995
L362.585 351.192
L363.578 356.443
L364.572 363.442
L365.234 369.227
L365.499 373.338
L365.499 403.34
L365.565 403.34
L496.754 403.34
L496.865 368.924
L498.024 321.906
L498.52 312.955
L499.017 307.021
L499.514 303.738
L499.679 303.277
L499.845 303.147
L500.011 303.354
L500.342 304.804
L500.838 309.09
L501.997 320.553
L502.494 322.765
L503.156 324.76
L503.653 325.592
L503.984 325.796
L504.315 325.706
L504.647 325.338
L505.143 324.353
L505.806 322.466
L506.302 320.619
L506.799 316.701
L507.461 311.324
L507.792 310.137
L507.958 310.179
L508.289 311.631
L508.786 315.265
L509.448 321.854
L510.442 334.153
L512.263 359.847
L513.158 373.338
L513.158 403.34
L513.256 403.34
L522.363 403.34
L522.363 403.34" style="fill:none;stroke:#008000;stroke-linecap:square;"/>
   </g>
   <g id="line2d_69">
    <path clip-path="url(#p607a9f945f)" d="
M52.9632 403.34
L64.8403 403.34
L64.8403 347.72
L64.8844 347.72
L88.7979 347.72
L88.7979 403.34
L88.8925 403.34
L113.175 403.34
L113.175 347.72
L113.232 347.72
L114.621 347.72
L114.621 403.34
L114.722 403.34
L116.692 403.34
L116.692 347.72
L116.709 347.72
L129.602 347.72
L129.602 403.34
L129.624 403.34
L159.801 403.34
L159.801 347.72
L188.755 347.72
L188.755 403.34
L207.443 403.34
L207.443 347.72
L236.623 347.72
L236.623 403.34
L258.156 403.34
L258.156 347.72
L258.156 347.72
L268.733 347.72
L268.733 403.34
L303.153 403.34
L303.153 347.72
L303.153 347.72
L329.033 347.72
L329.033 403.34
L329.139 403.34
L351.822 403.34
L351.822 347.72
L351.823 347.72
L353.126 347.72
L353.126 403.34
L353.147 403.34
L359.296 403.34
L359.296 347.72
L366.139 347.72
L366.139 403.34
L366.227 403.34
L497.948 403.34
L497.948 347.72
L498.024 347.72
L520.867 347.72
L520.867 403.34
L520.873 403.34
L522.363 403.34
L522.363 403.34" style="fill:none;stroke:#ff0000;stroke-linecap:square;"/>
   </g>
   <g id="patch_19">
    <path d="
M53.1288 228.33
L522.252 228.33" style="fill:none;stroke:#000000;stroke-linecap:square;stroke-linejoin:miter;"/>
   </g>
   <g id="patch_20">
    <path d="
M522.252 403.34
L522.252 228.33" style="fill:none;stroke:#000000;stroke-linecap:square;stroke-linejoin:miter;"/>
   </g>
   <g id="patch_21">
    <path d="
M53.1288 403.34
L522.252 403.34" style="fill:none;stroke:#000000;stroke-linecap:square;stroke-linejoin:miter;"/>
   </g>
   <g id="patch_22">
    <path d="
M53.1287 403.34
L53.1287 228.33" style="fill:none;stroke:#000000;stroke-linecap:square;stroke-linejoin:miter;"/>
   </g>
   <g id="matplotlib.axis_6">
    <g id="ytick_23">
     <g id="line2d_70">
      <g>
       <use style="stroke:#000000;stroke-width:0.5;" x="522.2525" xlink:href="#mcb0005524f" y="403.34"/>
      </g>
     </g>
     <g id="text_44">
      <!-- 0.0 -->
      <g transform="translate(526.2525 406.65125)scale(0.12 -0.12)">
       <use xlink:href="#BitstreamVeraSans-Roman-30"/>
       <use x="63.623046875" xlink:href="#BitstreamVeraSans-Roman-2e"/>
       <use x="95.41015625" xlink:href="#BitstreamVeraSans-Roman-30"/>
      </g>
     </g>
    </g>
    <g id="ytick_24">
     <g id="line2d_71">
      <g>
       <use style="stroke:#000000;stroke-width:0.5;" x="522.2525" xlink:href="#mcb0005524f" y="378.338571429"/>
      </g>
     </g>
     <g id="text_45">
      <!-- 0.2 -->
      <g transform="translate(526.2525 381.649821429)scale(0.12 -0.12)">
       <use xlink:href="#BitstreamVeraSans-Roman-30"/>
       <use x="63.623046875" xlink:href="#BitstreamVeraSans-Roman-2e"/>
       <use x="95.41015625" xlink:href="#BitstreamVeraSans-Roman-32"/>
      </g>
     </g>
    </g>
    <g id="ytick_25">
     <g id="line2d_72">
      <g>
       <use style="stroke:#000000;stroke-width:0.5;" x="522.2525" xlink:href="#mcb0005524f" y="353.337142857"/>
      </g>
     </g>
     <g id="text_46">
      <!-- 0.4 -->
      <g transform="translate(526.2525 356.648392857)scale(0.12 -0.12)">
       <use xlink:href="#BitstreamVeraSans-Roman-30"/>
       <use x="63.623046875" xlink:href="#BitstreamVeraSans-Roman-2e"/>
       <use x="95.41015625" xlink:href="#BitstreamVeraSans-Roman-34"/>
      </g>
     </g>
    </g>
    <g id="ytick_26">
     <g id="line2d_73">
      <g>
       <use style="stroke:#000000;stroke-width:0.5;" x="522.2525" xlink:href="#mcb0005524f" y="328.335714286"/>
      </g>
     </g>
     <g id="text_47">
      <!-- 0.6 -->
      <g transform="translate(526.2525 331.646964286)scale(0.12 -0.12)">
       <use xlink:href="#BitstreamVeraSans-Roman-30"/>
       <use x="63.623046875" xlink:href="#BitstreamVeraSans-Roman-2e"/>
       <use x="95.41015625" xlink:href="#BitstreamVeraSans-Roman-36"/>
      </g>
     </g>
    </g>
    <g id="ytick_27">
     <g id="line2d_74">
      <g>
       <use style="stroke:#000000;stroke-width:0.5;" x="522.2525" xlink:href="#mcb0005524f" y="303.334285714"/>
      </g>
     </g>
     <g id="text_48">
      <!-- 0.8 -->
      <g transform="translate(526.2525 306.645535714)scale(0.12 -0.12)">
       <use xlink:href="#BitstreamVeraSans-Roman-30"/>
       <use x="63.623046875" xlink:href="#BitstreamVeraSans-Roman-2e"/>
       <use x="95.41015625" xlink:href="#BitstreamVeraSans-Roman-38"/>
      </g>
     </g>
    </g>
    <g id="ytick_28">
     <g id="line2d_75">
      <g>
       <use style="stroke:#000000;stroke-width:0.5;" x="522.2525" xlink:href="#mcb0005524f" y="278.332857143"/>
      </g>
     </g>
     <g id="text_49">
      <!-- 1.0 -->
      <g transform="translate(526.2525 281.644107143)scale(0.12 -0.12)">
       <use xlink:href="#BitstreamVeraSans-Roman-31"/>
       <use x="63.623046875" xlink:href="#BitstreamVeraSans-Roman-2e"/>
       <use x="95.41015625" xlink:href="#BitstreamVeraSans-Roman-30"/>
      </g>
     </g>
    </g>
    <g id="ytick_29">
     <g id="line2d_76">
      <g>
       <use style="stroke:#000000;stroke-width:0.5;" x="522.2525" xlink:href="#mcb0005524f" y="253.331428571"/>
      </g>
     </g>
     <g id="text_50">
      <!-- 1.2 -->
      <g transform="translate(526.2525 256.642678571)scale(0.12 -0.12)">
       <use xlink:href="#BitstreamVeraSans-Roman-31"/>
       <use x="63.623046875" xlink:href="#BitstreamVeraSans-Roman-2e"/>
       <use x="95.41015625" xlink:href="#BitstreamVeraSans-Roman-32"/>
      </g>
     </g>
    </g>
    <g id="ytick_30">
     <g id="line2d_77">
      <g>
       <use style="stroke:#000000;stroke-width:0.5;" x="522.2525" xlink:href="#mcb0005524f" y="228.33"/>
      </g>
     </g>
     <g id="text_51">
      <!-- 1.4 -->
      <g transform="translate(526.2525 231.64125)scale(0.12 -0.12)">
       <use xlink:href="#BitstreamVeraSans-Roman-31"/>
       <use x="63.623046875" xlink:href="#BitstreamVeraSans-Roman-2e"/>
       <use x="95.41015625" xlink:href="#BitstreamVeraSans-Roman-34"/>
      </g>
     </g>
    </g>
   </g>
   <g id="legend_4">
    <g id="patch_23">
     <path d="
M317.91 282.924
L515.052 282.924
L515.052 235.53
L317.91 235.53
z
" style="fill:#ffffff;stroke:#000000;stroke-linejoin:miter;"/>
    </g>
    <g id="line2d_78">
     <path d="
M327.99 247.192
L348.15 247.192" style="fill:none;stroke:#008000;stroke-linecap:square;"/>
    </g>
    <g id="line2d_79"/>
    <g id="text_52">
     <!-- pmp_rec.m_flow_set -->
     <defs>
      <path d="
M37.1094 75.9844
L37.1094 68.5
L28.5156 68.5
Q23.6875 68.5 21.7969 66.5469
Q19.9219 64.5938 19.9219 59.5156
L19.9219 54.6875
L34.7188 54.6875
L34.7188 47.7031
L19.9219 47.7031
L19.9219 0
L10.8906 0
L10.8906 47.7031
L2.29688 47.7031
L2.29688 54.6875
L10.8906 54.6875
L10.8906 58.5
Q10.8906 67.625 15.1406 71.7969
Q19.3906 75.9844 28.6094 75.9844
z
" id="BitstreamVeraSans-Roman-66"/>
      <path d="
M41.1094 46.2969
Q39.5938 47.1719 37.8125 47.5781
Q36.0312 48 33.8906 48
Q26.2656 48 22.1875 43.0469
Q18.1094 38.0938 18.1094 28.8125
L18.1094 0
L9.07812 0
L9.07812 54.6875
L18.1094 54.6875
L18.1094 46.1875
Q20.9531 51.1719 25.4844 53.5781
Q30.0312 56 36.5312 56
Q37.4531 56 38.5781 55.875
Q39.7031 55.7656 41.0625 55.5156
z
" id="BitstreamVeraSans-Roman-72"/>
      <path d="
M30.6094 48.3906
Q23.3906 48.3906 19.1875 42.75
Q14.9844 37.1094 14.9844 27.2969
Q14.9844 17.4844 19.1562 11.8438
Q23.3438 6.20312 30.6094 6.20312
Q37.7969 6.20312 41.9844 11.8594
Q46.1875 17.5312 46.1875 27.2969
Q46.1875 37.0156 41.9844 42.7031
Q37.7969 48.3906 30.6094 48.3906
M30.6094 56
Q42.3281 56 49.0156 48.375
Q55.7188 40.7656 55.7188 27.2969
Q55.7188 13.875 49.0156 6.21875
Q42.3281 -1.42188 30.6094 -1.42188
Q18.8438 -1.42188 12.1719 6.21875
Q5.51562 13.875 5.51562 27.2969
Q5.51562 40.7656 12.1719 48.375
Q18.8438 56 30.6094 56" id="BitstreamVeraSans-Roman-6f"/>
      <path d="
M18.1094 8.20312
L18.1094 -20.7969
L9.07812 -20.7969
L9.07812 54.6875
L18.1094 54.6875
L18.1094 46.3906
Q20.9531 51.2656 25.2656 53.625
Q29.5938 56 35.5938 56
Q45.5625 56 51.7812 48.0938
Q58.0156 40.1875 58.0156 27.2969
Q58.0156 14.4062 51.7812 6.48438
Q45.5625 -1.42188 35.5938 -1.42188
Q29.5938 -1.42188 25.2656 0.953125
Q20.9531 3.32812 18.1094 8.20312
M48.6875 27.2969
Q48.6875 37.2031 44.6094 42.8438
Q40.5312 48.4844 33.4062 48.4844
Q26.2656 48.4844 22.1875 42.8438
Q18.1094 37.2031 18.1094 27.2969
Q18.1094 17.3906 22.1875 11.75
Q26.2656 6.10938 33.4062 6.10938
Q40.5312 6.10938 44.6094 11.75
Q48.6875 17.3906 48.6875 27.2969" id="BitstreamVeraSans-Roman-70"/>
     </defs>
     <g transform="translate(363.98975 252.23175)scale(0.144 -0.144)">
      <use xlink:href="#BitstreamVeraSans-Roman-70"/>
      <use x="63.4765625" xlink:href="#BitstreamVeraSans-Roman-6d"/>
      <use x="160.888671875" xlink:href="#BitstreamVeraSans-Roman-70"/>
      <use x="224.365234375" xlink:href="#BitstreamVeraSans-Roman-5f"/>
      <use x="274.365234375" xlink:href="#BitstreamVeraSans-Roman-72"/>
      <use x="313.228515625" xlink:href="#BitstreamVeraSans-Roman-65"/>
      <use x="374.751953125" xlink:href="#BitstreamVeraSans-Roman-63"/>
      <use x="429.732421875" xlink:href="#BitstreamVeraSans-Roman-2e"/>
      <use x="461.51953125" xlink:href="#BitstreamVeraSans-Roman-6d"/>
      <use x="558.931640625" xlink:href="#BitstreamVeraSans-Roman-5f"/>
      <use x="608.931640625" xlink:href="#BitstreamVeraSans-Roman-66"/>
      <use x="644.13671875" xlink:href="#BitstreamVeraSans-Roman-6c"/>
      <use x="671.919921875" xlink:href="#BitstreamVeraSans-Roman-6f"/>
      <use x="733.1015625" xlink:href="#BitstreamVeraSans-Roman-77"/>
      <use x="814.888671875" xlink:href="#BitstreamVeraSans-Roman-5f"/>
      <use x="864.888671875" xlink:href="#BitstreamVeraSans-Roman-73"/>
      <use x="916.98828125" xlink:href="#BitstreamVeraSans-Roman-65"/>
      <use x="978.51171875" xlink:href="#BitstreamVeraSans-Roman-74"/>
     </g>
    </g>
    <g id="line2d_80">
     <path d="
M327.99 268.729
L348.15 268.729" style="fill:none;stroke:#ff0000;stroke-linecap:square;"/>
    </g>
    <g id="line2d_81"/>
    <g id="text_53">
     <!-- pmp_ext.m_flow_set -->
     <defs>
      <path d="
M54.8906 54.6875
L35.1094 28.0781
L55.9062 0
L45.3125 0
L29.3906 21.4844
L13.4844 0
L2.875 0
L24.125 28.6094
L4.6875 54.6875
L15.2812 54.6875
L29.7812 35.2031
L44.2812 54.6875
z
" id="BitstreamVeraSans-Roman-78"/>
     </defs>
     <g transform="translate(363.98975 273.76875)scale(0.144 -0.144)">
      <use xlink:href="#BitstreamVeraSans-Roman-70"/>
      <use x="63.4765625" xlink:href="#BitstreamVeraSans-Roman-6d"/>
      <use x="160.888671875" xlink:href="#BitstreamVeraSans-Roman-70"/>
      <use x="224.365234375" xlink:href="#BitstreamVeraSans-Roman-5f"/>
      <use x="274.365234375" xlink:href="#BitstreamVeraSans-Roman-65"/>
      <use x="334.138671875" xlink:href="#BitstreamVeraSans-Roman-78"/>
      <use x="393.318359375" xlink:href="#BitstreamVeraSans-Roman-74"/>
      <use x="432.52734375" xlink:href="#BitstreamVeraSans-Roman-2e"/>
      <use x="464.314453125" xlink:href="#BitstreamVeraSans-Roman-6d"/>
      <use x="561.7265625" xlink:href="#BitstreamVeraSans-Roman-5f"/>
      <use x="611.7265625" xlink:href="#BitstreamVeraSans-Roman-66"/>
      <use x="646.931640625" xlink:href="#BitstreamVeraSans-Roman-6c"/>
      <use x="674.71484375" xlink:href="#BitstreamVeraSans-Roman-6f"/>
      <use x="735.896484375" xlink:href="#BitstreamVeraSans-Roman-77"/>
      <use x="817.68359375" xlink:href="#BitstreamVeraSans-Roman-5f"/>
      <use x="867.68359375" xlink:href="#BitstreamVeraSans-Roman-73"/>
      <use x="919.783203125" xlink:href="#BitstreamVeraSans-Roman-65"/>
      <use x="981.306640625" xlink:href="#BitstreamVeraSans-Roman-74"/>
     </g>
    </g>
   </g>
  </g>
 </g>
 <defs>
  <clipPath id="pc469e2d746">
   <rect height="175.01" width="469.12375" x="53.12875" y="18.81"/>
  </clipPath>
  <clipPath id="p607a9f945f">
   <rect height="175.01" width="469.12375" x="53.12875" y="228.33"/>
  </clipPath>
 </defs>
</svg>
